M48
; DRILL file KiCad 10.0.6 date 2026-09-15T13:09:29
; FORMAT={-:-/ absolute / metric / decimal}
; #@! TF.CreationDate,2026-09-15T13:09:29-07:00
; #@! TF.GenerationSoftware,Kicad,Pcbnew,10.0.6
; #@! TF.FileFunction,Plated,1,4,PTH
FMAT,2
METRIC
; #@! TA.AperFunction,Plated,PTH,ViaDrill
T1C0.300
; #@! TA.AperFunction,Plated,PTH,ComponentDrill
T2C0.600
; #@! TA.AperFunction,Plated,PTH,ComponentDrill
T3C1.000
; #@! TA.AperFunction,Plated,PTH,ComponentDrill
T4C1.300
; #@! TA.AperFunction,Plated,PTH,ComponentDrill
T5C1.400
%
G90
G05
T1
X5.0Y90.6
X5.0Y86.2
X5.0Y81.8
X5.0Y77.4
X5.0Y73.0
X5.0Y68.6
X5.0Y64.2
X5.0Y59.8
X5.0Y55.4
X5.0Y51.0
X5.0Y46.6
X5.0Y42.2
X5.0Y37.8
X5.0Y33.4
X5.0Y29.0
X5.0Y24.6
X5.0Y20.2
X5.0Y15.8
X5.0Y11.4
X5.0Y7.0
X8.2Y10.4
X8.8Y6.2
X9.2Y11.4
X9.2Y10.4
X9.4Y95.0
X9.4Y90.6
X9.4Y86.2
X9.4Y81.8
X9.4Y77.4
X9.4Y73.0
X9.4Y68.6
X9.4Y64.2
X9.4Y59.8
X9.4Y55.4
X9.4Y51.0
X9.4Y46.6
X9.4Y42.2
X9.4Y37.8
X9.4Y33.4
X9.4Y29.0
X9.4Y24.6
X9.4Y20.2
X9.4Y15.8
X9.4Y2.6
X11.8Y14.6
X13.8Y95.0
X13.8Y90.6
X13.8Y86.2
X13.8Y81.8
X13.8Y77.4
X13.8Y73.0
X13.8Y68.6
X13.8Y64.2
X13.8Y59.8
X13.8Y55.4
X13.8Y51.0
X13.8Y46.6
X13.8Y42.2
X13.8Y37.8
X13.8Y33.4
X13.8Y29.0
X13.8Y24.6
X13.8Y20.2
X13.8Y15.8
X13.8Y7.0
X13.8Y2.6
X14.8Y14.6
X15.6Y70.2
X15.6Y44.2
X15.6Y37.8
X17.4Y7.8
X17.4Y6.2
X18.0Y10.4
X18.2Y95.0
X18.2Y90.6
X18.2Y86.2
X18.2Y81.8
X18.2Y77.4
X18.2Y59.8
X18.2Y55.4
X18.2Y51.0
X18.2Y33.4
X18.2Y29.0
X18.2Y24.6
X18.2Y20.2
X18.2Y15.8
X18.2Y2.6
X18.6Y9.4
X19.2Y65.0
X19.4Y40.2
X22.6Y95.0
X22.6Y90.6
X22.6Y86.2
X22.6Y81.8
X22.6Y73.0
X22.6Y68.6
X22.6Y64.2
X22.6Y55.4
X22.6Y42.2
X22.6Y37.8
X22.6Y33.4
X22.6Y29.0
X22.6Y24.6
X22.6Y20.2
X22.6Y15.8
X22.6Y11.4
X22.6Y7.0
X22.6Y2.6
X24.8Y66.4
X24.8Y40.4
X26.6Y71.6
X26.6Y59.4
X26.6Y52.8
X27.0Y95.0
X27.0Y90.6
X27.0Y86.2
X27.0Y81.8
X27.0Y33.4
X27.0Y29.0
X27.0Y24.6
X27.0Y20.2
X27.0Y15.8
X27.0Y11.4
X27.0Y7.0
X27.0Y2.6
X28.8Y57.4
X28.8Y39.2
X30.0Y52.0
X31.0Y17.0
X31.4Y95.0
X31.4Y90.6
X31.4Y86.2
X31.4Y81.8
X31.4Y75.8
X31.4Y68.6
X31.4Y55.4
X31.4Y46.6
X31.4Y37.8
X31.4Y29.0
X31.4Y24.6
X31.4Y20.2
X31.4Y11.4
X31.4Y7.0
X31.4Y2.6
X31.6Y57.0
X31.6Y32.0
X31.8Y52.2
X35.0Y17.0
X35.8Y95.0
X35.8Y90.6
X35.8Y86.2
X35.8Y81.8
X35.8Y73.0
X35.8Y68.6
X35.8Y64.2
X35.8Y55.4
X35.8Y51.0
X35.8Y42.2
X35.8Y29.0
X35.8Y24.6
X35.8Y20.2
X35.8Y11.4
X35.8Y7.0
X35.8Y2.6
X40.2Y95.0
X40.2Y90.6
X40.2Y86.2
X40.2Y51.0
X40.2Y37.8
X40.2Y29.0
X40.2Y24.6
X40.2Y20.2
X40.2Y11.4
X40.2Y7.0
X40.2Y2.6
X41.2Y77.2
X42.0Y59.0
X42.0Y35.0
X42.0Y29.2
X42.4Y82.8
X44.6Y95.0
X44.6Y90.6
X44.6Y86.2
X44.6Y81.8
X44.6Y77.4
X44.6Y73.0
X44.6Y68.6
X44.6Y59.8
X44.6Y46.6
X44.6Y42.2
X44.6Y33.4
X44.6Y24.6
X44.6Y20.2
X44.6Y15.8
X44.6Y7.0
X44.6Y2.6
X46.2Y31.0
X48.6Y59.4
X48.6Y33.4
X49.0Y95.0
X49.0Y90.6
X49.0Y77.4
X49.0Y73.0
X49.0Y68.6
X49.0Y64.2
X49.0Y55.4
X49.0Y51.0
X49.0Y46.6
X49.0Y42.2
X49.0Y37.8
X49.0Y29.0
X49.0Y24.6
X49.0Y20.2
X49.0Y15.8
X49.0Y11.4
X49.0Y7.0
X49.0Y2.6
X50.6Y10.4
X53.4Y95.0
X53.4Y90.6
X53.4Y55.4
X53.4Y51.0
X53.4Y46.6
X53.4Y42.2
X53.4Y37.8
X53.4Y29.0
X53.4Y24.6
X53.4Y20.2
X53.4Y15.8
X53.4Y11.4
X53.4Y7.0
X53.4Y2.6
X54.4Y82.2
X55.2Y35.8
X55.6Y76.0
X57.8Y95.0
X57.8Y90.6
X57.8Y77.4
X57.8Y73.0
X57.8Y68.6
X57.8Y64.2
X57.8Y51.0
X57.8Y46.6
X57.8Y42.2
X57.8Y29.0
X57.8Y24.6
X57.8Y20.2
X57.8Y15.8
X57.8Y11.4
X57.8Y2.6
X58.2Y10.4
X59.4Y82.2
X59.4Y35.0
X61.2Y53.8
X61.4Y33.0
X61.6Y46.2
X62.0Y81.4
X62.2Y95.0
X62.2Y90.6
X62.2Y86.2
X62.2Y77.4
X62.2Y73.0
X62.2Y68.6
X62.2Y29.0
X62.2Y24.6
X62.2Y20.2
X62.2Y15.8
X62.2Y2.6
X63.8Y40.2
X66.6Y95.0
X66.6Y90.6
X66.6Y86.2
X66.6Y73.0
X66.6Y64.2
X66.6Y59.8
X66.6Y51.0
X66.6Y46.6
X66.6Y42.2
X66.6Y37.8
X66.6Y29.0
X66.6Y24.6
X66.6Y20.2
X66.6Y11.4
X66.6Y2.6
X68.2Y77.2
X70.0Y17.0
X70.0Y5.0
X70.4Y53.4
X70.4Y46.2
X71.0Y95.0
X71.0Y90.6
X71.0Y86.2
X71.0Y77.4
X71.0Y68.6
X71.0Y64.2
X71.0Y59.8
X71.0Y24.6
X71.0Y20.2
X71.0Y11.4
X71.0Y7.0
X73.6Y71.8
X73.6Y25.4
X73.8Y69.4
X75.4Y95.0
X75.4Y90.6
X75.4Y86.2
X75.4Y81.8
X75.4Y64.2
X75.4Y24.6
X75.4Y20.2
X75.4Y15.8
X75.4Y2.6
X75.6Y61.6
X75.6Y26.0
X76.0Y12.8
X76.8Y36.0
X77.2Y11.0
X77.6Y7.4
X78.0Y78.0
X78.0Y57.6
X78.0Y34.4
X78.0Y20.0
X78.0Y14.4
X79.2Y60.0
X79.6Y24.2
X79.6Y5.4
X79.8Y95.0
X79.8Y90.6
X79.8Y86.2
X79.8Y81.8
X79.8Y66.8
X79.8Y55.4
X79.8Y51.0
X79.8Y46.6
X79.8Y42.2
X79.8Y37.8
X79.8Y11.4
X79.8Y2.6
X80.0Y76.2
X80.0Y72.0
X80.8Y30.0
X80.8Y23.0
X81.0Y68.0
X83.6Y16.4
X84.0Y18.0
X84.2Y95.0
X84.2Y90.6
X84.2Y86.2
X84.2Y81.8
X84.2Y77.4
X84.2Y73.0
X84.2Y51.0
X84.2Y46.6
X84.2Y42.2
X84.2Y37.8
X84.2Y33.4
X84.2Y29.0
X84.2Y24.6
X84.2Y20.2
X84.2Y7.0
X84.2Y2.6
X86.0Y12.8
X88.0Y3.0
X88.6Y95.0
X88.6Y90.6
X88.6Y73.0
X88.6Y68.6
X88.6Y64.2
X88.6Y46.6
X88.6Y42.2
X88.6Y37.8
X88.6Y15.8
X88.6Y7.0
X89.0Y85.6
X89.0Y77.6
X89.0Y59.6
X89.0Y51.6
X89.0Y33.6
X89.0Y25.6
X93.0Y95.0
X93.0Y90.6
X93.0Y86.2
X93.0Y77.4
X93.0Y73.0
X93.0Y68.6
X93.0Y64.2
X93.0Y59.8
X93.0Y51.0
X93.0Y46.6
X93.0Y42.2
X93.0Y37.8
X93.0Y33.4
X93.0Y24.6
X93.0Y20.2
X93.0Y11.4
X93.0Y7.0
X93.0Y2.6
X94.0Y18.0
X97.0Y85.6
X97.0Y77.6
X97.0Y59.6
X97.0Y51.6
X97.0Y33.6
X97.0Y25.6
X97.4Y90.6
X97.4Y81.8
X97.4Y73.0
X97.4Y68.6
X97.4Y64.2
X97.4Y55.4
X97.4Y46.6
X97.4Y42.2
X97.4Y37.8
X97.4Y29.0
X97.4Y20.2
X97.4Y15.8
X97.4Y11.4
X97.4Y7.0
T3
X48.0Y9.0
X50.54Y9.0
X55.62Y9.0
X58.16Y9.0
X60.7Y9.0
T4
X93.0Y80.0
X93.0Y54.0
X93.0Y28.0
T5
X89.0Y84.0
X89.0Y76.0
X89.0Y58.0
X89.0Y50.0
X89.0Y32.0
X89.0Y24.0
X97.0Y84.0
X97.0Y76.0
X97.0Y58.0
X97.0Y50.0
X97.0Y32.0
X97.0Y24.0
T2
X8.73Y9.68G85X8.73Y8.58
G05
X8.73Y5.25G85X8.73Y4.65
G05
X17.37Y9.68G85X17.37Y8.58
G05
X17.37Y5.25G85X17.37Y4.65
G05
M30
