M48
; DRILL file KiCad 10.0.6 date 2026-09-15
; FORMAT={-:-/ absolute / metric / decimal}
; #@! TF.CreationDate,2026-09-15T00:00:00+00:00
; #@! TF.GenerationSoftware,Kicad,Pcbnew,10.0.6
; #@! TF.FileFunction,Plated,1,2,PTH
FMAT,2
METRIC
; #@! TA.AperFunction,Plated,PTH,ViaDrill
T1C0.300
; #@! TA.AperFunction,Plated,PTH,ComponentDrill
T2C0.600
; #@! TA.AperFunction,Plated,PTH,ComponentDrill
T3C0.700
; #@! TA.AperFunction,Plated,PTH,ComponentDrill
T4C0.800
; #@! TA.AperFunction,Plated,PTH,ComponentDrill
T5C1.000
; #@! TA.AperFunction,Plated,PTH,ComponentDrill
T6C1.100
; #@! TA.AperFunction,Plated,PTH,ComponentDrill
T7C1.300
; #@! TA.AperFunction,Plated,PTH,ComponentDrill
T8C1.400
%
G90
G05
T1
X4.4Y20.0
X4.4Y16.4
X4.4Y12.8
X4.4Y9.2
X5.0Y76.6
X5.0Y41.6
X5.2Y90.4
X5.2Y86.0
X5.2Y81.6
X5.2Y71.6
X5.2Y64.0
X5.2Y59.6
X5.2Y55.2
X5.2Y50.8
X5.2Y46.4
X5.2Y28.8
X8.0Y20.0
X8.0Y16.4
X8.0Y12.8
X9.0Y9.4
X9.2Y10.4
X9.6Y94.8
X9.6Y90.4
X9.6Y86.0
X9.6Y81.6
X9.6Y76.6
X9.6Y55.2
X9.6Y38.0
X9.6Y35.4
X9.6Y33.2
X9.6Y28.8
X11.6Y20.0
X11.6Y16.4
X11.6Y2.0
X11.8Y12.6
X14.0Y94.8
X14.0Y90.4
X14.0Y86.0
X14.0Y81.6
X14.0Y68.4
X14.0Y64.0
X14.0Y50.8
X14.0Y42.0
X14.0Y33.2
X14.0Y28.8
X14.4Y72.8
X14.4Y37.8
X14.4Y6.2
X14.8Y12.6
X15.2Y20.0
X15.2Y16.4
X15.2Y2.0
X18.4Y94.8
X18.4Y90.4
X18.4Y86.0
X18.4Y81.6
X18.4Y59.6
X18.4Y28.8
X18.8Y20.0
X18.8Y16.4
X19.0Y76.4
X20.0Y67.6
X21.2Y35.2
X21.8Y79.8
X22.0Y77.2
X22.0Y42.8
X22.0Y32.6
X22.4Y9.2
X22.4Y5.6
X22.4Y2.0
X22.8Y94.8
X22.8Y90.4
X22.8Y86.0
X22.8Y81.6
X22.8Y37.6
X22.8Y28.8
X23.4Y73.2
X23.4Y46.8
X26.0Y9.2
X26.0Y5.6
X26.0Y2.0
X27.2Y94.8
X27.2Y90.4
X27.2Y86.0
X27.2Y77.2
X27.2Y68.4
X27.2Y59.6
X27.2Y46.4
X27.2Y28.8
X29.6Y20.0
X29.6Y16.4
X29.6Y9.2
X29.6Y5.6
X29.6Y2.0
X30.0Y15.0
X31.6Y94.8
X31.6Y90.4
X31.6Y86.0
X31.6Y81.6
X31.6Y72.8
X31.6Y68.4
X31.6Y59.6
X31.6Y46.4
X31.6Y28.8
X32.4Y32.8
X33.2Y16.4
X33.2Y9.2
X33.2Y5.6
X33.2Y2.0
X33.8Y79.8
X34.0Y15.0
X34.2Y85.6
X36.0Y94.8
X36.0Y90.4
X36.0Y86.0
X36.0Y80.4
X36.0Y68.4
X36.0Y46.4
X36.0Y37.0
X36.0Y31.4
X36.0Y28.8
X36.8Y20.0
X36.8Y16.4
X36.8Y12.8
X36.8Y2.0
X37.4Y82.2
X40.2Y85.0
X40.4Y94.8
X40.4Y90.4
X40.4Y81.6
X40.4Y64.0
X40.4Y59.6
X40.4Y55.2
X40.4Y46.4
X40.4Y28.8
X40.4Y20.0
X40.4Y16.4
X40.4Y12.8
X40.4Y9.2
X40.4Y2.0
X42.0Y21.0
X42.0Y17.6
X42.0Y14.0
X42.2Y65.8
X43.0Y85.0
X43.2Y72.8
X44.0Y21.0
X44.0Y17.6
X44.0Y14.0
X44.8Y94.8
X44.8Y90.4
X44.8Y68.4
X44.8Y59.6
X44.8Y50.8
X44.8Y46.4
X44.8Y37.6
X44.8Y28.8
X44.8Y24.4
X44.8Y20.0
X44.8Y15.6
X44.8Y11.2
X44.8Y2.4
X45.8Y82.2
X49.0Y84.8
X49.2Y94.8
X49.2Y90.4
X49.2Y50.0
X49.2Y46.4
X49.2Y28.8
X49.2Y24.4
X49.2Y15.6
X49.2Y11.2
X49.2Y2.4
X49.4Y72.2
X49.4Y32.6
X50.8Y60.8
X51.8Y50.0
X53.2Y55.4
X53.6Y94.8
X53.6Y90.4
X53.6Y81.6
X53.6Y37.6
X53.6Y24.4
X53.6Y15.6
X53.6Y2.4
X54.0Y42.0
X54.8Y49.6
X55.0Y84.8
X55.4Y72.2
X55.4Y32.6
X56.8Y55.4
X56.8Y50.0
X57.0Y58.2
X58.0Y94.8
X58.0Y90.4
X58.0Y81.6
X58.0Y72.8
X58.0Y68.4
X58.0Y64.0
X58.0Y42.0
X58.0Y37.6
X58.0Y24.4
X58.0Y2.4
X58.8Y6.2
X59.0Y42.0
X59.0Y15.4
X59.0Y4.0
X59.4Y50.0
X62.4Y94.8
X62.4Y90.4
X62.4Y81.6
X62.4Y72.8
X62.4Y68.4
X62.4Y64.0
X62.4Y49.6
X62.4Y42.0
X62.4Y24.4
X62.4Y11.2
X62.4Y2.4
X62.8Y58.0
X63.0Y87.0
X64.0Y33.2
X64.0Y6.4
X64.4Y58.0
X64.4Y13.0
X65.0Y75.6
X65.0Y37.8
X65.4Y25.6
X65.6Y86.8
X66.8Y94.8
X66.8Y90.4
X66.8Y86.0
X66.8Y72.8
X66.8Y68.4
X66.8Y64.0
X66.8Y59.6
X66.8Y46.4
X66.8Y24.4
X66.8Y20.0
X67.0Y38.2
X67.4Y82.6
X67.4Y80.4
X67.4Y30.4
X67.8Y7.0
X68.2Y14.0
X69.6Y27.0
X71.0Y45.4
X71.2Y94.8
X71.2Y90.4
X71.2Y86.0
X71.2Y72.8
X71.2Y68.4
X71.2Y64.0
X71.2Y59.6
X71.2Y55.2
X71.2Y37.6
X72.0Y82.6
X72.2Y30.6
X72.4Y27.8
X74.4Y78.8
X74.4Y31.4
X74.6Y5.8
X75.6Y94.8
X75.6Y90.4
X75.6Y86.0
X75.6Y55.2
X75.6Y46.4
X75.6Y24.4
X75.6Y20.0
X75.6Y11.2
X75.6Y2.4
X76.0Y13.0
X76.4Y6.4
X76.6Y80.2
X79.6Y45.4
X80.0Y94.8
X80.0Y90.4
X80.0Y86.0
X80.0Y77.2
X80.0Y72.8
X80.0Y68.4
X80.0Y64.0
X80.0Y59.6
X80.0Y37.6
X80.0Y28.8
X80.0Y24.4
X80.0Y20.0
X80.0Y11.2
X80.0Y2.4
X81.2Y15.2
X82.0Y4.0
X84.4Y94.8
X84.4Y90.4
X84.4Y86.0
X84.4Y77.2
X84.4Y72.8
X84.4Y68.4
X84.4Y64.0
X84.4Y59.6
X84.4Y50.8
X84.4Y37.6
X84.4Y33.2
X84.4Y28.8
X84.4Y24.4
X84.4Y20.0
X84.4Y15.6
X84.4Y11.2
X84.4Y6.8
X84.4Y2.4
X88.8Y94.8
X88.8Y90.4
X88.8Y72.8
X88.8Y68.4
X88.8Y64.0
X88.8Y46.4
X88.8Y42.0
X88.8Y37.6
X88.8Y24.4
X88.8Y15.6
X88.8Y6.8
X88.8Y2.4
X93.2Y94.8
X93.2Y90.4
X93.2Y86.0
X93.2Y77.2
X93.2Y72.8
X93.2Y68.4
X93.2Y64.0
X93.2Y59.6
X93.2Y50.8
X93.2Y46.4
X93.2Y42.0
X93.2Y37.6
X93.2Y24.4
X93.2Y15.6
X93.2Y6.8
X93.2Y2.4
X97.6Y90.4
X97.6Y81.6
X97.6Y72.8
X97.6Y68.4
X97.6Y64.0
X97.6Y55.2
X97.6Y46.4
X97.6Y42.0
X97.6Y37.6
X97.6Y24.4
X97.6Y20.0
X97.6Y15.6
X97.6Y11.2
X97.6Y6.8
T3
X24.0Y62.0
X24.0Y20.5
X28.0Y52.5
X28.0Y37.0
X32.0Y20.5
X50.0Y20.5
X57.0Y20.5
X64.0Y20.5
X71.0Y20.5
X78.0Y20.5
X80.0Y81.0
X80.0Y56.0
X80.0Y31.0
X88.0Y40.0
T4
X14.0Y58.54
X14.0Y53.46
X16.54Y56.0
T5
X37.92Y6.0
X40.46Y6.0
X45.54Y6.0
X48.08Y6.0
X50.62Y6.0
T6
X53.46Y28.0
X58.54Y28.0
X88.46Y9.5
X89.46Y20.5
X93.54Y9.5
X94.54Y20.5
T7
X93.0Y81.0
X93.0Y56.0
X93.0Y31.0
T8
X89.0Y85.0
X89.0Y77.0
X89.0Y60.0
X89.0Y52.0
X89.0Y35.0
X89.0Y27.0
X97.0Y85.0
X97.0Y77.0
X97.0Y60.0
X97.0Y52.0
X97.0Y35.0
X97.0Y27.0
T2
X8.73Y7.83G85X8.73Y6.73
G05
X8.73Y3.4G85X8.73Y2.8
G05
X17.37Y7.83G85X17.37Y6.73
G05
X17.37Y3.4G85X17.37Y2.8
G05
M30
