%TF.GenerationSoftware,KiCad,Pcbnew,10.0.6*%
%TF.CreationDate,2026-09-15T00:00:00+00:00*%
%TF.ProjectId,lorenz,6c6f7265-6e7a-42e6-9b69-6361645f7063,rev?*%
%TF.SameCoordinates,Original*%
%TF.FileFunction,Drillmap*%
%TF.FilePolarity,Positive*%
%FSLAX45Y45*%
G04 Gerber Fmt 4.5, Leading zero omitted, Abs format (unit mm)*
G04 Created by KiCad (PCBNEW 10.0.6) date 2026-09-15*
%MOMM*%
%LPD*%
G01*
G04 APERTURE LIST*
%ADD10C,0.100000*%
%ADD11C,0.200000*%
%ADD12C,0.130000*%
%ADD13C,0.140000*%
G04 APERTURE END LIST*
D10*
X0Y9700000D02*
G75*
G02*
X300000Y10000000I300000J0D01*
G01*
X0Y300000D02*
X0Y9700000D01*
X300000Y10000000D02*
X9700000Y10000000D01*
X300000Y0D02*
G75*
G02*
X0Y300000I0J300000D01*
G01*
X9700000Y10000000D02*
G75*
G02*
X10000000Y9700000I0J-300000D01*
G01*
X9700000Y0D02*
X300000Y0D01*
X10000000Y9700000D02*
X10000000Y300000D01*
X10000000Y300000D02*
G75*
G02*
X9700000Y0I-300000J0D01*
G01*
D11*
D10*
X485000Y9075000D02*
X515000Y9045000D01*
X515000Y9075000D02*
X485000Y9045000D01*
X485000Y8635000D02*
X515000Y8605000D01*
X515000Y8635000D02*
X485000Y8605000D01*
X485000Y8195000D02*
X515000Y8165000D01*
X515000Y8195000D02*
X485000Y8165000D01*
X485000Y7755000D02*
X515000Y7725000D01*
X515000Y7755000D02*
X485000Y7725000D01*
X485000Y7315000D02*
X515000Y7285000D01*
X515000Y7315000D02*
X485000Y7285000D01*
X485000Y6875000D02*
X515000Y6845000D01*
X515000Y6875000D02*
X485000Y6845000D01*
X485000Y6435000D02*
X515000Y6405000D01*
X515000Y6435000D02*
X485000Y6405000D01*
X485000Y5995000D02*
X515000Y5965000D01*
X515000Y5995000D02*
X485000Y5965000D01*
X485000Y5555000D02*
X515000Y5525000D01*
X515000Y5555000D02*
X485000Y5525000D01*
X485000Y5115000D02*
X515000Y5085000D01*
X515000Y5115000D02*
X485000Y5085000D01*
X485000Y4675000D02*
X515000Y4645000D01*
X515000Y4675000D02*
X485000Y4645000D01*
X485000Y4235000D02*
X515000Y4205000D01*
X515000Y4235000D02*
X485000Y4205000D01*
X485000Y3795000D02*
X515000Y3765000D01*
X515000Y3795000D02*
X485000Y3765000D01*
X485000Y3355000D02*
X515000Y3325000D01*
X515000Y3355000D02*
X485000Y3325000D01*
X485000Y2915000D02*
X515000Y2885000D01*
X515000Y2915000D02*
X485000Y2885000D01*
X485000Y2475000D02*
X515000Y2445000D01*
X515000Y2475000D02*
X485000Y2445000D01*
X485000Y2035000D02*
X515000Y2005000D01*
X515000Y2035000D02*
X485000Y2005000D01*
X485000Y1595000D02*
X515000Y1565000D01*
X515000Y1595000D02*
X485000Y1565000D01*
X485000Y1155000D02*
X515000Y1125000D01*
X515000Y1155000D02*
X485000Y1125000D01*
X485000Y715000D02*
X515000Y685000D01*
X515000Y715000D02*
X485000Y685000D01*
X805000Y1055000D02*
X835000Y1025000D01*
X835000Y1055000D02*
X805000Y1025000D01*
X865000Y635000D02*
X895000Y605000D01*
X895000Y635000D02*
X865000Y605000D01*
X905000Y1155000D02*
X935000Y1125000D01*
X935000Y1155000D02*
X905000Y1125000D01*
X905000Y1055000D02*
X935000Y1025000D01*
X935000Y1055000D02*
X905000Y1025000D01*
X925000Y9515000D02*
X955000Y9485000D01*
X955000Y9515000D02*
X925000Y9485000D01*
X925000Y9075000D02*
X955000Y9045000D01*
X955000Y9075000D02*
X925000Y9045000D01*
X925000Y8635000D02*
X955000Y8605000D01*
X955000Y8635000D02*
X925000Y8605000D01*
X925000Y8195000D02*
X955000Y8165000D01*
X955000Y8195000D02*
X925000Y8165000D01*
X925000Y7755000D02*
X955000Y7725000D01*
X955000Y7755000D02*
X925000Y7725000D01*
X925000Y7315000D02*
X955000Y7285000D01*
X955000Y7315000D02*
X925000Y7285000D01*
X925000Y6875000D02*
X955000Y6845000D01*
X955000Y6875000D02*
X925000Y6845000D01*
X925000Y6435000D02*
X955000Y6405000D01*
X955000Y6435000D02*
X925000Y6405000D01*
X925000Y5995000D02*
X955000Y5965000D01*
X955000Y5995000D02*
X925000Y5965000D01*
X925000Y5555000D02*
X955000Y5525000D01*
X955000Y5555000D02*
X925000Y5525000D01*
X925000Y5115000D02*
X955000Y5085000D01*
X955000Y5115000D02*
X925000Y5085000D01*
X925000Y4675000D02*
X955000Y4645000D01*
X955000Y4675000D02*
X925000Y4645000D01*
X925000Y4235000D02*
X955000Y4205000D01*
X955000Y4235000D02*
X925000Y4205000D01*
X925000Y3795000D02*
X955000Y3765000D01*
X955000Y3795000D02*
X925000Y3765000D01*
X925000Y3355000D02*
X955000Y3325000D01*
X955000Y3355000D02*
X925000Y3325000D01*
X925000Y2915000D02*
X955000Y2885000D01*
X955000Y2915000D02*
X925000Y2885000D01*
X925000Y2475000D02*
X955000Y2445000D01*
X955000Y2475000D02*
X925000Y2445000D01*
X925000Y2035000D02*
X955000Y2005000D01*
X955000Y2035000D02*
X925000Y2005000D01*
X925000Y1595000D02*
X955000Y1565000D01*
X955000Y1595000D02*
X925000Y1565000D01*
X925000Y275000D02*
X955000Y245000D01*
X955000Y275000D02*
X925000Y245000D01*
X1165000Y1475000D02*
X1195000Y1445000D01*
X1195000Y1475000D02*
X1165000Y1445000D01*
X1365000Y9515000D02*
X1395000Y9485000D01*
X1395000Y9515000D02*
X1365000Y9485000D01*
X1365000Y9075000D02*
X1395000Y9045000D01*
X1395000Y9075000D02*
X1365000Y9045000D01*
X1365000Y8635000D02*
X1395000Y8605000D01*
X1395000Y8635000D02*
X1365000Y8605000D01*
X1365000Y8195000D02*
X1395000Y8165000D01*
X1395000Y8195000D02*
X1365000Y8165000D01*
X1365000Y7755000D02*
X1395000Y7725000D01*
X1395000Y7755000D02*
X1365000Y7725000D01*
X1365000Y7315000D02*
X1395000Y7285000D01*
X1395000Y7315000D02*
X1365000Y7285000D01*
X1365000Y6875000D02*
X1395000Y6845000D01*
X1395000Y6875000D02*
X1365000Y6845000D01*
X1365000Y6435000D02*
X1395000Y6405000D01*
X1395000Y6435000D02*
X1365000Y6405000D01*
X1365000Y5995000D02*
X1395000Y5965000D01*
X1395000Y5995000D02*
X1365000Y5965000D01*
X1365000Y5555000D02*
X1395000Y5525000D01*
X1395000Y5555000D02*
X1365000Y5525000D01*
X1365000Y5115000D02*
X1395000Y5085000D01*
X1395000Y5115000D02*
X1365000Y5085000D01*
X1365000Y4675000D02*
X1395000Y4645000D01*
X1395000Y4675000D02*
X1365000Y4645000D01*
X1365000Y4235000D02*
X1395000Y4205000D01*
X1395000Y4235000D02*
X1365000Y4205000D01*
X1365000Y3795000D02*
X1395000Y3765000D01*
X1395000Y3795000D02*
X1365000Y3765000D01*
X1365000Y3355000D02*
X1395000Y3325000D01*
X1395000Y3355000D02*
X1365000Y3325000D01*
X1365000Y2915000D02*
X1395000Y2885000D01*
X1395000Y2915000D02*
X1365000Y2885000D01*
X1365000Y2475000D02*
X1395000Y2445000D01*
X1395000Y2475000D02*
X1365000Y2445000D01*
X1365000Y2035000D02*
X1395000Y2005000D01*
X1395000Y2035000D02*
X1365000Y2005000D01*
X1365000Y1595000D02*
X1395000Y1565000D01*
X1395000Y1595000D02*
X1365000Y1565000D01*
X1365000Y715000D02*
X1395000Y685000D01*
X1395000Y715000D02*
X1365000Y685000D01*
X1365000Y275000D02*
X1395000Y245000D01*
X1395000Y275000D02*
X1365000Y245000D01*
X1465000Y1475000D02*
X1495000Y1445000D01*
X1495000Y1475000D02*
X1465000Y1445000D01*
X1545000Y7035000D02*
X1575000Y7005000D01*
X1575000Y7035000D02*
X1545000Y7005000D01*
X1545000Y4435000D02*
X1575000Y4405000D01*
X1575000Y4435000D02*
X1545000Y4405000D01*
X1545000Y3795000D02*
X1575000Y3765000D01*
X1575000Y3795000D02*
X1545000Y3765000D01*
X1725000Y795000D02*
X1755000Y765000D01*
X1755000Y795000D02*
X1725000Y765000D01*
X1725000Y635000D02*
X1755000Y605000D01*
X1755000Y635000D02*
X1725000Y605000D01*
X1785000Y1055000D02*
X1815000Y1025000D01*
X1815000Y1055000D02*
X1785000Y1025000D01*
X1805000Y9515000D02*
X1835000Y9485000D01*
X1835000Y9515000D02*
X1805000Y9485000D01*
X1805000Y9075000D02*
X1835000Y9045000D01*
X1835000Y9075000D02*
X1805000Y9045000D01*
X1805000Y8635000D02*
X1835000Y8605000D01*
X1835000Y8635000D02*
X1805000Y8605000D01*
X1805000Y8195000D02*
X1835000Y8165000D01*
X1835000Y8195000D02*
X1805000Y8165000D01*
X1805000Y7755000D02*
X1835000Y7725000D01*
X1835000Y7755000D02*
X1805000Y7725000D01*
X1805000Y5995000D02*
X1835000Y5965000D01*
X1835000Y5995000D02*
X1805000Y5965000D01*
X1805000Y5555000D02*
X1835000Y5525000D01*
X1835000Y5555000D02*
X1805000Y5525000D01*
X1805000Y5115000D02*
X1835000Y5085000D01*
X1835000Y5115000D02*
X1805000Y5085000D01*
X1805000Y3355000D02*
X1835000Y3325000D01*
X1835000Y3355000D02*
X1805000Y3325000D01*
X1805000Y2915000D02*
X1835000Y2885000D01*
X1835000Y2915000D02*
X1805000Y2885000D01*
X1805000Y2475000D02*
X1835000Y2445000D01*
X1835000Y2475000D02*
X1805000Y2445000D01*
X1805000Y2035000D02*
X1835000Y2005000D01*
X1835000Y2035000D02*
X1805000Y2005000D01*
X1805000Y1595000D02*
X1835000Y1565000D01*
X1835000Y1595000D02*
X1805000Y1565000D01*
X1805000Y275000D02*
X1835000Y245000D01*
X1835000Y275000D02*
X1805000Y245000D01*
X1845000Y955000D02*
X1875000Y925000D01*
X1875000Y955000D02*
X1845000Y925000D01*
X1905000Y6515000D02*
X1935000Y6485000D01*
X1935000Y6515000D02*
X1905000Y6485000D01*
X1925000Y4035000D02*
X1955000Y4005000D01*
X1955000Y4035000D02*
X1925000Y4005000D01*
X2245000Y9515000D02*
X2275000Y9485000D01*
X2275000Y9515000D02*
X2245000Y9485000D01*
X2245000Y9075000D02*
X2275000Y9045000D01*
X2275000Y9075000D02*
X2245000Y9045000D01*
X2245000Y8635000D02*
X2275000Y8605000D01*
X2275000Y8635000D02*
X2245000Y8605000D01*
X2245000Y8195000D02*
X2275000Y8165000D01*
X2275000Y8195000D02*
X2245000Y8165000D01*
X2245000Y7315000D02*
X2275000Y7285000D01*
X2275000Y7315000D02*
X2245000Y7285000D01*
X2245000Y6875000D02*
X2275000Y6845000D01*
X2275000Y6875000D02*
X2245000Y6845000D01*
X2245000Y6435000D02*
X2275000Y6405000D01*
X2275000Y6435000D02*
X2245000Y6405000D01*
X2245000Y5555000D02*
X2275000Y5525000D01*
X2275000Y5555000D02*
X2245000Y5525000D01*
X2245000Y4235000D02*
X2275000Y4205000D01*
X2275000Y4235000D02*
X2245000Y4205000D01*
X2245000Y3795000D02*
X2275000Y3765000D01*
X2275000Y3795000D02*
X2245000Y3765000D01*
X2245000Y3355000D02*
X2275000Y3325000D01*
X2275000Y3355000D02*
X2245000Y3325000D01*
X2245000Y2915000D02*
X2275000Y2885000D01*
X2275000Y2915000D02*
X2245000Y2885000D01*
X2245000Y2475000D02*
X2275000Y2445000D01*
X2275000Y2475000D02*
X2245000Y2445000D01*
X2245000Y2035000D02*
X2275000Y2005000D01*
X2275000Y2035000D02*
X2245000Y2005000D01*
X2245000Y1595000D02*
X2275000Y1565000D01*
X2275000Y1595000D02*
X2245000Y1565000D01*
X2245000Y1155000D02*
X2275000Y1125000D01*
X2275000Y1155000D02*
X2245000Y1125000D01*
X2245000Y715000D02*
X2275000Y685000D01*
X2275000Y715000D02*
X2245000Y685000D01*
X2245000Y275000D02*
X2275000Y245000D01*
X2275000Y275000D02*
X2245000Y245000D01*
X2465000Y6655000D02*
X2495000Y6625000D01*
X2495000Y6655000D02*
X2465000Y6625000D01*
X2465000Y4055000D02*
X2495000Y4025000D01*
X2495000Y4055000D02*
X2465000Y4025000D01*
X2645000Y7175000D02*
X2675000Y7145000D01*
X2675000Y7175000D02*
X2645000Y7145000D01*
X2645000Y5295000D02*
X2675000Y5265000D01*
X2675000Y5295000D02*
X2645000Y5265000D01*
X2685000Y9515000D02*
X2715000Y9485000D01*
X2715000Y9515000D02*
X2685000Y9485000D01*
X2685000Y9075000D02*
X2715000Y9045000D01*
X2715000Y9075000D02*
X2685000Y9045000D01*
X2685000Y8635000D02*
X2715000Y8605000D01*
X2715000Y8635000D02*
X2685000Y8605000D01*
X2685000Y8195000D02*
X2715000Y8165000D01*
X2715000Y8195000D02*
X2685000Y8165000D01*
X2685000Y3355000D02*
X2715000Y3325000D01*
X2715000Y3355000D02*
X2685000Y3325000D01*
X2685000Y2915000D02*
X2715000Y2885000D01*
X2715000Y2915000D02*
X2685000Y2885000D01*
X2685000Y2475000D02*
X2715000Y2445000D01*
X2715000Y2475000D02*
X2685000Y2445000D01*
X2685000Y2035000D02*
X2715000Y2005000D01*
X2715000Y2035000D02*
X2685000Y2005000D01*
X2685000Y1595000D02*
X2715000Y1565000D01*
X2715000Y1595000D02*
X2685000Y1565000D01*
X2685000Y1155000D02*
X2715000Y1125000D01*
X2715000Y1155000D02*
X2685000Y1125000D01*
X2685000Y715000D02*
X2715000Y685000D01*
X2715000Y715000D02*
X2685000Y685000D01*
X2685000Y275000D02*
X2715000Y245000D01*
X2715000Y275000D02*
X2685000Y245000D01*
X2865000Y5755000D02*
X2895000Y5725000D01*
X2895000Y5755000D02*
X2865000Y5725000D01*
X2865000Y3935000D02*
X2895000Y3905000D01*
X2895000Y3935000D02*
X2865000Y3905000D01*
X2985000Y5215000D02*
X3015000Y5185000D01*
X3015000Y5215000D02*
X2985000Y5185000D01*
X3085000Y1715000D02*
X3115000Y1685000D01*
X3115000Y1715000D02*
X3085000Y1685000D01*
X3125000Y9515000D02*
X3155000Y9485000D01*
X3155000Y9515000D02*
X3125000Y9485000D01*
X3125000Y9075000D02*
X3155000Y9045000D01*
X3155000Y9075000D02*
X3125000Y9045000D01*
X3125000Y8635000D02*
X3155000Y8605000D01*
X3155000Y8635000D02*
X3125000Y8605000D01*
X3125000Y8195000D02*
X3155000Y8165000D01*
X3155000Y8195000D02*
X3125000Y8165000D01*
X3125000Y7595000D02*
X3155000Y7565000D01*
X3155000Y7595000D02*
X3125000Y7565000D01*
X3125000Y6875000D02*
X3155000Y6845000D01*
X3155000Y6875000D02*
X3125000Y6845000D01*
X3125000Y5555000D02*
X3155000Y5525000D01*
X3155000Y5555000D02*
X3125000Y5525000D01*
X3125000Y4675000D02*
X3155000Y4645000D01*
X3155000Y4675000D02*
X3125000Y4645000D01*
X3125000Y3795000D02*
X3155000Y3765000D01*
X3155000Y3795000D02*
X3125000Y3765000D01*
X3125000Y2915000D02*
X3155000Y2885000D01*
X3155000Y2915000D02*
X3125000Y2885000D01*
X3125000Y2475000D02*
X3155000Y2445000D01*
X3155000Y2475000D02*
X3125000Y2445000D01*
X3125000Y2035000D02*
X3155000Y2005000D01*
X3155000Y2035000D02*
X3125000Y2005000D01*
X3125000Y1155000D02*
X3155000Y1125000D01*
X3155000Y1155000D02*
X3125000Y1125000D01*
X3125000Y715000D02*
X3155000Y685000D01*
X3155000Y715000D02*
X3125000Y685000D01*
X3125000Y275000D02*
X3155000Y245000D01*
X3155000Y275000D02*
X3125000Y245000D01*
X3145000Y5715000D02*
X3175000Y5685000D01*
X3175000Y5715000D02*
X3145000Y5685000D01*
X3145000Y3215000D02*
X3175000Y3185000D01*
X3175000Y3215000D02*
X3145000Y3185000D01*
X3165000Y5235000D02*
X3195000Y5205000D01*
X3195000Y5235000D02*
X3165000Y5205000D01*
X3485000Y1715000D02*
X3515000Y1685000D01*
X3515000Y1715000D02*
X3485000Y1685000D01*
X3565000Y9515000D02*
X3595000Y9485000D01*
X3595000Y9515000D02*
X3565000Y9485000D01*
X3565000Y9075000D02*
X3595000Y9045000D01*
X3595000Y9075000D02*
X3565000Y9045000D01*
X3565000Y8635000D02*
X3595000Y8605000D01*
X3595000Y8635000D02*
X3565000Y8605000D01*
X3565000Y8195000D02*
X3595000Y8165000D01*
X3595000Y8195000D02*
X3565000Y8165000D01*
X3565000Y7315000D02*
X3595000Y7285000D01*
X3595000Y7315000D02*
X3565000Y7285000D01*
X3565000Y6875000D02*
X3595000Y6845000D01*
X3595000Y6875000D02*
X3565000Y6845000D01*
X3565000Y6435000D02*
X3595000Y6405000D01*
X3595000Y6435000D02*
X3565000Y6405000D01*
X3565000Y5555000D02*
X3595000Y5525000D01*
X3595000Y5555000D02*
X3565000Y5525000D01*
X3565000Y5115000D02*
X3595000Y5085000D01*
X3595000Y5115000D02*
X3565000Y5085000D01*
X3565000Y4235000D02*
X3595000Y4205000D01*
X3595000Y4235000D02*
X3565000Y4205000D01*
X3565000Y2915000D02*
X3595000Y2885000D01*
X3595000Y2915000D02*
X3565000Y2885000D01*
X3565000Y2475000D02*
X3595000Y2445000D01*
X3595000Y2475000D02*
X3565000Y2445000D01*
X3565000Y2035000D02*
X3595000Y2005000D01*
X3595000Y2035000D02*
X3565000Y2005000D01*
X3565000Y1155000D02*
X3595000Y1125000D01*
X3595000Y1155000D02*
X3565000Y1125000D01*
X3565000Y715000D02*
X3595000Y685000D01*
X3595000Y715000D02*
X3565000Y685000D01*
X3565000Y275000D02*
X3595000Y245000D01*
X3595000Y275000D02*
X3565000Y245000D01*
X4005000Y9515000D02*
X4035000Y9485000D01*
X4035000Y9515000D02*
X4005000Y9485000D01*
X4005000Y9075000D02*
X4035000Y9045000D01*
X4035000Y9075000D02*
X4005000Y9045000D01*
X4005000Y8635000D02*
X4035000Y8605000D01*
X4035000Y8635000D02*
X4005000Y8605000D01*
X4005000Y5115000D02*
X4035000Y5085000D01*
X4035000Y5115000D02*
X4005000Y5085000D01*
X4005000Y3795000D02*
X4035000Y3765000D01*
X4035000Y3795000D02*
X4005000Y3765000D01*
X4005000Y2915000D02*
X4035000Y2885000D01*
X4035000Y2915000D02*
X4005000Y2885000D01*
X4005000Y2475000D02*
X4035000Y2445000D01*
X4035000Y2475000D02*
X4005000Y2445000D01*
X4005000Y2035000D02*
X4035000Y2005000D01*
X4035000Y2035000D02*
X4005000Y2005000D01*
X4005000Y1155000D02*
X4035000Y1125000D01*
X4035000Y1155000D02*
X4005000Y1125000D01*
X4005000Y715000D02*
X4035000Y685000D01*
X4035000Y715000D02*
X4005000Y685000D01*
X4005000Y275000D02*
X4035000Y245000D01*
X4035000Y275000D02*
X4005000Y245000D01*
X4105000Y7735000D02*
X4135000Y7705000D01*
X4135000Y7735000D02*
X4105000Y7705000D01*
X4185000Y5915000D02*
X4215000Y5885000D01*
X4215000Y5915000D02*
X4185000Y5885000D01*
X4185000Y3515000D02*
X4215000Y3485000D01*
X4215000Y3515000D02*
X4185000Y3485000D01*
X4185000Y2935000D02*
X4215000Y2905000D01*
X4215000Y2935000D02*
X4185000Y2905000D01*
X4225000Y8295000D02*
X4255000Y8265000D01*
X4255000Y8295000D02*
X4225000Y8265000D01*
X4445000Y9515000D02*
X4475000Y9485000D01*
X4475000Y9515000D02*
X4445000Y9485000D01*
X4445000Y9075000D02*
X4475000Y9045000D01*
X4475000Y9075000D02*
X4445000Y9045000D01*
X4445000Y8635000D02*
X4475000Y8605000D01*
X4475000Y8635000D02*
X4445000Y8605000D01*
X4445000Y8195000D02*
X4475000Y8165000D01*
X4475000Y8195000D02*
X4445000Y8165000D01*
X4445000Y7755000D02*
X4475000Y7725000D01*
X4475000Y7755000D02*
X4445000Y7725000D01*
X4445000Y7315000D02*
X4475000Y7285000D01*
X4475000Y7315000D02*
X4445000Y7285000D01*
X4445000Y6875000D02*
X4475000Y6845000D01*
X4475000Y6875000D02*
X4445000Y6845000D01*
X4445000Y5995000D02*
X4475000Y5965000D01*
X4475000Y5995000D02*
X4445000Y5965000D01*
X4445000Y4675000D02*
X4475000Y4645000D01*
X4475000Y4675000D02*
X4445000Y4645000D01*
X4445000Y4235000D02*
X4475000Y4205000D01*
X4475000Y4235000D02*
X4445000Y4205000D01*
X4445000Y3355000D02*
X4475000Y3325000D01*
X4475000Y3355000D02*
X4445000Y3325000D01*
X4445000Y2475000D02*
X4475000Y2445000D01*
X4475000Y2475000D02*
X4445000Y2445000D01*
X4445000Y2035000D02*
X4475000Y2005000D01*
X4475000Y2035000D02*
X4445000Y2005000D01*
X4445000Y1595000D02*
X4475000Y1565000D01*
X4475000Y1595000D02*
X4445000Y1565000D01*
X4445000Y715000D02*
X4475000Y685000D01*
X4475000Y715000D02*
X4445000Y685000D01*
X4445000Y275000D02*
X4475000Y245000D01*
X4475000Y275000D02*
X4445000Y245000D01*
X4605000Y3115000D02*
X4635000Y3085000D01*
X4635000Y3115000D02*
X4605000Y3085000D01*
X4845000Y5955000D02*
X4875000Y5925000D01*
X4875000Y5955000D02*
X4845000Y5925000D01*
X4845000Y3355000D02*
X4875000Y3325000D01*
X4875000Y3355000D02*
X4845000Y3325000D01*
X4885000Y9515000D02*
X4915000Y9485000D01*
X4915000Y9515000D02*
X4885000Y9485000D01*
X4885000Y9075000D02*
X4915000Y9045000D01*
X4915000Y9075000D02*
X4885000Y9045000D01*
X4885000Y7755000D02*
X4915000Y7725000D01*
X4915000Y7755000D02*
X4885000Y7725000D01*
X4885000Y7315000D02*
X4915000Y7285000D01*
X4915000Y7315000D02*
X4885000Y7285000D01*
X4885000Y6875000D02*
X4915000Y6845000D01*
X4915000Y6875000D02*
X4885000Y6845000D01*
X4885000Y6435000D02*
X4915000Y6405000D01*
X4915000Y6435000D02*
X4885000Y6405000D01*
X4885000Y5555000D02*
X4915000Y5525000D01*
X4915000Y5555000D02*
X4885000Y5525000D01*
X4885000Y5115000D02*
X4915000Y5085000D01*
X4915000Y5115000D02*
X4885000Y5085000D01*
X4885000Y4675000D02*
X4915000Y4645000D01*
X4915000Y4675000D02*
X4885000Y4645000D01*
X4885000Y4235000D02*
X4915000Y4205000D01*
X4915000Y4235000D02*
X4885000Y4205000D01*
X4885000Y3795000D02*
X4915000Y3765000D01*
X4915000Y3795000D02*
X4885000Y3765000D01*
X4885000Y2915000D02*
X4915000Y2885000D01*
X4915000Y2915000D02*
X4885000Y2885000D01*
X4885000Y2475000D02*
X4915000Y2445000D01*
X4915000Y2475000D02*
X4885000Y2445000D01*
X4885000Y2035000D02*
X4915000Y2005000D01*
X4915000Y2035000D02*
X4885000Y2005000D01*
X4885000Y1595000D02*
X4915000Y1565000D01*
X4915000Y1595000D02*
X4885000Y1565000D01*
X4885000Y1155000D02*
X4915000Y1125000D01*
X4915000Y1155000D02*
X4885000Y1125000D01*
X4885000Y715000D02*
X4915000Y685000D01*
X4915000Y715000D02*
X4885000Y685000D01*
X4885000Y275000D02*
X4915000Y245000D01*
X4915000Y275000D02*
X4885000Y245000D01*
X5045000Y1055000D02*
X5075000Y1025000D01*
X5075000Y1055000D02*
X5045000Y1025000D01*
X5325000Y9515000D02*
X5355000Y9485000D01*
X5355000Y9515000D02*
X5325000Y9485000D01*
X5325000Y9075000D02*
X5355000Y9045000D01*
X5355000Y9075000D02*
X5325000Y9045000D01*
X5325000Y5555000D02*
X5355000Y5525000D01*
X5355000Y5555000D02*
X5325000Y5525000D01*
X5325000Y5115000D02*
X5355000Y5085000D01*
X5355000Y5115000D02*
X5325000Y5085000D01*
X5325000Y4675000D02*
X5355000Y4645000D01*
X5355000Y4675000D02*
X5325000Y4645000D01*
X5325000Y4235000D02*
X5355000Y4205000D01*
X5355000Y4235000D02*
X5325000Y4205000D01*
X5325000Y3795000D02*
X5355000Y3765000D01*
X5355000Y3795000D02*
X5325000Y3765000D01*
X5325000Y2915000D02*
X5355000Y2885000D01*
X5355000Y2915000D02*
X5325000Y2885000D01*
X5325000Y2475000D02*
X5355000Y2445000D01*
X5355000Y2475000D02*
X5325000Y2445000D01*
X5325000Y2035000D02*
X5355000Y2005000D01*
X5355000Y2035000D02*
X5325000Y2005000D01*
X5325000Y1595000D02*
X5355000Y1565000D01*
X5355000Y1595000D02*
X5325000Y1565000D01*
X5325000Y1155000D02*
X5355000Y1125000D01*
X5355000Y1155000D02*
X5325000Y1125000D01*
X5325000Y715000D02*
X5355000Y685000D01*
X5355000Y715000D02*
X5325000Y685000D01*
X5325000Y275000D02*
X5355000Y245000D01*
X5355000Y275000D02*
X5325000Y245000D01*
X5425000Y8235000D02*
X5455000Y8205000D01*
X5455000Y8235000D02*
X5425000Y8205000D01*
X5505000Y3595000D02*
X5535000Y3565000D01*
X5535000Y3595000D02*
X5505000Y3565000D01*
X5765000Y9515000D02*
X5795000Y9485000D01*
X5795000Y9515000D02*
X5765000Y9485000D01*
X5765000Y9075000D02*
X5795000Y9045000D01*
X5795000Y9075000D02*
X5765000Y9045000D01*
X5765000Y7755000D02*
X5795000Y7725000D01*
X5795000Y7755000D02*
X5765000Y7725000D01*
X5765000Y7315000D02*
X5795000Y7285000D01*
X5795000Y7315000D02*
X5765000Y7285000D01*
X5765000Y6875000D02*
X5795000Y6845000D01*
X5795000Y6875000D02*
X5765000Y6845000D01*
X5765000Y6435000D02*
X5795000Y6405000D01*
X5795000Y6435000D02*
X5765000Y6405000D01*
X5765000Y5115000D02*
X5795000Y5085000D01*
X5795000Y5115000D02*
X5765000Y5085000D01*
X5765000Y4675000D02*
X5795000Y4645000D01*
X5795000Y4675000D02*
X5765000Y4645000D01*
X5765000Y4235000D02*
X5795000Y4205000D01*
X5795000Y4235000D02*
X5765000Y4205000D01*
X5765000Y2915000D02*
X5795000Y2885000D01*
X5795000Y2915000D02*
X5765000Y2885000D01*
X5765000Y2475000D02*
X5795000Y2445000D01*
X5795000Y2475000D02*
X5765000Y2445000D01*
X5765000Y2035000D02*
X5795000Y2005000D01*
X5795000Y2035000D02*
X5765000Y2005000D01*
X5765000Y1595000D02*
X5795000Y1565000D01*
X5795000Y1595000D02*
X5765000Y1565000D01*
X5765000Y1155000D02*
X5795000Y1125000D01*
X5795000Y1155000D02*
X5765000Y1125000D01*
X5765000Y275000D02*
X5795000Y245000D01*
X5795000Y275000D02*
X5765000Y245000D01*
X5805000Y1055000D02*
X5835000Y1025000D01*
X5835000Y1055000D02*
X5805000Y1025000D01*
X5925000Y8235000D02*
X5955000Y8205000D01*
X5955000Y8235000D02*
X5925000Y8205000D01*
X5925000Y3515000D02*
X5955000Y3485000D01*
X5955000Y3515000D02*
X5925000Y3485000D01*
X6105000Y5395000D02*
X6135000Y5365000D01*
X6135000Y5395000D02*
X6105000Y5365000D01*
X6125000Y3315000D02*
X6155000Y3285000D01*
X6155000Y3315000D02*
X6125000Y3285000D01*
X6145000Y4635000D02*
X6175000Y4605000D01*
X6175000Y4635000D02*
X6145000Y4605000D01*
X6185000Y8155000D02*
X6215000Y8125000D01*
X6215000Y8155000D02*
X6185000Y8125000D01*
X6205000Y9515000D02*
X6235000Y9485000D01*
X6235000Y9515000D02*
X6205000Y9485000D01*
X6205000Y9075000D02*
X6235000Y9045000D01*
X6235000Y9075000D02*
X6205000Y9045000D01*
X6205000Y8635000D02*
X6235000Y8605000D01*
X6235000Y8635000D02*
X6205000Y8605000D01*
X6205000Y7755000D02*
X6235000Y7725000D01*
X6235000Y7755000D02*
X6205000Y7725000D01*
X6205000Y7315000D02*
X6235000Y7285000D01*
X6235000Y7315000D02*
X6205000Y7285000D01*
X6205000Y6875000D02*
X6235000Y6845000D01*
X6235000Y6875000D02*
X6205000Y6845000D01*
X6205000Y2915000D02*
X6235000Y2885000D01*
X6235000Y2915000D02*
X6205000Y2885000D01*
X6205000Y2475000D02*
X6235000Y2445000D01*
X6235000Y2475000D02*
X6205000Y2445000D01*
X6205000Y2035000D02*
X6235000Y2005000D01*
X6235000Y2035000D02*
X6205000Y2005000D01*
X6205000Y1595000D02*
X6235000Y1565000D01*
X6235000Y1595000D02*
X6205000Y1565000D01*
X6205000Y275000D02*
X6235000Y245000D01*
X6235000Y275000D02*
X6205000Y245000D01*
X6365000Y4035000D02*
X6395000Y4005000D01*
X6395000Y4035000D02*
X6365000Y4005000D01*
X6645000Y9515000D02*
X6675000Y9485000D01*
X6675000Y9515000D02*
X6645000Y9485000D01*
X6645000Y9075000D02*
X6675000Y9045000D01*
X6675000Y9075000D02*
X6645000Y9045000D01*
X6645000Y8635000D02*
X6675000Y8605000D01*
X6675000Y8635000D02*
X6645000Y8605000D01*
X6645000Y7315000D02*
X6675000Y7285000D01*
X6675000Y7315000D02*
X6645000Y7285000D01*
X6645000Y6435000D02*
X6675000Y6405000D01*
X6675000Y6435000D02*
X6645000Y6405000D01*
X6645000Y5995000D02*
X6675000Y5965000D01*
X6675000Y5995000D02*
X6645000Y5965000D01*
X6645000Y5115000D02*
X6675000Y5085000D01*
X6675000Y5115000D02*
X6645000Y5085000D01*
X6645000Y4675000D02*
X6675000Y4645000D01*
X6675000Y4675000D02*
X6645000Y4645000D01*
X6645000Y4235000D02*
X6675000Y4205000D01*
X6675000Y4235000D02*
X6645000Y4205000D01*
X6645000Y3795000D02*
X6675000Y3765000D01*
X6675000Y3795000D02*
X6645000Y3765000D01*
X6645000Y2915000D02*
X6675000Y2885000D01*
X6675000Y2915000D02*
X6645000Y2885000D01*
X6645000Y2475000D02*
X6675000Y2445000D01*
X6675000Y2475000D02*
X6645000Y2445000D01*
X6645000Y2035000D02*
X6675000Y2005000D01*
X6675000Y2035000D02*
X6645000Y2005000D01*
X6645000Y1155000D02*
X6675000Y1125000D01*
X6675000Y1155000D02*
X6645000Y1125000D01*
X6645000Y275000D02*
X6675000Y245000D01*
X6675000Y275000D02*
X6645000Y245000D01*
X6805000Y7735000D02*
X6835000Y7705000D01*
X6835000Y7735000D02*
X6805000Y7705000D01*
X6985000Y1715000D02*
X7015000Y1685000D01*
X7015000Y1715000D02*
X6985000Y1685000D01*
X6985000Y515000D02*
X7015000Y485000D01*
X7015000Y515000D02*
X6985000Y485000D01*
X7025000Y5355000D02*
X7055000Y5325000D01*
X7055000Y5355000D02*
X7025000Y5325000D01*
X7025000Y4635000D02*
X7055000Y4605000D01*
X7055000Y4635000D02*
X7025000Y4605000D01*
X7085000Y9515000D02*
X7115000Y9485000D01*
X7115000Y9515000D02*
X7085000Y9485000D01*
X7085000Y9075000D02*
X7115000Y9045000D01*
X7115000Y9075000D02*
X7085000Y9045000D01*
X7085000Y8635000D02*
X7115000Y8605000D01*
X7115000Y8635000D02*
X7085000Y8605000D01*
X7085000Y7755000D02*
X7115000Y7725000D01*
X7115000Y7755000D02*
X7085000Y7725000D01*
X7085000Y6875000D02*
X7115000Y6845000D01*
X7115000Y6875000D02*
X7085000Y6845000D01*
X7085000Y6435000D02*
X7115000Y6405000D01*
X7115000Y6435000D02*
X7085000Y6405000D01*
X7085000Y5995000D02*
X7115000Y5965000D01*
X7115000Y5995000D02*
X7085000Y5965000D01*
X7085000Y2475000D02*
X7115000Y2445000D01*
X7115000Y2475000D02*
X7085000Y2445000D01*
X7085000Y2035000D02*
X7115000Y2005000D01*
X7115000Y2035000D02*
X7085000Y2005000D01*
X7085000Y1155000D02*
X7115000Y1125000D01*
X7115000Y1155000D02*
X7085000Y1125000D01*
X7085000Y715000D02*
X7115000Y685000D01*
X7115000Y715000D02*
X7085000Y685000D01*
X7345000Y7195000D02*
X7375000Y7165000D01*
X7375000Y7195000D02*
X7345000Y7165000D01*
X7345000Y2555000D02*
X7375000Y2525000D01*
X7375000Y2555000D02*
X7345000Y2525000D01*
X7365000Y6955000D02*
X7395000Y6925000D01*
X7395000Y6955000D02*
X7365000Y6925000D01*
X7525000Y9515000D02*
X7555000Y9485000D01*
X7555000Y9515000D02*
X7525000Y9485000D01*
X7525000Y9075000D02*
X7555000Y9045000D01*
X7555000Y9075000D02*
X7525000Y9045000D01*
X7525000Y8635000D02*
X7555000Y8605000D01*
X7555000Y8635000D02*
X7525000Y8605000D01*
X7525000Y8195000D02*
X7555000Y8165000D01*
X7555000Y8195000D02*
X7525000Y8165000D01*
X7525000Y6435000D02*
X7555000Y6405000D01*
X7555000Y6435000D02*
X7525000Y6405000D01*
X7525000Y2475000D02*
X7555000Y2445000D01*
X7555000Y2475000D02*
X7525000Y2445000D01*
X7525000Y2035000D02*
X7555000Y2005000D01*
X7555000Y2035000D02*
X7525000Y2005000D01*
X7525000Y1595000D02*
X7555000Y1565000D01*
X7555000Y1595000D02*
X7525000Y1565000D01*
X7525000Y275000D02*
X7555000Y245000D01*
X7555000Y275000D02*
X7525000Y245000D01*
X7545000Y6175000D02*
X7575000Y6145000D01*
X7575000Y6175000D02*
X7545000Y6145000D01*
X7545000Y2615000D02*
X7575000Y2585000D01*
X7575000Y2615000D02*
X7545000Y2585000D01*
X7585000Y1295000D02*
X7615000Y1265000D01*
X7615000Y1295000D02*
X7585000Y1265000D01*
X7665000Y3615000D02*
X7695000Y3585000D01*
X7695000Y3615000D02*
X7665000Y3585000D01*
X7705000Y1115000D02*
X7735000Y1085000D01*
X7735000Y1115000D02*
X7705000Y1085000D01*
X7745000Y755000D02*
X7775000Y725000D01*
X7775000Y755000D02*
X7745000Y725000D01*
X7785000Y7815000D02*
X7815000Y7785000D01*
X7815000Y7815000D02*
X7785000Y7785000D01*
X7785000Y3455000D02*
X7815000Y3425000D01*
X7815000Y3455000D02*
X7785000Y3425000D01*
X7785000Y2015000D02*
X7815000Y1985000D01*
X7815000Y2015000D02*
X7785000Y1985000D01*
X7905000Y6015000D02*
X7935000Y5985000D01*
X7935000Y6015000D02*
X7905000Y5985000D01*
X7945000Y2435000D02*
X7975000Y2405000D01*
X7975000Y2435000D02*
X7945000Y2405000D01*
X7965000Y9515000D02*
X7995000Y9485000D01*
X7995000Y9515000D02*
X7965000Y9485000D01*
X7965000Y9075000D02*
X7995000Y9045000D01*
X7995000Y9075000D02*
X7965000Y9045000D01*
X7965000Y8635000D02*
X7995000Y8605000D01*
X7995000Y8635000D02*
X7965000Y8605000D01*
X7965000Y8195000D02*
X7995000Y8165000D01*
X7995000Y8195000D02*
X7965000Y8165000D01*
X7965000Y6695000D02*
X7995000Y6665000D01*
X7995000Y6695000D02*
X7965000Y6665000D01*
X7965000Y5555000D02*
X7995000Y5525000D01*
X7995000Y5555000D02*
X7965000Y5525000D01*
X7965000Y5115000D02*
X7995000Y5085000D01*
X7995000Y5115000D02*
X7965000Y5085000D01*
X7965000Y4675000D02*
X7995000Y4645000D01*
X7995000Y4675000D02*
X7965000Y4645000D01*
X7965000Y4235000D02*
X7995000Y4205000D01*
X7995000Y4235000D02*
X7965000Y4205000D01*
X7965000Y3795000D02*
X7995000Y3765000D01*
X7995000Y3795000D02*
X7965000Y3765000D01*
X7965000Y1155000D02*
X7995000Y1125000D01*
X7995000Y1155000D02*
X7965000Y1125000D01*
X7965000Y275000D02*
X7995000Y245000D01*
X7995000Y275000D02*
X7965000Y245000D01*
X7985000Y7635000D02*
X8015000Y7605000D01*
X8015000Y7635000D02*
X7985000Y7605000D01*
X7985000Y7215000D02*
X8015000Y7185000D01*
X8015000Y7215000D02*
X7985000Y7185000D01*
X8065000Y3015000D02*
X8095000Y2985000D01*
X8095000Y3015000D02*
X8065000Y2985000D01*
X8085000Y6815000D02*
X8115000Y6785000D01*
X8115000Y6815000D02*
X8085000Y6785000D01*
X8345000Y1655000D02*
X8375000Y1625000D01*
X8375000Y1655000D02*
X8345000Y1625000D01*
X8385000Y1815000D02*
X8415000Y1785000D01*
X8415000Y1815000D02*
X8385000Y1785000D01*
X8405000Y9515000D02*
X8435000Y9485000D01*
X8435000Y9515000D02*
X8405000Y9485000D01*
X8405000Y9075000D02*
X8435000Y9045000D01*
X8435000Y9075000D02*
X8405000Y9045000D01*
X8405000Y8635000D02*
X8435000Y8605000D01*
X8435000Y8635000D02*
X8405000Y8605000D01*
X8405000Y8195000D02*
X8435000Y8165000D01*
X8435000Y8195000D02*
X8405000Y8165000D01*
X8405000Y7755000D02*
X8435000Y7725000D01*
X8435000Y7755000D02*
X8405000Y7725000D01*
X8405000Y7315000D02*
X8435000Y7285000D01*
X8435000Y7315000D02*
X8405000Y7285000D01*
X8405000Y5115000D02*
X8435000Y5085000D01*
X8435000Y5115000D02*
X8405000Y5085000D01*
X8405000Y4675000D02*
X8435000Y4645000D01*
X8435000Y4675000D02*
X8405000Y4645000D01*
X8405000Y4235000D02*
X8435000Y4205000D01*
X8435000Y4235000D02*
X8405000Y4205000D01*
X8405000Y3795000D02*
X8435000Y3765000D01*
X8435000Y3795000D02*
X8405000Y3765000D01*
X8405000Y3355000D02*
X8435000Y3325000D01*
X8435000Y3355000D02*
X8405000Y3325000D01*
X8405000Y2915000D02*
X8435000Y2885000D01*
X8435000Y2915000D02*
X8405000Y2885000D01*
X8405000Y2475000D02*
X8435000Y2445000D01*
X8435000Y2475000D02*
X8405000Y2445000D01*
X8405000Y2035000D02*
X8435000Y2005000D01*
X8435000Y2035000D02*
X8405000Y2005000D01*
X8405000Y715000D02*
X8435000Y685000D01*
X8435000Y715000D02*
X8405000Y685000D01*
X8405000Y275000D02*
X8435000Y245000D01*
X8435000Y275000D02*
X8405000Y245000D01*
X8585000Y1295000D02*
X8615000Y1265000D01*
X8615000Y1295000D02*
X8585000Y1265000D01*
X8785000Y315000D02*
X8815000Y285000D01*
X8815000Y315000D02*
X8785000Y285000D01*
X8845000Y9515000D02*
X8875000Y9485000D01*
X8875000Y9515000D02*
X8845000Y9485000D01*
X8845000Y9075000D02*
X8875000Y9045000D01*
X8875000Y9075000D02*
X8845000Y9045000D01*
X8845000Y7315000D02*
X8875000Y7285000D01*
X8875000Y7315000D02*
X8845000Y7285000D01*
X8845000Y6875000D02*
X8875000Y6845000D01*
X8875000Y6875000D02*
X8845000Y6845000D01*
X8845000Y6435000D02*
X8875000Y6405000D01*
X8875000Y6435000D02*
X8845000Y6405000D01*
X8845000Y4675000D02*
X8875000Y4645000D01*
X8875000Y4675000D02*
X8845000Y4645000D01*
X8845000Y4235000D02*
X8875000Y4205000D01*
X8875000Y4235000D02*
X8845000Y4205000D01*
X8845000Y3795000D02*
X8875000Y3765000D01*
X8875000Y3795000D02*
X8845000Y3765000D01*
X8845000Y1595000D02*
X8875000Y1565000D01*
X8875000Y1595000D02*
X8845000Y1565000D01*
X8845000Y715000D02*
X8875000Y685000D01*
X8875000Y715000D02*
X8845000Y685000D01*
X8885000Y8575000D02*
X8915000Y8545000D01*
X8915000Y8575000D02*
X8885000Y8545000D01*
X8885000Y7775000D02*
X8915000Y7745000D01*
X8915000Y7775000D02*
X8885000Y7745000D01*
X8885000Y5975000D02*
X8915000Y5945000D01*
X8915000Y5975000D02*
X8885000Y5945000D01*
X8885000Y5175000D02*
X8915000Y5145000D01*
X8915000Y5175000D02*
X8885000Y5145000D01*
X8885000Y3375000D02*
X8915000Y3345000D01*
X8915000Y3375000D02*
X8885000Y3345000D01*
X8885000Y2575000D02*
X8915000Y2545000D01*
X8915000Y2575000D02*
X8885000Y2545000D01*
X9285000Y9515000D02*
X9315000Y9485000D01*
X9315000Y9515000D02*
X9285000Y9485000D01*
X9285000Y9075000D02*
X9315000Y9045000D01*
X9315000Y9075000D02*
X9285000Y9045000D01*
X9285000Y8635000D02*
X9315000Y8605000D01*
X9315000Y8635000D02*
X9285000Y8605000D01*
X9285000Y7755000D02*
X9315000Y7725000D01*
X9315000Y7755000D02*
X9285000Y7725000D01*
X9285000Y7315000D02*
X9315000Y7285000D01*
X9315000Y7315000D02*
X9285000Y7285000D01*
X9285000Y6875000D02*
X9315000Y6845000D01*
X9315000Y6875000D02*
X9285000Y6845000D01*
X9285000Y6435000D02*
X9315000Y6405000D01*
X9315000Y6435000D02*
X9285000Y6405000D01*
X9285000Y5995000D02*
X9315000Y5965000D01*
X9315000Y5995000D02*
X9285000Y5965000D01*
X9285000Y5115000D02*
X9315000Y5085000D01*
X9315000Y5115000D02*
X9285000Y5085000D01*
X9285000Y4675000D02*
X9315000Y4645000D01*
X9315000Y4675000D02*
X9285000Y4645000D01*
X9285000Y4235000D02*
X9315000Y4205000D01*
X9315000Y4235000D02*
X9285000Y4205000D01*
X9285000Y3795000D02*
X9315000Y3765000D01*
X9315000Y3795000D02*
X9285000Y3765000D01*
X9285000Y3355000D02*
X9315000Y3325000D01*
X9315000Y3355000D02*
X9285000Y3325000D01*
X9285000Y2475000D02*
X9315000Y2445000D01*
X9315000Y2475000D02*
X9285000Y2445000D01*
X9285000Y2035000D02*
X9315000Y2005000D01*
X9315000Y2035000D02*
X9285000Y2005000D01*
X9285000Y1155000D02*
X9315000Y1125000D01*
X9315000Y1155000D02*
X9285000Y1125000D01*
X9285000Y715000D02*
X9315000Y685000D01*
X9315000Y715000D02*
X9285000Y685000D01*
X9285000Y275000D02*
X9315000Y245000D01*
X9315000Y275000D02*
X9285000Y245000D01*
X9385000Y1815000D02*
X9415000Y1785000D01*
X9415000Y1815000D02*
X9385000Y1785000D01*
X9685000Y8575000D02*
X9715000Y8545000D01*
X9715000Y8575000D02*
X9685000Y8545000D01*
X9685000Y7775000D02*
X9715000Y7745000D01*
X9715000Y7775000D02*
X9685000Y7745000D01*
X9685000Y5975000D02*
X9715000Y5945000D01*
X9715000Y5975000D02*
X9685000Y5945000D01*
X9685000Y5175000D02*
X9715000Y5145000D01*
X9715000Y5175000D02*
X9685000Y5145000D01*
X9685000Y3375000D02*
X9715000Y3345000D01*
X9715000Y3375000D02*
X9685000Y3345000D01*
X9685000Y2575000D02*
X9715000Y2545000D01*
X9715000Y2575000D02*
X9685000Y2545000D01*
X9725000Y9075000D02*
X9755000Y9045000D01*
X9755000Y9075000D02*
X9725000Y9045000D01*
X9725000Y8195000D02*
X9755000Y8165000D01*
X9755000Y8195000D02*
X9725000Y8165000D01*
X9725000Y7315000D02*
X9755000Y7285000D01*
X9755000Y7315000D02*
X9725000Y7285000D01*
X9725000Y6875000D02*
X9755000Y6845000D01*
X9755000Y6875000D02*
X9725000Y6845000D01*
X9725000Y6435000D02*
X9755000Y6405000D01*
X9755000Y6435000D02*
X9725000Y6405000D01*
X9725000Y5555000D02*
X9755000Y5525000D01*
X9755000Y5555000D02*
X9725000Y5525000D01*
X9725000Y4675000D02*
X9755000Y4645000D01*
X9755000Y4675000D02*
X9725000Y4645000D01*
X9725000Y4235000D02*
X9755000Y4205000D01*
X9755000Y4235000D02*
X9725000Y4205000D01*
X9725000Y3795000D02*
X9755000Y3765000D01*
X9755000Y3795000D02*
X9725000Y3765000D01*
X9725000Y2915000D02*
X9755000Y2885000D01*
X9755000Y2915000D02*
X9725000Y2885000D01*
X9725000Y2035000D02*
X9755000Y2005000D01*
X9755000Y2035000D02*
X9725000Y2005000D01*
X9725000Y1595000D02*
X9755000Y1565000D01*
X9755000Y1595000D02*
X9725000Y1565000D01*
X9725000Y1155000D02*
X9755000Y1125000D01*
X9755000Y1155000D02*
X9725000Y1125000D01*
X9725000Y715000D02*
X9755000Y685000D01*
X9755000Y715000D02*
X9725000Y685000D01*
X903000Y913000D02*
G75*
G02*
X843000Y913000I-30000J0D01*
G01*
X843000Y913000D02*
G75*
G02*
X903000Y913000I30000J0D01*
G01*
X843000Y968000D02*
X843000Y858000D01*
X903000Y858000D02*
G75*
G02*
X843000Y858000I-30000J0D01*
G01*
X903000Y858000D02*
X903000Y968000D01*
X903000Y968000D02*
G75*
G03*
X843000Y968000I-30000J0D01*
G01*
X903000Y495000D02*
G75*
G02*
X843000Y495000I-30000J0D01*
G01*
X843000Y495000D02*
G75*
G02*
X903000Y495000I30000J0D01*
G01*
X843000Y525000D02*
X843000Y465000D01*
X903000Y465000D02*
G75*
G02*
X843000Y465000I-30000J0D01*
G01*
X903000Y465000D02*
X903000Y525000D01*
X903000Y525000D02*
G75*
G03*
X843000Y525000I-30000J0D01*
G01*
X1767000Y913000D02*
G75*
G02*
X1707000Y913000I-30000J0D01*
G01*
X1707000Y913000D02*
G75*
G02*
X1767000Y913000I30000J0D01*
G01*
X1707000Y968000D02*
X1707000Y858000D01*
X1767000Y858000D02*
G75*
G02*
X1707000Y858000I-30000J0D01*
G01*
X1767000Y858000D02*
X1767000Y968000D01*
X1767000Y968000D02*
G75*
G03*
X1707000Y968000I-30000J0D01*
G01*
X1767000Y495000D02*
G75*
G02*
X1707000Y495000I-30000J0D01*
G01*
X1707000Y495000D02*
G75*
G02*
X1767000Y495000I30000J0D01*
G01*
X1707000Y525000D02*
X1707000Y465000D01*
X1767000Y465000D02*
G75*
G02*
X1707000Y465000I-30000J0D01*
G01*
X1767000Y465000D02*
X1767000Y525000D01*
X1767000Y525000D02*
G75*
G03*
X1707000Y525000I-30000J0D01*
G01*
X4800000Y950000D02*
X4800000Y850000D01*
X4750000Y900000D02*
X4850000Y900000D01*
X5054000Y950000D02*
X5054000Y850000D01*
X5004000Y900000D02*
X5104000Y900000D01*
X5562000Y950000D02*
X5562000Y850000D01*
X5512000Y900000D02*
X5612000Y900000D01*
X5816000Y950000D02*
X5816000Y850000D01*
X5766000Y900000D02*
X5866000Y900000D01*
X6070000Y950000D02*
X6070000Y850000D01*
X6020000Y900000D02*
X6120000Y900000D01*
D12*
X9345962Y7954038D02*
X9345962Y8045962D01*
X9254038Y8045962D01*
X9254038Y7954038D01*
X9345962Y7954038D01*
X9345962Y5354038D02*
X9345962Y5445962D01*
X9254038Y5445962D01*
X9254038Y5354038D01*
X9345962Y5354038D01*
X9345962Y2754038D02*
X9345962Y2845962D01*
X9254038Y2845962D01*
X9254038Y2754038D01*
X9345962Y2754038D01*
D13*
X8900000Y8330000D02*
X8970000Y8400000D01*
X8900000Y8470000D01*
X8830000Y8400000D01*
X8900000Y8330000D01*
X8900000Y7530000D02*
X8970000Y7600000D01*
X8900000Y7670000D01*
X8830000Y7600000D01*
X8900000Y7530000D01*
X8900000Y5730000D02*
X8970000Y5800000D01*
X8900000Y5870000D01*
X8830000Y5800000D01*
X8900000Y5730000D01*
X8900000Y4930000D02*
X8970000Y5000000D01*
X8900000Y5070000D01*
X8830000Y5000000D01*
X8900000Y4930000D01*
X8900000Y3130000D02*
X8970000Y3200000D01*
X8900000Y3270000D01*
X8830000Y3200000D01*
X8900000Y3130000D01*
X8900000Y2330000D02*
X8970000Y2400000D01*
X8900000Y2470000D01*
X8830000Y2400000D01*
X8900000Y2330000D01*
X9700000Y8330000D02*
X9770000Y8400000D01*
X9700000Y8470000D01*
X9630000Y8400000D01*
X9700000Y8330000D01*
X9700000Y7530000D02*
X9770000Y7600000D01*
X9700000Y7670000D01*
X9630000Y7600000D01*
X9700000Y7530000D01*
X9700000Y5730000D02*
X9770000Y5800000D01*
X9700000Y5870000D01*
X9630000Y5800000D01*
X9700000Y5730000D01*
X9700000Y4930000D02*
X9770000Y5000000D01*
X9700000Y5070000D01*
X9630000Y5000000D01*
X9700000Y4930000D01*
X9700000Y3130000D02*
X9770000Y3200000D01*
X9700000Y3270000D01*
X9630000Y3200000D01*
X9700000Y3130000D01*
X9700000Y2330000D02*
X9770000Y2400000D01*
X9700000Y2470000D01*
X9630000Y2400000D01*
X9700000Y2330000D01*
D11*
X255777Y-316484D02*
X255777Y-116484D01*
X255777Y-116484D02*
X303396Y-116484D01*
X303396Y-116484D02*
X331967Y-126008D01*
X331967Y-126008D02*
X351015Y-145055D01*
X351015Y-145055D02*
X360539Y-164103D01*
X360539Y-164103D02*
X370062Y-202198D01*
X370062Y-202198D02*
X370062Y-230769D01*
X370062Y-230769D02*
X360539Y-268865D01*
X360539Y-268865D02*
X351015Y-287912D01*
X351015Y-287912D02*
X331967Y-306960D01*
X331967Y-306960D02*
X303396Y-316484D01*
X303396Y-316484D02*
X255777Y-316484D01*
X455777Y-316484D02*
X455777Y-183150D01*
X455777Y-221246D02*
X465301Y-202198D01*
X465301Y-202198D02*
X474824Y-192674D01*
X474824Y-192674D02*
X493872Y-183150D01*
X493872Y-183150D02*
X512920Y-183150D01*
X579586Y-316484D02*
X579586Y-183150D01*
X579586Y-116484D02*
X570063Y-126008D01*
X570063Y-126008D02*
X579586Y-135531D01*
X579586Y-135531D02*
X589110Y-126008D01*
X589110Y-126008D02*
X579586Y-116484D01*
X579586Y-116484D02*
X579586Y-135531D01*
X703396Y-316484D02*
X684348Y-306960D01*
X684348Y-306960D02*
X674824Y-287912D01*
X674824Y-287912D02*
X674824Y-116484D01*
X808158Y-316484D02*
X789110Y-306960D01*
X789110Y-306960D02*
X779586Y-287912D01*
X779586Y-287912D02*
X779586Y-116484D01*
X1036729Y-316484D02*
X1036729Y-116484D01*
X1036729Y-116484D02*
X1103396Y-259341D01*
X1103396Y-259341D02*
X1170063Y-116484D01*
X1170063Y-116484D02*
X1170063Y-316484D01*
X1351015Y-316484D02*
X1351015Y-211722D01*
X1351015Y-211722D02*
X1341491Y-192674D01*
X1341491Y-192674D02*
X1322444Y-183150D01*
X1322444Y-183150D02*
X1284348Y-183150D01*
X1284348Y-183150D02*
X1265301Y-192674D01*
X1351015Y-306960D02*
X1331967Y-316484D01*
X1331967Y-316484D02*
X1284348Y-316484D01*
X1284348Y-316484D02*
X1265301Y-306960D01*
X1265301Y-306960D02*
X1255777Y-287912D01*
X1255777Y-287912D02*
X1255777Y-268865D01*
X1255777Y-268865D02*
X1265301Y-249817D01*
X1265301Y-249817D02*
X1284348Y-240293D01*
X1284348Y-240293D02*
X1331967Y-240293D01*
X1331967Y-240293D02*
X1351015Y-230769D01*
X1446253Y-183150D02*
X1446253Y-383150D01*
X1446253Y-192674D02*
X1465301Y-183150D01*
X1465301Y-183150D02*
X1503396Y-183150D01*
X1503396Y-183150D02*
X1522443Y-192674D01*
X1522443Y-192674D02*
X1531967Y-202198D01*
X1531967Y-202198D02*
X1541491Y-221246D01*
X1541491Y-221246D02*
X1541491Y-278389D01*
X1541491Y-278389D02*
X1531967Y-297436D01*
X1531967Y-297436D02*
X1522443Y-306960D01*
X1522443Y-306960D02*
X1503396Y-316484D01*
X1503396Y-316484D02*
X1465301Y-316484D01*
X1465301Y-316484D02*
X1446253Y-306960D01*
X1627205Y-297436D02*
X1636729Y-306960D01*
X1636729Y-306960D02*
X1627205Y-316484D01*
X1627205Y-316484D02*
X1617682Y-306960D01*
X1617682Y-306960D02*
X1627205Y-297436D01*
X1627205Y-297436D02*
X1627205Y-316484D01*
X1627205Y-192674D02*
X1636729Y-202198D01*
X1636729Y-202198D02*
X1627205Y-211722D01*
X1627205Y-211722D02*
X1617682Y-202198D01*
X1617682Y-202198D02*
X1627205Y-192674D01*
X1627205Y-192674D02*
X1627205Y-211722D01*
D10*
X-35000Y-630000D02*
X-5000Y-660000D01*
X-5000Y-630000D02*
X-35000Y-660000D01*
D11*
X293872Y-536484D02*
X312920Y-536484D01*
X312920Y-536484D02*
X331967Y-546008D01*
X331967Y-546008D02*
X341491Y-555531D01*
X341491Y-555531D02*
X351015Y-574579D01*
X351015Y-574579D02*
X360539Y-612674D01*
X360539Y-612674D02*
X360539Y-660293D01*
X360539Y-660293D02*
X351015Y-698389D01*
X351015Y-698389D02*
X341491Y-717436D01*
X341491Y-717436D02*
X331967Y-726960D01*
X331967Y-726960D02*
X312920Y-736484D01*
X312920Y-736484D02*
X293872Y-736484D01*
X293872Y-736484D02*
X274824Y-726960D01*
X274824Y-726960D02*
X265301Y-717436D01*
X265301Y-717436D02*
X255777Y-698389D01*
X255777Y-698389D02*
X246253Y-660293D01*
X246253Y-660293D02*
X246253Y-612674D01*
X246253Y-612674D02*
X255777Y-574579D01*
X255777Y-574579D02*
X265301Y-555531D01*
X265301Y-555531D02*
X274824Y-546008D01*
X274824Y-546008D02*
X293872Y-536484D01*
X446253Y-717436D02*
X455777Y-726960D01*
X455777Y-726960D02*
X446253Y-736484D01*
X446253Y-736484D02*
X436729Y-726960D01*
X436729Y-726960D02*
X446253Y-717436D01*
X446253Y-717436D02*
X446253Y-736484D01*
X522443Y-536484D02*
X646253Y-536484D01*
X646253Y-536484D02*
X579586Y-612674D01*
X579586Y-612674D02*
X608158Y-612674D01*
X608158Y-612674D02*
X627205Y-622198D01*
X627205Y-622198D02*
X636729Y-631722D01*
X636729Y-631722D02*
X646253Y-650770D01*
X646253Y-650770D02*
X646253Y-698389D01*
X646253Y-698389D02*
X636729Y-717436D01*
X636729Y-717436D02*
X627205Y-726960D01*
X627205Y-726960D02*
X608158Y-736484D01*
X608158Y-736484D02*
X551015Y-736484D01*
X551015Y-736484D02*
X531967Y-726960D01*
X531967Y-726960D02*
X522443Y-717436D01*
X770062Y-536484D02*
X789110Y-536484D01*
X789110Y-536484D02*
X808158Y-546008D01*
X808158Y-546008D02*
X817682Y-555531D01*
X817682Y-555531D02*
X827205Y-574579D01*
X827205Y-574579D02*
X836729Y-612674D01*
X836729Y-612674D02*
X836729Y-660293D01*
X836729Y-660293D02*
X827205Y-698389D01*
X827205Y-698389D02*
X817682Y-717436D01*
X817682Y-717436D02*
X808158Y-726960D01*
X808158Y-726960D02*
X789110Y-736484D01*
X789110Y-736484D02*
X770062Y-736484D01*
X770062Y-736484D02*
X751015Y-726960D01*
X751015Y-726960D02*
X741491Y-717436D01*
X741491Y-717436D02*
X731967Y-698389D01*
X731967Y-698389D02*
X722443Y-660293D01*
X722443Y-660293D02*
X722443Y-612674D01*
X722443Y-612674D02*
X731967Y-574579D01*
X731967Y-574579D02*
X741491Y-555531D01*
X741491Y-555531D02*
X751015Y-546008D01*
X751015Y-546008D02*
X770062Y-536484D01*
X960539Y-536484D02*
X979586Y-536484D01*
X979586Y-536484D02*
X998634Y-546008D01*
X998634Y-546008D02*
X1008158Y-555531D01*
X1008158Y-555531D02*
X1017682Y-574579D01*
X1017682Y-574579D02*
X1027205Y-612674D01*
X1027205Y-612674D02*
X1027205Y-660293D01*
X1027205Y-660293D02*
X1017682Y-698389D01*
X1017682Y-698389D02*
X1008158Y-717436D01*
X1008158Y-717436D02*
X998634Y-726960D01*
X998634Y-726960D02*
X979586Y-736484D01*
X979586Y-736484D02*
X960539Y-736484D01*
X960539Y-736484D02*
X941491Y-726960D01*
X941491Y-726960D02*
X931967Y-717436D01*
X931967Y-717436D02*
X922443Y-698389D01*
X922443Y-698389D02*
X912920Y-660293D01*
X912920Y-660293D02*
X912920Y-612674D01*
X912920Y-612674D02*
X922443Y-574579D01*
X922443Y-574579D02*
X931967Y-555531D01*
X931967Y-555531D02*
X941491Y-546008D01*
X941491Y-546008D02*
X960539Y-536484D01*
X1112920Y-736484D02*
X1112920Y-603150D01*
X1112920Y-622198D02*
X1122444Y-612674D01*
X1122444Y-612674D02*
X1141491Y-603150D01*
X1141491Y-603150D02*
X1170063Y-603150D01*
X1170063Y-603150D02*
X1189110Y-612674D01*
X1189110Y-612674D02*
X1198634Y-631722D01*
X1198634Y-631722D02*
X1198634Y-736484D01*
X1198634Y-631722D02*
X1208158Y-612674D01*
X1208158Y-612674D02*
X1227205Y-603150D01*
X1227205Y-603150D02*
X1255777Y-603150D01*
X1255777Y-603150D02*
X1274825Y-612674D01*
X1274825Y-612674D02*
X1284348Y-631722D01*
X1284348Y-631722D02*
X1284348Y-736484D01*
X1379586Y-736484D02*
X1379586Y-603150D01*
X1379586Y-622198D02*
X1389110Y-612674D01*
X1389110Y-612674D02*
X1408158Y-603150D01*
X1408158Y-603150D02*
X1436729Y-603150D01*
X1436729Y-603150D02*
X1455777Y-612674D01*
X1455777Y-612674D02*
X1465301Y-631722D01*
X1465301Y-631722D02*
X1465301Y-736484D01*
X1465301Y-631722D02*
X1474824Y-612674D01*
X1474824Y-612674D02*
X1493872Y-603150D01*
X1493872Y-603150D02*
X1522443Y-603150D01*
X1522443Y-603150D02*
X1541491Y-612674D01*
X1541491Y-612674D02*
X1551015Y-631722D01*
X1551015Y-631722D02*
X1551015Y-736484D01*
X1941491Y-526960D02*
X1770063Y-784103D01*
X2198634Y-536484D02*
X2217682Y-536484D01*
X2217682Y-536484D02*
X2236729Y-546008D01*
X2236729Y-546008D02*
X2246253Y-555531D01*
X2246253Y-555531D02*
X2255777Y-574579D01*
X2255777Y-574579D02*
X2265301Y-612674D01*
X2265301Y-612674D02*
X2265301Y-660293D01*
X2265301Y-660293D02*
X2255777Y-698389D01*
X2255777Y-698389D02*
X2246253Y-717436D01*
X2246253Y-717436D02*
X2236729Y-726960D01*
X2236729Y-726960D02*
X2217682Y-736484D01*
X2217682Y-736484D02*
X2198634Y-736484D01*
X2198634Y-736484D02*
X2179587Y-726960D01*
X2179587Y-726960D02*
X2170063Y-717436D01*
X2170063Y-717436D02*
X2160539Y-698389D01*
X2160539Y-698389D02*
X2151015Y-660293D01*
X2151015Y-660293D02*
X2151015Y-612674D01*
X2151015Y-612674D02*
X2160539Y-574579D01*
X2160539Y-574579D02*
X2170063Y-555531D01*
X2170063Y-555531D02*
X2179587Y-546008D01*
X2179587Y-546008D02*
X2198634Y-536484D01*
X2351015Y-717436D02*
X2360539Y-726960D01*
X2360539Y-726960D02*
X2351015Y-736484D01*
X2351015Y-736484D02*
X2341491Y-726960D01*
X2341491Y-726960D02*
X2351015Y-717436D01*
X2351015Y-717436D02*
X2351015Y-736484D01*
X2484348Y-536484D02*
X2503396Y-536484D01*
X2503396Y-536484D02*
X2522444Y-546008D01*
X2522444Y-546008D02*
X2531968Y-555531D01*
X2531968Y-555531D02*
X2541491Y-574579D01*
X2541491Y-574579D02*
X2551015Y-612674D01*
X2551015Y-612674D02*
X2551015Y-660293D01*
X2551015Y-660293D02*
X2541491Y-698389D01*
X2541491Y-698389D02*
X2531968Y-717436D01*
X2531968Y-717436D02*
X2522444Y-726960D01*
X2522444Y-726960D02*
X2503396Y-736484D01*
X2503396Y-736484D02*
X2484348Y-736484D01*
X2484348Y-736484D02*
X2465301Y-726960D01*
X2465301Y-726960D02*
X2455777Y-717436D01*
X2455777Y-717436D02*
X2446253Y-698389D01*
X2446253Y-698389D02*
X2436729Y-660293D01*
X2436729Y-660293D02*
X2436729Y-612674D01*
X2436729Y-612674D02*
X2446253Y-574579D01*
X2446253Y-574579D02*
X2455777Y-555531D01*
X2455777Y-555531D02*
X2465301Y-546008D01*
X2465301Y-546008D02*
X2484348Y-536484D01*
X2741491Y-736484D02*
X2627206Y-736484D01*
X2684348Y-736484D02*
X2684348Y-536484D01*
X2684348Y-536484D02*
X2665301Y-565055D01*
X2665301Y-565055D02*
X2646253Y-584103D01*
X2646253Y-584103D02*
X2627206Y-593627D01*
X2931967Y-736484D02*
X2817682Y-736484D01*
X2874825Y-736484D02*
X2874825Y-536484D01*
X2874825Y-536484D02*
X2855777Y-565055D01*
X2855777Y-565055D02*
X2836729Y-584103D01*
X2836729Y-584103D02*
X2817682Y-593627D01*
X3046253Y-622198D02*
X3027206Y-612674D01*
X3027206Y-612674D02*
X3017682Y-603150D01*
X3017682Y-603150D02*
X3008158Y-584103D01*
X3008158Y-584103D02*
X3008158Y-574579D01*
X3008158Y-574579D02*
X3017682Y-555531D01*
X3017682Y-555531D02*
X3027206Y-546008D01*
X3027206Y-546008D02*
X3046253Y-536484D01*
X3046253Y-536484D02*
X3084348Y-536484D01*
X3084348Y-536484D02*
X3103396Y-546008D01*
X3103396Y-546008D02*
X3112920Y-555531D01*
X3112920Y-555531D02*
X3122444Y-574579D01*
X3122444Y-574579D02*
X3122444Y-584103D01*
X3122444Y-584103D02*
X3112920Y-603150D01*
X3112920Y-603150D02*
X3103396Y-612674D01*
X3103396Y-612674D02*
X3084348Y-622198D01*
X3084348Y-622198D02*
X3046253Y-622198D01*
X3046253Y-622198D02*
X3027206Y-631722D01*
X3027206Y-631722D02*
X3017682Y-641246D01*
X3017682Y-641246D02*
X3008158Y-660293D01*
X3008158Y-660293D02*
X3008158Y-698389D01*
X3008158Y-698389D02*
X3017682Y-717436D01*
X3017682Y-717436D02*
X3027206Y-726960D01*
X3027206Y-726960D02*
X3046253Y-736484D01*
X3046253Y-736484D02*
X3084348Y-736484D01*
X3084348Y-736484D02*
X3103396Y-726960D01*
X3103396Y-726960D02*
X3112920Y-717436D01*
X3112920Y-717436D02*
X3122444Y-698389D01*
X3122444Y-698389D02*
X3122444Y-660293D01*
X3122444Y-660293D02*
X3112920Y-641246D01*
X3112920Y-641246D02*
X3103396Y-631722D01*
X3103396Y-631722D02*
X3084348Y-622198D01*
X3198634Y-536484D02*
X3198634Y-574579D01*
X3274825Y-536484D02*
X3274825Y-574579D01*
X3570063Y-812674D02*
X3560539Y-803150D01*
X3560539Y-803150D02*
X3541491Y-774579D01*
X3541491Y-774579D02*
X3531968Y-755531D01*
X3531968Y-755531D02*
X3522444Y-726960D01*
X3522444Y-726960D02*
X3512920Y-679341D01*
X3512920Y-679341D02*
X3512920Y-641246D01*
X3512920Y-641246D02*
X3522444Y-593627D01*
X3522444Y-593627D02*
X3531968Y-565055D01*
X3531968Y-565055D02*
X3541491Y-546008D01*
X3541491Y-546008D02*
X3560539Y-517436D01*
X3560539Y-517436D02*
X3570063Y-507912D01*
X3731968Y-603150D02*
X3731968Y-736484D01*
X3684348Y-526960D02*
X3636729Y-669817D01*
X3636729Y-669817D02*
X3760539Y-669817D01*
X3941491Y-736484D02*
X3827206Y-736484D01*
X3884348Y-736484D02*
X3884348Y-536484D01*
X3884348Y-536484D02*
X3865301Y-565055D01*
X3865301Y-565055D02*
X3846253Y-584103D01*
X3846253Y-584103D02*
X3827206Y-593627D01*
X4017682Y-555531D02*
X4027206Y-546008D01*
X4027206Y-546008D02*
X4046253Y-536484D01*
X4046253Y-536484D02*
X4093872Y-536484D01*
X4093872Y-536484D02*
X4112920Y-546008D01*
X4112920Y-546008D02*
X4122444Y-555531D01*
X4122444Y-555531D02*
X4131968Y-574579D01*
X4131968Y-574579D02*
X4131968Y-593627D01*
X4131968Y-593627D02*
X4122444Y-622198D01*
X4122444Y-622198D02*
X4008158Y-736484D01*
X4008158Y-736484D02*
X4131968Y-736484D01*
X4370063Y-736484D02*
X4370063Y-536484D01*
X4455777Y-736484D02*
X4455777Y-631722D01*
X4455777Y-631722D02*
X4446253Y-612674D01*
X4446253Y-612674D02*
X4427206Y-603150D01*
X4427206Y-603150D02*
X4398634Y-603150D01*
X4398634Y-603150D02*
X4379587Y-612674D01*
X4379587Y-612674D02*
X4370063Y-622198D01*
X4579587Y-736484D02*
X4560539Y-726960D01*
X4560539Y-726960D02*
X4551015Y-717436D01*
X4551015Y-717436D02*
X4541492Y-698389D01*
X4541492Y-698389D02*
X4541492Y-641246D01*
X4541492Y-641246D02*
X4551015Y-622198D01*
X4551015Y-622198D02*
X4560539Y-612674D01*
X4560539Y-612674D02*
X4579587Y-603150D01*
X4579587Y-603150D02*
X4608158Y-603150D01*
X4608158Y-603150D02*
X4627206Y-612674D01*
X4627206Y-612674D02*
X4636730Y-622198D01*
X4636730Y-622198D02*
X4646253Y-641246D01*
X4646253Y-641246D02*
X4646253Y-698389D01*
X4646253Y-698389D02*
X4636730Y-717436D01*
X4636730Y-717436D02*
X4627206Y-726960D01*
X4627206Y-726960D02*
X4608158Y-736484D01*
X4608158Y-736484D02*
X4579587Y-736484D01*
X4760539Y-736484D02*
X4741492Y-726960D01*
X4741492Y-726960D02*
X4731968Y-707912D01*
X4731968Y-707912D02*
X4731968Y-536484D01*
X4912920Y-726960D02*
X4893873Y-736484D01*
X4893873Y-736484D02*
X4855777Y-736484D01*
X4855777Y-736484D02*
X4836730Y-726960D01*
X4836730Y-726960D02*
X4827206Y-707912D01*
X4827206Y-707912D02*
X4827206Y-631722D01*
X4827206Y-631722D02*
X4836730Y-612674D01*
X4836730Y-612674D02*
X4855777Y-603150D01*
X4855777Y-603150D02*
X4893873Y-603150D01*
X4893873Y-603150D02*
X4912920Y-612674D01*
X4912920Y-612674D02*
X4922444Y-631722D01*
X4922444Y-631722D02*
X4922444Y-650770D01*
X4922444Y-650770D02*
X4827206Y-669817D01*
X4998634Y-726960D02*
X5017682Y-736484D01*
X5017682Y-736484D02*
X5055777Y-736484D01*
X5055777Y-736484D02*
X5074825Y-726960D01*
X5074825Y-726960D02*
X5084349Y-707912D01*
X5084349Y-707912D02*
X5084349Y-698389D01*
X5084349Y-698389D02*
X5074825Y-679341D01*
X5074825Y-679341D02*
X5055777Y-669817D01*
X5055777Y-669817D02*
X5027206Y-669817D01*
X5027206Y-669817D02*
X5008158Y-660293D01*
X5008158Y-660293D02*
X4998634Y-641246D01*
X4998634Y-641246D02*
X4998634Y-631722D01*
X4998634Y-631722D02*
X5008158Y-612674D01*
X5008158Y-612674D02*
X5027206Y-603150D01*
X5027206Y-603150D02*
X5055777Y-603150D01*
X5055777Y-603150D02*
X5074825Y-612674D01*
X5151015Y-812674D02*
X5160539Y-803150D01*
X5160539Y-803150D02*
X5179587Y-774579D01*
X5179587Y-774579D02*
X5189111Y-755531D01*
X5189111Y-755531D02*
X5198634Y-726960D01*
X5198634Y-726960D02*
X5208158Y-679341D01*
X5208158Y-679341D02*
X5208158Y-641246D01*
X5208158Y-641246D02*
X5198634Y-593627D01*
X5198634Y-593627D02*
X5189111Y-565055D01*
X5189111Y-565055D02*
X5179587Y-546008D01*
X5179587Y-546008D02*
X5160539Y-517436D01*
X5160539Y-517436D02*
X5151015Y-507912D01*
D10*
X-5000Y-909000D02*
G75*
G02*
X-65000Y-909000I-30000J0D01*
G01*
X-65000Y-909000D02*
G75*
G02*
X-5000Y-909000I30000J0D01*
G01*
D11*
X293872Y-800484D02*
X312920Y-800484D01*
X312920Y-800484D02*
X331967Y-810008D01*
X331967Y-810008D02*
X341491Y-819531D01*
X341491Y-819531D02*
X351015Y-838579D01*
X351015Y-838579D02*
X360539Y-876674D01*
X360539Y-876674D02*
X360539Y-924293D01*
X360539Y-924293D02*
X351015Y-962388D01*
X351015Y-962388D02*
X341491Y-981436D01*
X341491Y-981436D02*
X331967Y-990960D01*
X331967Y-990960D02*
X312920Y-1000484D01*
X312920Y-1000484D02*
X293872Y-1000484D01*
X293872Y-1000484D02*
X274824Y-990960D01*
X274824Y-990960D02*
X265301Y-981436D01*
X265301Y-981436D02*
X255777Y-962388D01*
X255777Y-962388D02*
X246253Y-924293D01*
X246253Y-924293D02*
X246253Y-876674D01*
X246253Y-876674D02*
X255777Y-838579D01*
X255777Y-838579D02*
X265301Y-819531D01*
X265301Y-819531D02*
X274824Y-810008D01*
X274824Y-810008D02*
X293872Y-800484D01*
X446253Y-981436D02*
X455777Y-990960D01*
X455777Y-990960D02*
X446253Y-1000484D01*
X446253Y-1000484D02*
X436729Y-990960D01*
X436729Y-990960D02*
X446253Y-981436D01*
X446253Y-981436D02*
X446253Y-1000484D01*
X627205Y-800484D02*
X589110Y-800484D01*
X589110Y-800484D02*
X570063Y-810008D01*
X570063Y-810008D02*
X560539Y-819531D01*
X560539Y-819531D02*
X541491Y-848103D01*
X541491Y-848103D02*
X531967Y-886198D01*
X531967Y-886198D02*
X531967Y-962388D01*
X531967Y-962388D02*
X541491Y-981436D01*
X541491Y-981436D02*
X551015Y-990960D01*
X551015Y-990960D02*
X570063Y-1000484D01*
X570063Y-1000484D02*
X608158Y-1000484D01*
X608158Y-1000484D02*
X627205Y-990960D01*
X627205Y-990960D02*
X636729Y-981436D01*
X636729Y-981436D02*
X646253Y-962388D01*
X646253Y-962388D02*
X646253Y-914769D01*
X646253Y-914769D02*
X636729Y-895722D01*
X636729Y-895722D02*
X627205Y-886198D01*
X627205Y-886198D02*
X608158Y-876674D01*
X608158Y-876674D02*
X570063Y-876674D01*
X570063Y-876674D02*
X551015Y-886198D01*
X551015Y-886198D02*
X541491Y-895722D01*
X541491Y-895722D02*
X531967Y-914769D01*
X770062Y-800484D02*
X789110Y-800484D01*
X789110Y-800484D02*
X808158Y-810008D01*
X808158Y-810008D02*
X817682Y-819531D01*
X817682Y-819531D02*
X827205Y-838579D01*
X827205Y-838579D02*
X836729Y-876674D01*
X836729Y-876674D02*
X836729Y-924293D01*
X836729Y-924293D02*
X827205Y-962388D01*
X827205Y-962388D02*
X817682Y-981436D01*
X817682Y-981436D02*
X808158Y-990960D01*
X808158Y-990960D02*
X789110Y-1000484D01*
X789110Y-1000484D02*
X770062Y-1000484D01*
X770062Y-1000484D02*
X751015Y-990960D01*
X751015Y-990960D02*
X741491Y-981436D01*
X741491Y-981436D02*
X731967Y-962388D01*
X731967Y-962388D02*
X722443Y-924293D01*
X722443Y-924293D02*
X722443Y-876674D01*
X722443Y-876674D02*
X731967Y-838579D01*
X731967Y-838579D02*
X741491Y-819531D01*
X741491Y-819531D02*
X751015Y-810008D01*
X751015Y-810008D02*
X770062Y-800484D01*
X960539Y-800484D02*
X979586Y-800484D01*
X979586Y-800484D02*
X998634Y-810008D01*
X998634Y-810008D02*
X1008158Y-819531D01*
X1008158Y-819531D02*
X1017682Y-838579D01*
X1017682Y-838579D02*
X1027205Y-876674D01*
X1027205Y-876674D02*
X1027205Y-924293D01*
X1027205Y-924293D02*
X1017682Y-962388D01*
X1017682Y-962388D02*
X1008158Y-981436D01*
X1008158Y-981436D02*
X998634Y-990960D01*
X998634Y-990960D02*
X979586Y-1000484D01*
X979586Y-1000484D02*
X960539Y-1000484D01*
X960539Y-1000484D02*
X941491Y-990960D01*
X941491Y-990960D02*
X931967Y-981436D01*
X931967Y-981436D02*
X922443Y-962388D01*
X922443Y-962388D02*
X912920Y-924293D01*
X912920Y-924293D02*
X912920Y-876674D01*
X912920Y-876674D02*
X922443Y-838579D01*
X922443Y-838579D02*
X931967Y-819531D01*
X931967Y-819531D02*
X941491Y-810008D01*
X941491Y-810008D02*
X960539Y-800484D01*
X1112920Y-1000484D02*
X1112920Y-867150D01*
X1112920Y-886198D02*
X1122444Y-876674D01*
X1122444Y-876674D02*
X1141491Y-867150D01*
X1141491Y-867150D02*
X1170063Y-867150D01*
X1170063Y-867150D02*
X1189110Y-876674D01*
X1189110Y-876674D02*
X1198634Y-895722D01*
X1198634Y-895722D02*
X1198634Y-1000484D01*
X1198634Y-895722D02*
X1208158Y-876674D01*
X1208158Y-876674D02*
X1227205Y-867150D01*
X1227205Y-867150D02*
X1255777Y-867150D01*
X1255777Y-867150D02*
X1274825Y-876674D01*
X1274825Y-876674D02*
X1284348Y-895722D01*
X1284348Y-895722D02*
X1284348Y-1000484D01*
X1379586Y-1000484D02*
X1379586Y-867150D01*
X1379586Y-886198D02*
X1389110Y-876674D01*
X1389110Y-876674D02*
X1408158Y-867150D01*
X1408158Y-867150D02*
X1436729Y-867150D01*
X1436729Y-867150D02*
X1455777Y-876674D01*
X1455777Y-876674D02*
X1465301Y-895722D01*
X1465301Y-895722D02*
X1465301Y-1000484D01*
X1465301Y-895722D02*
X1474824Y-876674D01*
X1474824Y-876674D02*
X1493872Y-867150D01*
X1493872Y-867150D02*
X1522443Y-867150D01*
X1522443Y-867150D02*
X1541491Y-876674D01*
X1541491Y-876674D02*
X1551015Y-895722D01*
X1551015Y-895722D02*
X1551015Y-1000484D01*
X1941491Y-790960D02*
X1770063Y-1048103D01*
X2198634Y-800484D02*
X2217682Y-800484D01*
X2217682Y-800484D02*
X2236729Y-810008D01*
X2236729Y-810008D02*
X2246253Y-819531D01*
X2246253Y-819531D02*
X2255777Y-838579D01*
X2255777Y-838579D02*
X2265301Y-876674D01*
X2265301Y-876674D02*
X2265301Y-924293D01*
X2265301Y-924293D02*
X2255777Y-962388D01*
X2255777Y-962388D02*
X2246253Y-981436D01*
X2246253Y-981436D02*
X2236729Y-990960D01*
X2236729Y-990960D02*
X2217682Y-1000484D01*
X2217682Y-1000484D02*
X2198634Y-1000484D01*
X2198634Y-1000484D02*
X2179587Y-990960D01*
X2179587Y-990960D02*
X2170063Y-981436D01*
X2170063Y-981436D02*
X2160539Y-962388D01*
X2160539Y-962388D02*
X2151015Y-924293D01*
X2151015Y-924293D02*
X2151015Y-876674D01*
X2151015Y-876674D02*
X2160539Y-838579D01*
X2160539Y-838579D02*
X2170063Y-819531D01*
X2170063Y-819531D02*
X2179587Y-810008D01*
X2179587Y-810008D02*
X2198634Y-800484D01*
X2351015Y-981436D02*
X2360539Y-990960D01*
X2360539Y-990960D02*
X2351015Y-1000484D01*
X2351015Y-1000484D02*
X2341491Y-990960D01*
X2341491Y-990960D02*
X2351015Y-981436D01*
X2351015Y-981436D02*
X2351015Y-1000484D01*
X2484348Y-800484D02*
X2503396Y-800484D01*
X2503396Y-800484D02*
X2522444Y-810008D01*
X2522444Y-810008D02*
X2531968Y-819531D01*
X2531968Y-819531D02*
X2541491Y-838579D01*
X2541491Y-838579D02*
X2551015Y-876674D01*
X2551015Y-876674D02*
X2551015Y-924293D01*
X2551015Y-924293D02*
X2541491Y-962388D01*
X2541491Y-962388D02*
X2531968Y-981436D01*
X2531968Y-981436D02*
X2522444Y-990960D01*
X2522444Y-990960D02*
X2503396Y-1000484D01*
X2503396Y-1000484D02*
X2484348Y-1000484D01*
X2484348Y-1000484D02*
X2465301Y-990960D01*
X2465301Y-990960D02*
X2455777Y-981436D01*
X2455777Y-981436D02*
X2446253Y-962388D01*
X2446253Y-962388D02*
X2436729Y-924293D01*
X2436729Y-924293D02*
X2436729Y-876674D01*
X2436729Y-876674D02*
X2446253Y-838579D01*
X2446253Y-838579D02*
X2455777Y-819531D01*
X2455777Y-819531D02*
X2465301Y-810008D01*
X2465301Y-810008D02*
X2484348Y-800484D01*
X2627206Y-819531D02*
X2636729Y-810008D01*
X2636729Y-810008D02*
X2655777Y-800484D01*
X2655777Y-800484D02*
X2703396Y-800484D01*
X2703396Y-800484D02*
X2722444Y-810008D01*
X2722444Y-810008D02*
X2731968Y-819531D01*
X2731968Y-819531D02*
X2741491Y-838579D01*
X2741491Y-838579D02*
X2741491Y-857627D01*
X2741491Y-857627D02*
X2731968Y-886198D01*
X2731968Y-886198D02*
X2617682Y-1000484D01*
X2617682Y-1000484D02*
X2741491Y-1000484D01*
X2808158Y-800484D02*
X2931967Y-800484D01*
X2931967Y-800484D02*
X2865301Y-876674D01*
X2865301Y-876674D02*
X2893872Y-876674D01*
X2893872Y-876674D02*
X2912920Y-886198D01*
X2912920Y-886198D02*
X2922444Y-895722D01*
X2922444Y-895722D02*
X2931967Y-914769D01*
X2931967Y-914769D02*
X2931967Y-962388D01*
X2931967Y-962388D02*
X2922444Y-981436D01*
X2922444Y-981436D02*
X2912920Y-990960D01*
X2912920Y-990960D02*
X2893872Y-1000484D01*
X2893872Y-1000484D02*
X2836729Y-1000484D01*
X2836729Y-1000484D02*
X2817682Y-990960D01*
X2817682Y-990960D02*
X2808158Y-981436D01*
X3103396Y-800484D02*
X3065301Y-800484D01*
X3065301Y-800484D02*
X3046253Y-810008D01*
X3046253Y-810008D02*
X3036729Y-819531D01*
X3036729Y-819531D02*
X3017682Y-848103D01*
X3017682Y-848103D02*
X3008158Y-886198D01*
X3008158Y-886198D02*
X3008158Y-962388D01*
X3008158Y-962388D02*
X3017682Y-981436D01*
X3017682Y-981436D02*
X3027206Y-990960D01*
X3027206Y-990960D02*
X3046253Y-1000484D01*
X3046253Y-1000484D02*
X3084348Y-1000484D01*
X3084348Y-1000484D02*
X3103396Y-990960D01*
X3103396Y-990960D02*
X3112920Y-981436D01*
X3112920Y-981436D02*
X3122444Y-962388D01*
X3122444Y-962388D02*
X3122444Y-914769D01*
X3122444Y-914769D02*
X3112920Y-895722D01*
X3112920Y-895722D02*
X3103396Y-886198D01*
X3103396Y-886198D02*
X3084348Y-876674D01*
X3084348Y-876674D02*
X3046253Y-876674D01*
X3046253Y-876674D02*
X3027206Y-886198D01*
X3027206Y-886198D02*
X3017682Y-895722D01*
X3017682Y-895722D02*
X3008158Y-914769D01*
X3198634Y-800484D02*
X3198634Y-838579D01*
X3274825Y-800484D02*
X3274825Y-838579D01*
X3570063Y-1076674D02*
X3560539Y-1067150D01*
X3560539Y-1067150D02*
X3541491Y-1038579D01*
X3541491Y-1038579D02*
X3531968Y-1019531D01*
X3531968Y-1019531D02*
X3522444Y-990960D01*
X3522444Y-990960D02*
X3512920Y-943341D01*
X3512920Y-943341D02*
X3512920Y-905246D01*
X3512920Y-905246D02*
X3522444Y-857627D01*
X3522444Y-857627D02*
X3531968Y-829055D01*
X3531968Y-829055D02*
X3541491Y-810008D01*
X3541491Y-810008D02*
X3560539Y-781436D01*
X3560539Y-781436D02*
X3570063Y-771912D01*
X3684348Y-800484D02*
X3703396Y-800484D01*
X3703396Y-800484D02*
X3722444Y-810008D01*
X3722444Y-810008D02*
X3731968Y-819531D01*
X3731968Y-819531D02*
X3741491Y-838579D01*
X3741491Y-838579D02*
X3751015Y-876674D01*
X3751015Y-876674D02*
X3751015Y-924293D01*
X3751015Y-924293D02*
X3741491Y-962388D01*
X3741491Y-962388D02*
X3731968Y-981436D01*
X3731968Y-981436D02*
X3722444Y-990960D01*
X3722444Y-990960D02*
X3703396Y-1000484D01*
X3703396Y-1000484D02*
X3684348Y-1000484D01*
X3684348Y-1000484D02*
X3665301Y-990960D01*
X3665301Y-990960D02*
X3655777Y-981436D01*
X3655777Y-981436D02*
X3646253Y-962388D01*
X3646253Y-962388D02*
X3636729Y-924293D01*
X3636729Y-924293D02*
X3636729Y-876674D01*
X3636729Y-876674D02*
X3646253Y-838579D01*
X3646253Y-838579D02*
X3655777Y-819531D01*
X3655777Y-819531D02*
X3665301Y-810008D01*
X3665301Y-810008D02*
X3684348Y-800484D01*
X3989110Y-1000484D02*
X3989110Y-800484D01*
X4074825Y-1000484D02*
X4074825Y-895722D01*
X4074825Y-895722D02*
X4065301Y-876674D01*
X4065301Y-876674D02*
X4046253Y-867150D01*
X4046253Y-867150D02*
X4017682Y-867150D01*
X4017682Y-867150D02*
X3998634Y-876674D01*
X3998634Y-876674D02*
X3989110Y-886198D01*
X4198634Y-1000484D02*
X4179587Y-990960D01*
X4179587Y-990960D02*
X4170063Y-981436D01*
X4170063Y-981436D02*
X4160539Y-962388D01*
X4160539Y-962388D02*
X4160539Y-905246D01*
X4160539Y-905246D02*
X4170063Y-886198D01*
X4170063Y-886198D02*
X4179587Y-876674D01*
X4179587Y-876674D02*
X4198634Y-867150D01*
X4198634Y-867150D02*
X4227206Y-867150D01*
X4227206Y-867150D02*
X4246253Y-876674D01*
X4246253Y-876674D02*
X4255777Y-886198D01*
X4255777Y-886198D02*
X4265301Y-905246D01*
X4265301Y-905246D02*
X4265301Y-962388D01*
X4265301Y-962388D02*
X4255777Y-981436D01*
X4255777Y-981436D02*
X4246253Y-990960D01*
X4246253Y-990960D02*
X4227206Y-1000484D01*
X4227206Y-1000484D02*
X4198634Y-1000484D01*
X4379587Y-1000484D02*
X4360539Y-990960D01*
X4360539Y-990960D02*
X4351015Y-971912D01*
X4351015Y-971912D02*
X4351015Y-800484D01*
X4531968Y-990960D02*
X4512920Y-1000484D01*
X4512920Y-1000484D02*
X4474825Y-1000484D01*
X4474825Y-1000484D02*
X4455777Y-990960D01*
X4455777Y-990960D02*
X4446253Y-971912D01*
X4446253Y-971912D02*
X4446253Y-895722D01*
X4446253Y-895722D02*
X4455777Y-876674D01*
X4455777Y-876674D02*
X4474825Y-867150D01*
X4474825Y-867150D02*
X4512920Y-867150D01*
X4512920Y-867150D02*
X4531968Y-876674D01*
X4531968Y-876674D02*
X4541492Y-895722D01*
X4541492Y-895722D02*
X4541492Y-914769D01*
X4541492Y-914769D02*
X4446253Y-933817D01*
X4617682Y-990960D02*
X4636730Y-1000484D01*
X4636730Y-1000484D02*
X4674825Y-1000484D01*
X4674825Y-1000484D02*
X4693873Y-990960D01*
X4693873Y-990960D02*
X4703396Y-971912D01*
X4703396Y-971912D02*
X4703396Y-962388D01*
X4703396Y-962388D02*
X4693873Y-943341D01*
X4693873Y-943341D02*
X4674825Y-933817D01*
X4674825Y-933817D02*
X4646253Y-933817D01*
X4646253Y-933817D02*
X4627206Y-924293D01*
X4627206Y-924293D02*
X4617682Y-905246D01*
X4617682Y-905246D02*
X4617682Y-895722D01*
X4617682Y-895722D02*
X4627206Y-876674D01*
X4627206Y-876674D02*
X4646253Y-867150D01*
X4646253Y-867150D02*
X4674825Y-867150D01*
X4674825Y-867150D02*
X4693873Y-876674D01*
X4941492Y-924293D02*
X5093873Y-924293D01*
X5017682Y-1000484D02*
X5017682Y-848103D01*
X5427206Y-867150D02*
X5427206Y-1000484D01*
X5379587Y-790960D02*
X5331968Y-933817D01*
X5331968Y-933817D02*
X5455777Y-933817D01*
X5674825Y-990960D02*
X5693873Y-1000484D01*
X5693873Y-1000484D02*
X5731968Y-1000484D01*
X5731968Y-1000484D02*
X5751015Y-990960D01*
X5751015Y-990960D02*
X5760539Y-971912D01*
X5760539Y-971912D02*
X5760539Y-962388D01*
X5760539Y-962388D02*
X5751015Y-943341D01*
X5751015Y-943341D02*
X5731968Y-933817D01*
X5731968Y-933817D02*
X5703396Y-933817D01*
X5703396Y-933817D02*
X5684349Y-924293D01*
X5684349Y-924293D02*
X5674825Y-905246D01*
X5674825Y-905246D02*
X5674825Y-895722D01*
X5674825Y-895722D02*
X5684349Y-876674D01*
X5684349Y-876674D02*
X5703396Y-867150D01*
X5703396Y-867150D02*
X5731968Y-867150D01*
X5731968Y-867150D02*
X5751015Y-876674D01*
X5874825Y-1000484D02*
X5855777Y-990960D01*
X5855777Y-990960D02*
X5846254Y-971912D01*
X5846254Y-971912D02*
X5846254Y-800484D01*
X5979587Y-1000484D02*
X5960539Y-990960D01*
X5960539Y-990960D02*
X5951015Y-981436D01*
X5951015Y-981436D02*
X5941492Y-962388D01*
X5941492Y-962388D02*
X5941492Y-905246D01*
X5941492Y-905246D02*
X5951015Y-886198D01*
X5951015Y-886198D02*
X5960539Y-876674D01*
X5960539Y-876674D02*
X5979587Y-867150D01*
X5979587Y-867150D02*
X6008158Y-867150D01*
X6008158Y-867150D02*
X6027206Y-876674D01*
X6027206Y-876674D02*
X6036730Y-886198D01*
X6036730Y-886198D02*
X6046254Y-905246D01*
X6046254Y-905246D02*
X6046254Y-962388D01*
X6046254Y-962388D02*
X6036730Y-981436D01*
X6036730Y-981436D02*
X6027206Y-990960D01*
X6027206Y-990960D02*
X6008158Y-1000484D01*
X6008158Y-1000484D02*
X5979587Y-1000484D01*
X6103396Y-867150D02*
X6179587Y-867150D01*
X6131968Y-800484D02*
X6131968Y-971912D01*
X6131968Y-971912D02*
X6141492Y-990960D01*
X6141492Y-990960D02*
X6160539Y-1000484D01*
X6160539Y-1000484D02*
X6179587Y-1000484D01*
X6236730Y-990960D02*
X6255777Y-1000484D01*
X6255777Y-1000484D02*
X6293873Y-1000484D01*
X6293873Y-1000484D02*
X6312920Y-990960D01*
X6312920Y-990960D02*
X6322444Y-971912D01*
X6322444Y-971912D02*
X6322444Y-962388D01*
X6322444Y-962388D02*
X6312920Y-943341D01*
X6312920Y-943341D02*
X6293873Y-933817D01*
X6293873Y-933817D02*
X6265301Y-933817D01*
X6265301Y-933817D02*
X6246254Y-924293D01*
X6246254Y-924293D02*
X6236730Y-905246D01*
X6236730Y-905246D02*
X6236730Y-895722D01*
X6236730Y-895722D02*
X6246254Y-876674D01*
X6246254Y-876674D02*
X6265301Y-867150D01*
X6265301Y-867150D02*
X6293873Y-867150D01*
X6293873Y-867150D02*
X6312920Y-876674D01*
X6389111Y-1076674D02*
X6398635Y-1067150D01*
X6398635Y-1067150D02*
X6417682Y-1038579D01*
X6417682Y-1038579D02*
X6427206Y-1019531D01*
X6427206Y-1019531D02*
X6436730Y-990960D01*
X6436730Y-990960D02*
X6446254Y-943341D01*
X6446254Y-943341D02*
X6446254Y-905246D01*
X6446254Y-905246D02*
X6436730Y-857627D01*
X6436730Y-857627D02*
X6427206Y-829055D01*
X6427206Y-829055D02*
X6417682Y-810008D01*
X6417682Y-810008D02*
X6398635Y-781436D01*
X6398635Y-781436D02*
X6389111Y-771912D01*
D10*
X-55000Y-1123000D02*
X-55000Y-1223000D01*
X-105000Y-1173000D02*
X-5000Y-1173000D01*
D11*
X360539Y-1264484D02*
X246253Y-1264484D01*
X303396Y-1264484D02*
X303396Y-1064484D01*
X303396Y-1064484D02*
X284348Y-1093055D01*
X284348Y-1093055D02*
X265301Y-1112103D01*
X265301Y-1112103D02*
X246253Y-1121627D01*
X446253Y-1245436D02*
X455777Y-1254960D01*
X455777Y-1254960D02*
X446253Y-1264484D01*
X446253Y-1264484D02*
X436729Y-1254960D01*
X436729Y-1254960D02*
X446253Y-1245436D01*
X446253Y-1245436D02*
X446253Y-1264484D01*
X579586Y-1064484D02*
X598634Y-1064484D01*
X598634Y-1064484D02*
X617682Y-1074008D01*
X617682Y-1074008D02*
X627205Y-1083531D01*
X627205Y-1083531D02*
X636729Y-1102579D01*
X636729Y-1102579D02*
X646253Y-1140674D01*
X646253Y-1140674D02*
X646253Y-1188293D01*
X646253Y-1188293D02*
X636729Y-1226389D01*
X636729Y-1226389D02*
X627205Y-1245436D01*
X627205Y-1245436D02*
X617682Y-1254960D01*
X617682Y-1254960D02*
X598634Y-1264484D01*
X598634Y-1264484D02*
X579586Y-1264484D01*
X579586Y-1264484D02*
X560539Y-1254960D01*
X560539Y-1254960D02*
X551015Y-1245436D01*
X551015Y-1245436D02*
X541491Y-1226389D01*
X541491Y-1226389D02*
X531967Y-1188293D01*
X531967Y-1188293D02*
X531967Y-1140674D01*
X531967Y-1140674D02*
X541491Y-1102579D01*
X541491Y-1102579D02*
X551015Y-1083531D01*
X551015Y-1083531D02*
X560539Y-1074008D01*
X560539Y-1074008D02*
X579586Y-1064484D01*
X770062Y-1064484D02*
X789110Y-1064484D01*
X789110Y-1064484D02*
X808158Y-1074008D01*
X808158Y-1074008D02*
X817682Y-1083531D01*
X817682Y-1083531D02*
X827205Y-1102579D01*
X827205Y-1102579D02*
X836729Y-1140674D01*
X836729Y-1140674D02*
X836729Y-1188293D01*
X836729Y-1188293D02*
X827205Y-1226389D01*
X827205Y-1226389D02*
X817682Y-1245436D01*
X817682Y-1245436D02*
X808158Y-1254960D01*
X808158Y-1254960D02*
X789110Y-1264484D01*
X789110Y-1264484D02*
X770062Y-1264484D01*
X770062Y-1264484D02*
X751015Y-1254960D01*
X751015Y-1254960D02*
X741491Y-1245436D01*
X741491Y-1245436D02*
X731967Y-1226389D01*
X731967Y-1226389D02*
X722443Y-1188293D01*
X722443Y-1188293D02*
X722443Y-1140674D01*
X722443Y-1140674D02*
X731967Y-1102579D01*
X731967Y-1102579D02*
X741491Y-1083531D01*
X741491Y-1083531D02*
X751015Y-1074008D01*
X751015Y-1074008D02*
X770062Y-1064484D01*
X960539Y-1064484D02*
X979586Y-1064484D01*
X979586Y-1064484D02*
X998634Y-1074008D01*
X998634Y-1074008D02*
X1008158Y-1083531D01*
X1008158Y-1083531D02*
X1017682Y-1102579D01*
X1017682Y-1102579D02*
X1027205Y-1140674D01*
X1027205Y-1140674D02*
X1027205Y-1188293D01*
X1027205Y-1188293D02*
X1017682Y-1226389D01*
X1017682Y-1226389D02*
X1008158Y-1245436D01*
X1008158Y-1245436D02*
X998634Y-1254960D01*
X998634Y-1254960D02*
X979586Y-1264484D01*
X979586Y-1264484D02*
X960539Y-1264484D01*
X960539Y-1264484D02*
X941491Y-1254960D01*
X941491Y-1254960D02*
X931967Y-1245436D01*
X931967Y-1245436D02*
X922443Y-1226389D01*
X922443Y-1226389D02*
X912920Y-1188293D01*
X912920Y-1188293D02*
X912920Y-1140674D01*
X912920Y-1140674D02*
X922443Y-1102579D01*
X922443Y-1102579D02*
X931967Y-1083531D01*
X931967Y-1083531D02*
X941491Y-1074008D01*
X941491Y-1074008D02*
X960539Y-1064484D01*
X1112920Y-1264484D02*
X1112920Y-1131150D01*
X1112920Y-1150198D02*
X1122444Y-1140674D01*
X1122444Y-1140674D02*
X1141491Y-1131150D01*
X1141491Y-1131150D02*
X1170063Y-1131150D01*
X1170063Y-1131150D02*
X1189110Y-1140674D01*
X1189110Y-1140674D02*
X1198634Y-1159722D01*
X1198634Y-1159722D02*
X1198634Y-1264484D01*
X1198634Y-1159722D02*
X1208158Y-1140674D01*
X1208158Y-1140674D02*
X1227205Y-1131150D01*
X1227205Y-1131150D02*
X1255777Y-1131150D01*
X1255777Y-1131150D02*
X1274825Y-1140674D01*
X1274825Y-1140674D02*
X1284348Y-1159722D01*
X1284348Y-1159722D02*
X1284348Y-1264484D01*
X1379586Y-1264484D02*
X1379586Y-1131150D01*
X1379586Y-1150198D02*
X1389110Y-1140674D01*
X1389110Y-1140674D02*
X1408158Y-1131150D01*
X1408158Y-1131150D02*
X1436729Y-1131150D01*
X1436729Y-1131150D02*
X1455777Y-1140674D01*
X1455777Y-1140674D02*
X1465301Y-1159722D01*
X1465301Y-1159722D02*
X1465301Y-1264484D01*
X1465301Y-1159722D02*
X1474824Y-1140674D01*
X1474824Y-1140674D02*
X1493872Y-1131150D01*
X1493872Y-1131150D02*
X1522443Y-1131150D01*
X1522443Y-1131150D02*
X1541491Y-1140674D01*
X1541491Y-1140674D02*
X1551015Y-1159722D01*
X1551015Y-1159722D02*
X1551015Y-1264484D01*
X1941491Y-1054960D02*
X1770063Y-1312103D01*
X2198634Y-1064484D02*
X2217682Y-1064484D01*
X2217682Y-1064484D02*
X2236729Y-1074008D01*
X2236729Y-1074008D02*
X2246253Y-1083531D01*
X2246253Y-1083531D02*
X2255777Y-1102579D01*
X2255777Y-1102579D02*
X2265301Y-1140674D01*
X2265301Y-1140674D02*
X2265301Y-1188293D01*
X2265301Y-1188293D02*
X2255777Y-1226389D01*
X2255777Y-1226389D02*
X2246253Y-1245436D01*
X2246253Y-1245436D02*
X2236729Y-1254960D01*
X2236729Y-1254960D02*
X2217682Y-1264484D01*
X2217682Y-1264484D02*
X2198634Y-1264484D01*
X2198634Y-1264484D02*
X2179587Y-1254960D01*
X2179587Y-1254960D02*
X2170063Y-1245436D01*
X2170063Y-1245436D02*
X2160539Y-1226389D01*
X2160539Y-1226389D02*
X2151015Y-1188293D01*
X2151015Y-1188293D02*
X2151015Y-1140674D01*
X2151015Y-1140674D02*
X2160539Y-1102579D01*
X2160539Y-1102579D02*
X2170063Y-1083531D01*
X2170063Y-1083531D02*
X2179587Y-1074008D01*
X2179587Y-1074008D02*
X2198634Y-1064484D01*
X2351015Y-1245436D02*
X2360539Y-1254960D01*
X2360539Y-1254960D02*
X2351015Y-1264484D01*
X2351015Y-1264484D02*
X2341491Y-1254960D01*
X2341491Y-1254960D02*
X2351015Y-1245436D01*
X2351015Y-1245436D02*
X2351015Y-1264484D01*
X2484348Y-1064484D02*
X2503396Y-1064484D01*
X2503396Y-1064484D02*
X2522444Y-1074008D01*
X2522444Y-1074008D02*
X2531968Y-1083531D01*
X2531968Y-1083531D02*
X2541491Y-1102579D01*
X2541491Y-1102579D02*
X2551015Y-1140674D01*
X2551015Y-1140674D02*
X2551015Y-1188293D01*
X2551015Y-1188293D02*
X2541491Y-1226389D01*
X2541491Y-1226389D02*
X2531968Y-1245436D01*
X2531968Y-1245436D02*
X2522444Y-1254960D01*
X2522444Y-1254960D02*
X2503396Y-1264484D01*
X2503396Y-1264484D02*
X2484348Y-1264484D01*
X2484348Y-1264484D02*
X2465301Y-1254960D01*
X2465301Y-1254960D02*
X2455777Y-1245436D01*
X2455777Y-1245436D02*
X2446253Y-1226389D01*
X2446253Y-1226389D02*
X2436729Y-1188293D01*
X2436729Y-1188293D02*
X2436729Y-1140674D01*
X2436729Y-1140674D02*
X2446253Y-1102579D01*
X2446253Y-1102579D02*
X2455777Y-1083531D01*
X2455777Y-1083531D02*
X2465301Y-1074008D01*
X2465301Y-1074008D02*
X2484348Y-1064484D01*
X2617682Y-1064484D02*
X2741491Y-1064484D01*
X2741491Y-1064484D02*
X2674825Y-1140674D01*
X2674825Y-1140674D02*
X2703396Y-1140674D01*
X2703396Y-1140674D02*
X2722444Y-1150198D01*
X2722444Y-1150198D02*
X2731968Y-1159722D01*
X2731968Y-1159722D02*
X2741491Y-1178770D01*
X2741491Y-1178770D02*
X2741491Y-1226389D01*
X2741491Y-1226389D02*
X2731968Y-1245436D01*
X2731968Y-1245436D02*
X2722444Y-1254960D01*
X2722444Y-1254960D02*
X2703396Y-1264484D01*
X2703396Y-1264484D02*
X2646253Y-1264484D01*
X2646253Y-1264484D02*
X2627206Y-1254960D01*
X2627206Y-1254960D02*
X2617682Y-1245436D01*
X2836729Y-1264484D02*
X2874825Y-1264484D01*
X2874825Y-1264484D02*
X2893872Y-1254960D01*
X2893872Y-1254960D02*
X2903396Y-1245436D01*
X2903396Y-1245436D02*
X2922444Y-1216865D01*
X2922444Y-1216865D02*
X2931967Y-1178770D01*
X2931967Y-1178770D02*
X2931967Y-1102579D01*
X2931967Y-1102579D02*
X2922444Y-1083531D01*
X2922444Y-1083531D02*
X2912920Y-1074008D01*
X2912920Y-1074008D02*
X2893872Y-1064484D01*
X2893872Y-1064484D02*
X2855777Y-1064484D01*
X2855777Y-1064484D02*
X2836729Y-1074008D01*
X2836729Y-1074008D02*
X2827206Y-1083531D01*
X2827206Y-1083531D02*
X2817682Y-1102579D01*
X2817682Y-1102579D02*
X2817682Y-1150198D01*
X2817682Y-1150198D02*
X2827206Y-1169246D01*
X2827206Y-1169246D02*
X2836729Y-1178770D01*
X2836729Y-1178770D02*
X2855777Y-1188293D01*
X2855777Y-1188293D02*
X2893872Y-1188293D01*
X2893872Y-1188293D02*
X2912920Y-1178770D01*
X2912920Y-1178770D02*
X2922444Y-1169246D01*
X2922444Y-1169246D02*
X2931967Y-1150198D01*
X3103396Y-1131150D02*
X3103396Y-1264484D01*
X3055777Y-1054960D02*
X3008158Y-1197817D01*
X3008158Y-1197817D02*
X3131967Y-1197817D01*
X3198634Y-1064484D02*
X3198634Y-1102579D01*
X3274825Y-1064484D02*
X3274825Y-1102579D01*
X3570063Y-1340674D02*
X3560539Y-1331150D01*
X3560539Y-1331150D02*
X3541491Y-1302579D01*
X3541491Y-1302579D02*
X3531968Y-1283531D01*
X3531968Y-1283531D02*
X3522444Y-1254960D01*
X3522444Y-1254960D02*
X3512920Y-1207341D01*
X3512920Y-1207341D02*
X3512920Y-1169246D01*
X3512920Y-1169246D02*
X3522444Y-1121627D01*
X3522444Y-1121627D02*
X3531968Y-1093055D01*
X3531968Y-1093055D02*
X3541491Y-1074008D01*
X3541491Y-1074008D02*
X3560539Y-1045436D01*
X3560539Y-1045436D02*
X3570063Y-1035912D01*
X3741491Y-1064484D02*
X3646253Y-1064484D01*
X3646253Y-1064484D02*
X3636729Y-1159722D01*
X3636729Y-1159722D02*
X3646253Y-1150198D01*
X3646253Y-1150198D02*
X3665301Y-1140674D01*
X3665301Y-1140674D02*
X3712920Y-1140674D01*
X3712920Y-1140674D02*
X3731968Y-1150198D01*
X3731968Y-1150198D02*
X3741491Y-1159722D01*
X3741491Y-1159722D02*
X3751015Y-1178770D01*
X3751015Y-1178770D02*
X3751015Y-1226389D01*
X3751015Y-1226389D02*
X3741491Y-1245436D01*
X3741491Y-1245436D02*
X3731968Y-1254960D01*
X3731968Y-1254960D02*
X3712920Y-1264484D01*
X3712920Y-1264484D02*
X3665301Y-1264484D01*
X3665301Y-1264484D02*
X3646253Y-1254960D01*
X3646253Y-1254960D02*
X3636729Y-1245436D01*
X3989110Y-1264484D02*
X3989110Y-1064484D01*
X4074825Y-1264484D02*
X4074825Y-1159722D01*
X4074825Y-1159722D02*
X4065301Y-1140674D01*
X4065301Y-1140674D02*
X4046253Y-1131150D01*
X4046253Y-1131150D02*
X4017682Y-1131150D01*
X4017682Y-1131150D02*
X3998634Y-1140674D01*
X3998634Y-1140674D02*
X3989110Y-1150198D01*
X4198634Y-1264484D02*
X4179587Y-1254960D01*
X4179587Y-1254960D02*
X4170063Y-1245436D01*
X4170063Y-1245436D02*
X4160539Y-1226389D01*
X4160539Y-1226389D02*
X4160539Y-1169246D01*
X4160539Y-1169246D02*
X4170063Y-1150198D01*
X4170063Y-1150198D02*
X4179587Y-1140674D01*
X4179587Y-1140674D02*
X4198634Y-1131150D01*
X4198634Y-1131150D02*
X4227206Y-1131150D01*
X4227206Y-1131150D02*
X4246253Y-1140674D01*
X4246253Y-1140674D02*
X4255777Y-1150198D01*
X4255777Y-1150198D02*
X4265301Y-1169246D01*
X4265301Y-1169246D02*
X4265301Y-1226389D01*
X4265301Y-1226389D02*
X4255777Y-1245436D01*
X4255777Y-1245436D02*
X4246253Y-1254960D01*
X4246253Y-1254960D02*
X4227206Y-1264484D01*
X4227206Y-1264484D02*
X4198634Y-1264484D01*
X4379587Y-1264484D02*
X4360539Y-1254960D01*
X4360539Y-1254960D02*
X4351015Y-1235912D01*
X4351015Y-1235912D02*
X4351015Y-1064484D01*
X4531968Y-1254960D02*
X4512920Y-1264484D01*
X4512920Y-1264484D02*
X4474825Y-1264484D01*
X4474825Y-1264484D02*
X4455777Y-1254960D01*
X4455777Y-1254960D02*
X4446253Y-1235912D01*
X4446253Y-1235912D02*
X4446253Y-1159722D01*
X4446253Y-1159722D02*
X4455777Y-1140674D01*
X4455777Y-1140674D02*
X4474825Y-1131150D01*
X4474825Y-1131150D02*
X4512920Y-1131150D01*
X4512920Y-1131150D02*
X4531968Y-1140674D01*
X4531968Y-1140674D02*
X4541492Y-1159722D01*
X4541492Y-1159722D02*
X4541492Y-1178770D01*
X4541492Y-1178770D02*
X4446253Y-1197817D01*
X4617682Y-1254960D02*
X4636730Y-1264484D01*
X4636730Y-1264484D02*
X4674825Y-1264484D01*
X4674825Y-1264484D02*
X4693873Y-1254960D01*
X4693873Y-1254960D02*
X4703396Y-1235912D01*
X4703396Y-1235912D02*
X4703396Y-1226389D01*
X4703396Y-1226389D02*
X4693873Y-1207341D01*
X4693873Y-1207341D02*
X4674825Y-1197817D01*
X4674825Y-1197817D02*
X4646253Y-1197817D01*
X4646253Y-1197817D02*
X4627206Y-1188293D01*
X4627206Y-1188293D02*
X4617682Y-1169246D01*
X4617682Y-1169246D02*
X4617682Y-1159722D01*
X4617682Y-1159722D02*
X4627206Y-1140674D01*
X4627206Y-1140674D02*
X4646253Y-1131150D01*
X4646253Y-1131150D02*
X4674825Y-1131150D01*
X4674825Y-1131150D02*
X4693873Y-1140674D01*
X4770063Y-1340674D02*
X4779587Y-1331150D01*
X4779587Y-1331150D02*
X4798634Y-1302579D01*
X4798634Y-1302579D02*
X4808158Y-1283531D01*
X4808158Y-1283531D02*
X4817682Y-1254960D01*
X4817682Y-1254960D02*
X4827206Y-1207341D01*
X4827206Y-1207341D02*
X4827206Y-1169246D01*
X4827206Y-1169246D02*
X4817682Y-1121627D01*
X4817682Y-1121627D02*
X4808158Y-1093055D01*
X4808158Y-1093055D02*
X4798634Y-1074008D01*
X4798634Y-1074008D02*
X4779587Y-1045436D01*
X4779587Y-1045436D02*
X4770063Y-1035912D01*
D12*
X-24038Y-1482962D02*
X-24038Y-1391038D01*
X-115962Y-1391038D01*
X-115962Y-1482962D01*
X-24038Y-1482962D01*
D11*
X360539Y-1528484D02*
X246253Y-1528484D01*
X303396Y-1528484D02*
X303396Y-1328484D01*
X303396Y-1328484D02*
X284348Y-1357055D01*
X284348Y-1357055D02*
X265301Y-1376103D01*
X265301Y-1376103D02*
X246253Y-1385627D01*
X446253Y-1509436D02*
X455777Y-1518960D01*
X455777Y-1518960D02*
X446253Y-1528484D01*
X446253Y-1528484D02*
X436729Y-1518960D01*
X436729Y-1518960D02*
X446253Y-1509436D01*
X446253Y-1509436D02*
X446253Y-1528484D01*
X522443Y-1328484D02*
X646253Y-1328484D01*
X646253Y-1328484D02*
X579586Y-1404674D01*
X579586Y-1404674D02*
X608158Y-1404674D01*
X608158Y-1404674D02*
X627205Y-1414198D01*
X627205Y-1414198D02*
X636729Y-1423722D01*
X636729Y-1423722D02*
X646253Y-1442769D01*
X646253Y-1442769D02*
X646253Y-1490388D01*
X646253Y-1490388D02*
X636729Y-1509436D01*
X636729Y-1509436D02*
X627205Y-1518960D01*
X627205Y-1518960D02*
X608158Y-1528484D01*
X608158Y-1528484D02*
X551015Y-1528484D01*
X551015Y-1528484D02*
X531967Y-1518960D01*
X531967Y-1518960D02*
X522443Y-1509436D01*
X770062Y-1328484D02*
X789110Y-1328484D01*
X789110Y-1328484D02*
X808158Y-1338008D01*
X808158Y-1338008D02*
X817682Y-1347531D01*
X817682Y-1347531D02*
X827205Y-1366579D01*
X827205Y-1366579D02*
X836729Y-1404674D01*
X836729Y-1404674D02*
X836729Y-1452293D01*
X836729Y-1452293D02*
X827205Y-1490388D01*
X827205Y-1490388D02*
X817682Y-1509436D01*
X817682Y-1509436D02*
X808158Y-1518960D01*
X808158Y-1518960D02*
X789110Y-1528484D01*
X789110Y-1528484D02*
X770062Y-1528484D01*
X770062Y-1528484D02*
X751015Y-1518960D01*
X751015Y-1518960D02*
X741491Y-1509436D01*
X741491Y-1509436D02*
X731967Y-1490388D01*
X731967Y-1490388D02*
X722443Y-1452293D01*
X722443Y-1452293D02*
X722443Y-1404674D01*
X722443Y-1404674D02*
X731967Y-1366579D01*
X731967Y-1366579D02*
X741491Y-1347531D01*
X741491Y-1347531D02*
X751015Y-1338008D01*
X751015Y-1338008D02*
X770062Y-1328484D01*
X960539Y-1328484D02*
X979586Y-1328484D01*
X979586Y-1328484D02*
X998634Y-1338008D01*
X998634Y-1338008D02*
X1008158Y-1347531D01*
X1008158Y-1347531D02*
X1017682Y-1366579D01*
X1017682Y-1366579D02*
X1027205Y-1404674D01*
X1027205Y-1404674D02*
X1027205Y-1452293D01*
X1027205Y-1452293D02*
X1017682Y-1490388D01*
X1017682Y-1490388D02*
X1008158Y-1509436D01*
X1008158Y-1509436D02*
X998634Y-1518960D01*
X998634Y-1518960D02*
X979586Y-1528484D01*
X979586Y-1528484D02*
X960539Y-1528484D01*
X960539Y-1528484D02*
X941491Y-1518960D01*
X941491Y-1518960D02*
X931967Y-1509436D01*
X931967Y-1509436D02*
X922443Y-1490388D01*
X922443Y-1490388D02*
X912920Y-1452293D01*
X912920Y-1452293D02*
X912920Y-1404674D01*
X912920Y-1404674D02*
X922443Y-1366579D01*
X922443Y-1366579D02*
X931967Y-1347531D01*
X931967Y-1347531D02*
X941491Y-1338008D01*
X941491Y-1338008D02*
X960539Y-1328484D01*
X1112920Y-1528484D02*
X1112920Y-1395150D01*
X1112920Y-1414198D02*
X1122444Y-1404674D01*
X1122444Y-1404674D02*
X1141491Y-1395150D01*
X1141491Y-1395150D02*
X1170063Y-1395150D01*
X1170063Y-1395150D02*
X1189110Y-1404674D01*
X1189110Y-1404674D02*
X1198634Y-1423722D01*
X1198634Y-1423722D02*
X1198634Y-1528484D01*
X1198634Y-1423722D02*
X1208158Y-1404674D01*
X1208158Y-1404674D02*
X1227205Y-1395150D01*
X1227205Y-1395150D02*
X1255777Y-1395150D01*
X1255777Y-1395150D02*
X1274825Y-1404674D01*
X1274825Y-1404674D02*
X1284348Y-1423722D01*
X1284348Y-1423722D02*
X1284348Y-1528484D01*
X1379586Y-1528484D02*
X1379586Y-1395150D01*
X1379586Y-1414198D02*
X1389110Y-1404674D01*
X1389110Y-1404674D02*
X1408158Y-1395150D01*
X1408158Y-1395150D02*
X1436729Y-1395150D01*
X1436729Y-1395150D02*
X1455777Y-1404674D01*
X1455777Y-1404674D02*
X1465301Y-1423722D01*
X1465301Y-1423722D02*
X1465301Y-1528484D01*
X1465301Y-1423722D02*
X1474824Y-1404674D01*
X1474824Y-1404674D02*
X1493872Y-1395150D01*
X1493872Y-1395150D02*
X1522443Y-1395150D01*
X1522443Y-1395150D02*
X1541491Y-1404674D01*
X1541491Y-1404674D02*
X1551015Y-1423722D01*
X1551015Y-1423722D02*
X1551015Y-1528484D01*
X1941491Y-1318960D02*
X1770063Y-1576103D01*
X2198634Y-1328484D02*
X2217682Y-1328484D01*
X2217682Y-1328484D02*
X2236729Y-1338008D01*
X2236729Y-1338008D02*
X2246253Y-1347531D01*
X2246253Y-1347531D02*
X2255777Y-1366579D01*
X2255777Y-1366579D02*
X2265301Y-1404674D01*
X2265301Y-1404674D02*
X2265301Y-1452293D01*
X2265301Y-1452293D02*
X2255777Y-1490388D01*
X2255777Y-1490388D02*
X2246253Y-1509436D01*
X2246253Y-1509436D02*
X2236729Y-1518960D01*
X2236729Y-1518960D02*
X2217682Y-1528484D01*
X2217682Y-1528484D02*
X2198634Y-1528484D01*
X2198634Y-1528484D02*
X2179587Y-1518960D01*
X2179587Y-1518960D02*
X2170063Y-1509436D01*
X2170063Y-1509436D02*
X2160539Y-1490388D01*
X2160539Y-1490388D02*
X2151015Y-1452293D01*
X2151015Y-1452293D02*
X2151015Y-1404674D01*
X2151015Y-1404674D02*
X2160539Y-1366579D01*
X2160539Y-1366579D02*
X2170063Y-1347531D01*
X2170063Y-1347531D02*
X2179587Y-1338008D01*
X2179587Y-1338008D02*
X2198634Y-1328484D01*
X2351015Y-1509436D02*
X2360539Y-1518960D01*
X2360539Y-1518960D02*
X2351015Y-1528484D01*
X2351015Y-1528484D02*
X2341491Y-1518960D01*
X2341491Y-1518960D02*
X2351015Y-1509436D01*
X2351015Y-1509436D02*
X2351015Y-1528484D01*
X2484348Y-1328484D02*
X2503396Y-1328484D01*
X2503396Y-1328484D02*
X2522444Y-1338008D01*
X2522444Y-1338008D02*
X2531968Y-1347531D01*
X2531968Y-1347531D02*
X2541491Y-1366579D01*
X2541491Y-1366579D02*
X2551015Y-1404674D01*
X2551015Y-1404674D02*
X2551015Y-1452293D01*
X2551015Y-1452293D02*
X2541491Y-1490388D01*
X2541491Y-1490388D02*
X2531968Y-1509436D01*
X2531968Y-1509436D02*
X2522444Y-1518960D01*
X2522444Y-1518960D02*
X2503396Y-1528484D01*
X2503396Y-1528484D02*
X2484348Y-1528484D01*
X2484348Y-1528484D02*
X2465301Y-1518960D01*
X2465301Y-1518960D02*
X2455777Y-1509436D01*
X2455777Y-1509436D02*
X2446253Y-1490388D01*
X2446253Y-1490388D02*
X2436729Y-1452293D01*
X2436729Y-1452293D02*
X2436729Y-1404674D01*
X2436729Y-1404674D02*
X2446253Y-1366579D01*
X2446253Y-1366579D02*
X2455777Y-1347531D01*
X2455777Y-1347531D02*
X2465301Y-1338008D01*
X2465301Y-1338008D02*
X2484348Y-1328484D01*
X2731968Y-1328484D02*
X2636729Y-1328484D01*
X2636729Y-1328484D02*
X2627206Y-1423722D01*
X2627206Y-1423722D02*
X2636729Y-1414198D01*
X2636729Y-1414198D02*
X2655777Y-1404674D01*
X2655777Y-1404674D02*
X2703396Y-1404674D01*
X2703396Y-1404674D02*
X2722444Y-1414198D01*
X2722444Y-1414198D02*
X2731968Y-1423722D01*
X2731968Y-1423722D02*
X2741491Y-1442769D01*
X2741491Y-1442769D02*
X2741491Y-1490388D01*
X2741491Y-1490388D02*
X2731968Y-1509436D01*
X2731968Y-1509436D02*
X2722444Y-1518960D01*
X2722444Y-1518960D02*
X2703396Y-1528484D01*
X2703396Y-1528484D02*
X2655777Y-1528484D01*
X2655777Y-1528484D02*
X2636729Y-1518960D01*
X2636729Y-1518960D02*
X2627206Y-1509436D01*
X2931967Y-1528484D02*
X2817682Y-1528484D01*
X2874825Y-1528484D02*
X2874825Y-1328484D01*
X2874825Y-1328484D02*
X2855777Y-1357055D01*
X2855777Y-1357055D02*
X2836729Y-1376103D01*
X2836729Y-1376103D02*
X2817682Y-1385627D01*
X3008158Y-1347531D02*
X3017682Y-1338008D01*
X3017682Y-1338008D02*
X3036729Y-1328484D01*
X3036729Y-1328484D02*
X3084348Y-1328484D01*
X3084348Y-1328484D02*
X3103396Y-1338008D01*
X3103396Y-1338008D02*
X3112920Y-1347531D01*
X3112920Y-1347531D02*
X3122444Y-1366579D01*
X3122444Y-1366579D02*
X3122444Y-1385627D01*
X3122444Y-1385627D02*
X3112920Y-1414198D01*
X3112920Y-1414198D02*
X2998634Y-1528484D01*
X2998634Y-1528484D02*
X3122444Y-1528484D01*
X3198634Y-1328484D02*
X3198634Y-1366579D01*
X3274825Y-1328484D02*
X3274825Y-1366579D01*
X3570063Y-1604674D02*
X3560539Y-1595150D01*
X3560539Y-1595150D02*
X3541491Y-1566579D01*
X3541491Y-1566579D02*
X3531968Y-1547531D01*
X3531968Y-1547531D02*
X3522444Y-1518960D01*
X3522444Y-1518960D02*
X3512920Y-1471341D01*
X3512920Y-1471341D02*
X3512920Y-1433246D01*
X3512920Y-1433246D02*
X3522444Y-1385627D01*
X3522444Y-1385627D02*
X3531968Y-1357055D01*
X3531968Y-1357055D02*
X3541491Y-1338008D01*
X3541491Y-1338008D02*
X3560539Y-1309436D01*
X3560539Y-1309436D02*
X3570063Y-1299912D01*
X3627206Y-1328484D02*
X3751015Y-1328484D01*
X3751015Y-1328484D02*
X3684348Y-1404674D01*
X3684348Y-1404674D02*
X3712920Y-1404674D01*
X3712920Y-1404674D02*
X3731968Y-1414198D01*
X3731968Y-1414198D02*
X3741491Y-1423722D01*
X3741491Y-1423722D02*
X3751015Y-1442769D01*
X3751015Y-1442769D02*
X3751015Y-1490388D01*
X3751015Y-1490388D02*
X3741491Y-1509436D01*
X3741491Y-1509436D02*
X3731968Y-1518960D01*
X3731968Y-1518960D02*
X3712920Y-1528484D01*
X3712920Y-1528484D02*
X3655777Y-1528484D01*
X3655777Y-1528484D02*
X3636729Y-1518960D01*
X3636729Y-1518960D02*
X3627206Y-1509436D01*
X3989110Y-1528484D02*
X3989110Y-1328484D01*
X4074825Y-1528484D02*
X4074825Y-1423722D01*
X4074825Y-1423722D02*
X4065301Y-1404674D01*
X4065301Y-1404674D02*
X4046253Y-1395150D01*
X4046253Y-1395150D02*
X4017682Y-1395150D01*
X4017682Y-1395150D02*
X3998634Y-1404674D01*
X3998634Y-1404674D02*
X3989110Y-1414198D01*
X4198634Y-1528484D02*
X4179587Y-1518960D01*
X4179587Y-1518960D02*
X4170063Y-1509436D01*
X4170063Y-1509436D02*
X4160539Y-1490388D01*
X4160539Y-1490388D02*
X4160539Y-1433246D01*
X4160539Y-1433246D02*
X4170063Y-1414198D01*
X4170063Y-1414198D02*
X4179587Y-1404674D01*
X4179587Y-1404674D02*
X4198634Y-1395150D01*
X4198634Y-1395150D02*
X4227206Y-1395150D01*
X4227206Y-1395150D02*
X4246253Y-1404674D01*
X4246253Y-1404674D02*
X4255777Y-1414198D01*
X4255777Y-1414198D02*
X4265301Y-1433246D01*
X4265301Y-1433246D02*
X4265301Y-1490388D01*
X4265301Y-1490388D02*
X4255777Y-1509436D01*
X4255777Y-1509436D02*
X4246253Y-1518960D01*
X4246253Y-1518960D02*
X4227206Y-1528484D01*
X4227206Y-1528484D02*
X4198634Y-1528484D01*
X4379587Y-1528484D02*
X4360539Y-1518960D01*
X4360539Y-1518960D02*
X4351015Y-1499912D01*
X4351015Y-1499912D02*
X4351015Y-1328484D01*
X4531968Y-1518960D02*
X4512920Y-1528484D01*
X4512920Y-1528484D02*
X4474825Y-1528484D01*
X4474825Y-1528484D02*
X4455777Y-1518960D01*
X4455777Y-1518960D02*
X4446253Y-1499912D01*
X4446253Y-1499912D02*
X4446253Y-1423722D01*
X4446253Y-1423722D02*
X4455777Y-1404674D01*
X4455777Y-1404674D02*
X4474825Y-1395150D01*
X4474825Y-1395150D02*
X4512920Y-1395150D01*
X4512920Y-1395150D02*
X4531968Y-1404674D01*
X4531968Y-1404674D02*
X4541492Y-1423722D01*
X4541492Y-1423722D02*
X4541492Y-1442769D01*
X4541492Y-1442769D02*
X4446253Y-1461817D01*
X4617682Y-1518960D02*
X4636730Y-1528484D01*
X4636730Y-1528484D02*
X4674825Y-1528484D01*
X4674825Y-1528484D02*
X4693873Y-1518960D01*
X4693873Y-1518960D02*
X4703396Y-1499912D01*
X4703396Y-1499912D02*
X4703396Y-1490388D01*
X4703396Y-1490388D02*
X4693873Y-1471341D01*
X4693873Y-1471341D02*
X4674825Y-1461817D01*
X4674825Y-1461817D02*
X4646253Y-1461817D01*
X4646253Y-1461817D02*
X4627206Y-1452293D01*
X4627206Y-1452293D02*
X4617682Y-1433246D01*
X4617682Y-1433246D02*
X4617682Y-1423722D01*
X4617682Y-1423722D02*
X4627206Y-1404674D01*
X4627206Y-1404674D02*
X4646253Y-1395150D01*
X4646253Y-1395150D02*
X4674825Y-1395150D01*
X4674825Y-1395150D02*
X4693873Y-1404674D01*
X4770063Y-1604674D02*
X4779587Y-1595150D01*
X4779587Y-1595150D02*
X4798634Y-1566579D01*
X4798634Y-1566579D02*
X4808158Y-1547531D01*
X4808158Y-1547531D02*
X4817682Y-1518960D01*
X4817682Y-1518960D02*
X4827206Y-1471341D01*
X4827206Y-1471341D02*
X4827206Y-1433246D01*
X4827206Y-1433246D02*
X4817682Y-1385627D01*
X4817682Y-1385627D02*
X4808158Y-1357055D01*
X4808158Y-1357055D02*
X4798634Y-1338008D01*
X4798634Y-1338008D02*
X4779587Y-1309436D01*
X4779587Y-1309436D02*
X4770063Y-1299912D01*
D13*
X-75000Y-1771000D02*
X-5000Y-1701000D01*
X-75000Y-1631000D01*
X-145000Y-1701000D01*
X-75000Y-1771000D01*
D11*
X360539Y-1792484D02*
X246253Y-1792484D01*
X303396Y-1792484D02*
X303396Y-1592484D01*
X303396Y-1592484D02*
X284348Y-1621055D01*
X284348Y-1621055D02*
X265301Y-1640103D01*
X265301Y-1640103D02*
X246253Y-1649627D01*
X446253Y-1773436D02*
X455777Y-1782960D01*
X455777Y-1782960D02*
X446253Y-1792484D01*
X446253Y-1792484D02*
X436729Y-1782960D01*
X436729Y-1782960D02*
X446253Y-1773436D01*
X446253Y-1773436D02*
X446253Y-1792484D01*
X627205Y-1659150D02*
X627205Y-1792484D01*
X579586Y-1582960D02*
X531967Y-1725817D01*
X531967Y-1725817D02*
X655777Y-1725817D01*
X770062Y-1592484D02*
X789110Y-1592484D01*
X789110Y-1592484D02*
X808158Y-1602008D01*
X808158Y-1602008D02*
X817682Y-1611531D01*
X817682Y-1611531D02*
X827205Y-1630579D01*
X827205Y-1630579D02*
X836729Y-1668674D01*
X836729Y-1668674D02*
X836729Y-1716293D01*
X836729Y-1716293D02*
X827205Y-1754388D01*
X827205Y-1754388D02*
X817682Y-1773436D01*
X817682Y-1773436D02*
X808158Y-1782960D01*
X808158Y-1782960D02*
X789110Y-1792484D01*
X789110Y-1792484D02*
X770062Y-1792484D01*
X770062Y-1792484D02*
X751015Y-1782960D01*
X751015Y-1782960D02*
X741491Y-1773436D01*
X741491Y-1773436D02*
X731967Y-1754388D01*
X731967Y-1754388D02*
X722443Y-1716293D01*
X722443Y-1716293D02*
X722443Y-1668674D01*
X722443Y-1668674D02*
X731967Y-1630579D01*
X731967Y-1630579D02*
X741491Y-1611531D01*
X741491Y-1611531D02*
X751015Y-1602008D01*
X751015Y-1602008D02*
X770062Y-1592484D01*
X960539Y-1592484D02*
X979586Y-1592484D01*
X979586Y-1592484D02*
X998634Y-1602008D01*
X998634Y-1602008D02*
X1008158Y-1611531D01*
X1008158Y-1611531D02*
X1017682Y-1630579D01*
X1017682Y-1630579D02*
X1027205Y-1668674D01*
X1027205Y-1668674D02*
X1027205Y-1716293D01*
X1027205Y-1716293D02*
X1017682Y-1754388D01*
X1017682Y-1754388D02*
X1008158Y-1773436D01*
X1008158Y-1773436D02*
X998634Y-1782960D01*
X998634Y-1782960D02*
X979586Y-1792484D01*
X979586Y-1792484D02*
X960539Y-1792484D01*
X960539Y-1792484D02*
X941491Y-1782960D01*
X941491Y-1782960D02*
X931967Y-1773436D01*
X931967Y-1773436D02*
X922443Y-1754388D01*
X922443Y-1754388D02*
X912920Y-1716293D01*
X912920Y-1716293D02*
X912920Y-1668674D01*
X912920Y-1668674D02*
X922443Y-1630579D01*
X922443Y-1630579D02*
X931967Y-1611531D01*
X931967Y-1611531D02*
X941491Y-1602008D01*
X941491Y-1602008D02*
X960539Y-1592484D01*
X1112920Y-1792484D02*
X1112920Y-1659150D01*
X1112920Y-1678198D02*
X1122444Y-1668674D01*
X1122444Y-1668674D02*
X1141491Y-1659150D01*
X1141491Y-1659150D02*
X1170063Y-1659150D01*
X1170063Y-1659150D02*
X1189110Y-1668674D01*
X1189110Y-1668674D02*
X1198634Y-1687722D01*
X1198634Y-1687722D02*
X1198634Y-1792484D01*
X1198634Y-1687722D02*
X1208158Y-1668674D01*
X1208158Y-1668674D02*
X1227205Y-1659150D01*
X1227205Y-1659150D02*
X1255777Y-1659150D01*
X1255777Y-1659150D02*
X1274825Y-1668674D01*
X1274825Y-1668674D02*
X1284348Y-1687722D01*
X1284348Y-1687722D02*
X1284348Y-1792484D01*
X1379586Y-1792484D02*
X1379586Y-1659150D01*
X1379586Y-1678198D02*
X1389110Y-1668674D01*
X1389110Y-1668674D02*
X1408158Y-1659150D01*
X1408158Y-1659150D02*
X1436729Y-1659150D01*
X1436729Y-1659150D02*
X1455777Y-1668674D01*
X1455777Y-1668674D02*
X1465301Y-1687722D01*
X1465301Y-1687722D02*
X1465301Y-1792484D01*
X1465301Y-1687722D02*
X1474824Y-1668674D01*
X1474824Y-1668674D02*
X1493872Y-1659150D01*
X1493872Y-1659150D02*
X1522443Y-1659150D01*
X1522443Y-1659150D02*
X1541491Y-1668674D01*
X1541491Y-1668674D02*
X1551015Y-1687722D01*
X1551015Y-1687722D02*
X1551015Y-1792484D01*
X1941491Y-1582960D02*
X1770063Y-1840103D01*
X2198634Y-1592484D02*
X2217682Y-1592484D01*
X2217682Y-1592484D02*
X2236729Y-1602008D01*
X2236729Y-1602008D02*
X2246253Y-1611531D01*
X2246253Y-1611531D02*
X2255777Y-1630579D01*
X2255777Y-1630579D02*
X2265301Y-1668674D01*
X2265301Y-1668674D02*
X2265301Y-1716293D01*
X2265301Y-1716293D02*
X2255777Y-1754388D01*
X2255777Y-1754388D02*
X2246253Y-1773436D01*
X2246253Y-1773436D02*
X2236729Y-1782960D01*
X2236729Y-1782960D02*
X2217682Y-1792484D01*
X2217682Y-1792484D02*
X2198634Y-1792484D01*
X2198634Y-1792484D02*
X2179587Y-1782960D01*
X2179587Y-1782960D02*
X2170063Y-1773436D01*
X2170063Y-1773436D02*
X2160539Y-1754388D01*
X2160539Y-1754388D02*
X2151015Y-1716293D01*
X2151015Y-1716293D02*
X2151015Y-1668674D01*
X2151015Y-1668674D02*
X2160539Y-1630579D01*
X2160539Y-1630579D02*
X2170063Y-1611531D01*
X2170063Y-1611531D02*
X2179587Y-1602008D01*
X2179587Y-1602008D02*
X2198634Y-1592484D01*
X2351015Y-1773436D02*
X2360539Y-1782960D01*
X2360539Y-1782960D02*
X2351015Y-1792484D01*
X2351015Y-1792484D02*
X2341491Y-1782960D01*
X2341491Y-1782960D02*
X2351015Y-1773436D01*
X2351015Y-1773436D02*
X2351015Y-1792484D01*
X2484348Y-1592484D02*
X2503396Y-1592484D01*
X2503396Y-1592484D02*
X2522444Y-1602008D01*
X2522444Y-1602008D02*
X2531968Y-1611531D01*
X2531968Y-1611531D02*
X2541491Y-1630579D01*
X2541491Y-1630579D02*
X2551015Y-1668674D01*
X2551015Y-1668674D02*
X2551015Y-1716293D01*
X2551015Y-1716293D02*
X2541491Y-1754388D01*
X2541491Y-1754388D02*
X2531968Y-1773436D01*
X2531968Y-1773436D02*
X2522444Y-1782960D01*
X2522444Y-1782960D02*
X2503396Y-1792484D01*
X2503396Y-1792484D02*
X2484348Y-1792484D01*
X2484348Y-1792484D02*
X2465301Y-1782960D01*
X2465301Y-1782960D02*
X2455777Y-1773436D01*
X2455777Y-1773436D02*
X2446253Y-1754388D01*
X2446253Y-1754388D02*
X2436729Y-1716293D01*
X2436729Y-1716293D02*
X2436729Y-1668674D01*
X2436729Y-1668674D02*
X2446253Y-1630579D01*
X2446253Y-1630579D02*
X2455777Y-1611531D01*
X2455777Y-1611531D02*
X2465301Y-1602008D01*
X2465301Y-1602008D02*
X2484348Y-1592484D01*
X2731968Y-1592484D02*
X2636729Y-1592484D01*
X2636729Y-1592484D02*
X2627206Y-1687722D01*
X2627206Y-1687722D02*
X2636729Y-1678198D01*
X2636729Y-1678198D02*
X2655777Y-1668674D01*
X2655777Y-1668674D02*
X2703396Y-1668674D01*
X2703396Y-1668674D02*
X2722444Y-1678198D01*
X2722444Y-1678198D02*
X2731968Y-1687722D01*
X2731968Y-1687722D02*
X2741491Y-1706769D01*
X2741491Y-1706769D02*
X2741491Y-1754388D01*
X2741491Y-1754388D02*
X2731968Y-1773436D01*
X2731968Y-1773436D02*
X2722444Y-1782960D01*
X2722444Y-1782960D02*
X2703396Y-1792484D01*
X2703396Y-1792484D02*
X2655777Y-1792484D01*
X2655777Y-1792484D02*
X2636729Y-1782960D01*
X2636729Y-1782960D02*
X2627206Y-1773436D01*
X2922444Y-1592484D02*
X2827206Y-1592484D01*
X2827206Y-1592484D02*
X2817682Y-1687722D01*
X2817682Y-1687722D02*
X2827206Y-1678198D01*
X2827206Y-1678198D02*
X2846253Y-1668674D01*
X2846253Y-1668674D02*
X2893872Y-1668674D01*
X2893872Y-1668674D02*
X2912920Y-1678198D01*
X2912920Y-1678198D02*
X2922444Y-1687722D01*
X2922444Y-1687722D02*
X2931967Y-1706769D01*
X2931967Y-1706769D02*
X2931967Y-1754388D01*
X2931967Y-1754388D02*
X2922444Y-1773436D01*
X2922444Y-1773436D02*
X2912920Y-1782960D01*
X2912920Y-1782960D02*
X2893872Y-1792484D01*
X2893872Y-1792484D02*
X2846253Y-1792484D01*
X2846253Y-1792484D02*
X2827206Y-1782960D01*
X2827206Y-1782960D02*
X2817682Y-1773436D01*
X3122444Y-1792484D02*
X3008158Y-1792484D01*
X3065301Y-1792484D02*
X3065301Y-1592484D01*
X3065301Y-1592484D02*
X3046253Y-1621055D01*
X3046253Y-1621055D02*
X3027206Y-1640103D01*
X3027206Y-1640103D02*
X3008158Y-1649627D01*
X3198634Y-1592484D02*
X3198634Y-1630579D01*
X3274825Y-1592484D02*
X3274825Y-1630579D01*
X3570063Y-1868674D02*
X3560539Y-1859150D01*
X3560539Y-1859150D02*
X3541491Y-1830579D01*
X3541491Y-1830579D02*
X3531968Y-1811531D01*
X3531968Y-1811531D02*
X3522444Y-1782960D01*
X3522444Y-1782960D02*
X3512920Y-1735341D01*
X3512920Y-1735341D02*
X3512920Y-1697246D01*
X3512920Y-1697246D02*
X3522444Y-1649627D01*
X3522444Y-1649627D02*
X3531968Y-1621055D01*
X3531968Y-1621055D02*
X3541491Y-1602008D01*
X3541491Y-1602008D02*
X3560539Y-1573436D01*
X3560539Y-1573436D02*
X3570063Y-1563912D01*
X3751015Y-1792484D02*
X3636729Y-1792484D01*
X3693872Y-1792484D02*
X3693872Y-1592484D01*
X3693872Y-1592484D02*
X3674825Y-1621055D01*
X3674825Y-1621055D02*
X3655777Y-1640103D01*
X3655777Y-1640103D02*
X3636729Y-1649627D01*
X3827206Y-1611531D02*
X3836729Y-1602008D01*
X3836729Y-1602008D02*
X3855777Y-1592484D01*
X3855777Y-1592484D02*
X3903396Y-1592484D01*
X3903396Y-1592484D02*
X3922444Y-1602008D01*
X3922444Y-1602008D02*
X3931968Y-1611531D01*
X3931968Y-1611531D02*
X3941491Y-1630579D01*
X3941491Y-1630579D02*
X3941491Y-1649627D01*
X3941491Y-1649627D02*
X3931968Y-1678198D01*
X3931968Y-1678198D02*
X3817682Y-1792484D01*
X3817682Y-1792484D02*
X3941491Y-1792484D01*
X4179587Y-1792484D02*
X4179587Y-1592484D01*
X4265301Y-1792484D02*
X4265301Y-1687722D01*
X4265301Y-1687722D02*
X4255777Y-1668674D01*
X4255777Y-1668674D02*
X4236730Y-1659150D01*
X4236730Y-1659150D02*
X4208158Y-1659150D01*
X4208158Y-1659150D02*
X4189110Y-1668674D01*
X4189110Y-1668674D02*
X4179587Y-1678198D01*
X4389111Y-1792484D02*
X4370063Y-1782960D01*
X4370063Y-1782960D02*
X4360539Y-1773436D01*
X4360539Y-1773436D02*
X4351015Y-1754388D01*
X4351015Y-1754388D02*
X4351015Y-1697246D01*
X4351015Y-1697246D02*
X4360539Y-1678198D01*
X4360539Y-1678198D02*
X4370063Y-1668674D01*
X4370063Y-1668674D02*
X4389111Y-1659150D01*
X4389111Y-1659150D02*
X4417682Y-1659150D01*
X4417682Y-1659150D02*
X4436730Y-1668674D01*
X4436730Y-1668674D02*
X4446253Y-1678198D01*
X4446253Y-1678198D02*
X4455777Y-1697246D01*
X4455777Y-1697246D02*
X4455777Y-1754388D01*
X4455777Y-1754388D02*
X4446253Y-1773436D01*
X4446253Y-1773436D02*
X4436730Y-1782960D01*
X4436730Y-1782960D02*
X4417682Y-1792484D01*
X4417682Y-1792484D02*
X4389111Y-1792484D01*
X4570063Y-1792484D02*
X4551015Y-1782960D01*
X4551015Y-1782960D02*
X4541492Y-1763912D01*
X4541492Y-1763912D02*
X4541492Y-1592484D01*
X4722444Y-1782960D02*
X4703396Y-1792484D01*
X4703396Y-1792484D02*
X4665301Y-1792484D01*
X4665301Y-1792484D02*
X4646253Y-1782960D01*
X4646253Y-1782960D02*
X4636730Y-1763912D01*
X4636730Y-1763912D02*
X4636730Y-1687722D01*
X4636730Y-1687722D02*
X4646253Y-1668674D01*
X4646253Y-1668674D02*
X4665301Y-1659150D01*
X4665301Y-1659150D02*
X4703396Y-1659150D01*
X4703396Y-1659150D02*
X4722444Y-1668674D01*
X4722444Y-1668674D02*
X4731968Y-1687722D01*
X4731968Y-1687722D02*
X4731968Y-1706769D01*
X4731968Y-1706769D02*
X4636730Y-1725817D01*
X4808158Y-1782960D02*
X4827206Y-1792484D01*
X4827206Y-1792484D02*
X4865301Y-1792484D01*
X4865301Y-1792484D02*
X4884349Y-1782960D01*
X4884349Y-1782960D02*
X4893873Y-1763912D01*
X4893873Y-1763912D02*
X4893873Y-1754388D01*
X4893873Y-1754388D02*
X4884349Y-1735341D01*
X4884349Y-1735341D02*
X4865301Y-1725817D01*
X4865301Y-1725817D02*
X4836730Y-1725817D01*
X4836730Y-1725817D02*
X4817682Y-1716293D01*
X4817682Y-1716293D02*
X4808158Y-1697246D01*
X4808158Y-1697246D02*
X4808158Y-1687722D01*
X4808158Y-1687722D02*
X4817682Y-1668674D01*
X4817682Y-1668674D02*
X4836730Y-1659150D01*
X4836730Y-1659150D02*
X4865301Y-1659150D01*
X4865301Y-1659150D02*
X4884349Y-1668674D01*
X4960539Y-1868674D02*
X4970063Y-1859150D01*
X4970063Y-1859150D02*
X4989111Y-1830579D01*
X4989111Y-1830579D02*
X4998634Y-1811531D01*
X4998634Y-1811531D02*
X5008158Y-1782960D01*
X5008158Y-1782960D02*
X5017682Y-1735341D01*
X5017682Y-1735341D02*
X5017682Y-1697246D01*
X5017682Y-1697246D02*
X5008158Y-1649627D01*
X5008158Y-1649627D02*
X4998634Y-1621055D01*
X4998634Y-1621055D02*
X4989111Y-1602008D01*
X4989111Y-1602008D02*
X4970063Y-1573436D01*
X4970063Y-1573436D02*
X4960539Y-1563912D01*
M02*
