%TF.GenerationSoftware,KiCad,Pcbnew,10.0.6*%
%TF.CreationDate,2026-09-15T00:00:00+00:00*%
%TF.ProjectId,lorenz,6c6f7265-6e7a-42e6-9b69-6361645f7063,rev?*%
%TF.SameCoordinates,Original*%
%TF.FileFunction,Soldermask,Bot*%
%TF.FilePolarity,Negative*%
%FSLAX46Y46*%
G04 Gerber Fmt 4.6, Leading zero omitted, Abs format (unit mm)*
G04 Created by KiCad (PCBNEW 10.0.6) date 2026-09-15*
%MOMM*%
%LPD*%
G01*
G04 APERTURE LIST*
%ADD10C,0.650000*%
%ADD11O,1.000000X2.100000*%
%ADD12O,1.000000X1.600000*%
%ADD13C,2.400000*%
%ADD14C,2.600000*%
%ADD15R,1.600000X1.600000*%
%ADD16C,1.600000*%
%ADD17C,1.500000*%
%ADD18C,3.200000*%
%ADD19C,2.200000*%
%ADD20R,1.800000X1.800000*%
%ADD21C,1.800000*%
G04 APERTURE END LIST*
D10*
%TO.C,J1*%
X10160000Y6750000D03*
X15940000Y6750000D03*
D11*
X8730000Y7280000D03*
D12*
X8730000Y3100000D03*
D11*
X17370000Y7280000D03*
D12*
X17370000Y3100000D03*
%TD*%
D13*
%TO.C,J3*%
X93000000Y56000000D03*
D14*
X89000000Y60000000D03*
X89000000Y52000000D03*
X97000000Y60000000D03*
X97000000Y52000000D03*
%TD*%
D15*
%TO.C,RV1*%
X9000000Y51460000D03*
D16*
X11540000Y54000000D03*
X9000000Y56540000D03*
%TD*%
D17*
%TO.C,TP5*%
X30000000Y37000000D03*
%TD*%
%TO.C,TP9*%
X57000000Y20500000D03*
%TD*%
D18*
%TO.C,MH4*%
X96000000Y4000000D03*
%TD*%
D17*
%TO.C,TP7*%
X24000000Y20500000D03*
%TD*%
%TO.C,TP8*%
X50000000Y20500000D03*
%TD*%
%TO.C,TP4*%
X30000000Y56000000D03*
%TD*%
D18*
%TO.C,MH2*%
X96000000Y96000000D03*
%TD*%
D19*
%TO.C,TP14*%
X89460000Y20500000D03*
X94540000Y20500000D03*
%TD*%
D17*
%TO.C,TP10*%
X64000000Y20500000D03*
%TD*%
%TO.C,TP6*%
X88000000Y40000000D03*
%TD*%
D18*
%TO.C,MH1*%
X4000000Y96000000D03*
%TD*%
D19*
%TO.C,TP16*%
X53460000Y28000000D03*
X58540000Y28000000D03*
%TD*%
D13*
%TO.C,J5*%
X7000000Y81000000D03*
D14*
X11000000Y77000000D03*
X11000000Y85000000D03*
X3000000Y77000000D03*
X3000000Y85000000D03*
%TD*%
D19*
%TO.C,TP15*%
X88460000Y9500000D03*
X93540000Y9500000D03*
%TD*%
D17*
%TO.C,TP12*%
X78000000Y20500000D03*
%TD*%
%TO.C,TP1*%
X80000000Y81000000D03*
%TD*%
%TO.C,TP13*%
X32000000Y20500000D03*
%TD*%
D20*
%TO.C,U5*%
X37920000Y6000000D03*
D21*
X40460000Y6000000D03*
X45540000Y6000000D03*
X48080000Y6000000D03*
X50620000Y6000000D03*
%TD*%
D18*
%TO.C,MH3*%
X4000000Y4000000D03*
%TD*%
D17*
%TO.C,TP3*%
X80000000Y31000000D03*
%TD*%
D13*
%TO.C,J2*%
X93000000Y81000000D03*
D14*
X89000000Y85000000D03*
X89000000Y77000000D03*
X97000000Y85000000D03*
X97000000Y77000000D03*
%TD*%
D17*
%TO.C,TP11*%
X71000000Y20500000D03*
%TD*%
%TO.C,TP2*%
X80000000Y56000000D03*
%TD*%
D13*
%TO.C,J4*%
X93000000Y31000000D03*
D14*
X89000000Y35000000D03*
X89000000Y27000000D03*
X97000000Y35000000D03*
X97000000Y27000000D03*
%TD*%
D15*
%TO.C,RV2*%
X9000000Y66460000D03*
D16*
X11540000Y69000000D03*
X9000000Y71540000D03*
%TD*%
M02*
