M48
; DRILL file KiCad 10.0.6 date 2026-09-15
; FORMAT={-:-/ absolute / metric / decimal}
; #@! TF.CreationDate,2026-09-15T00:00:00+00:00
; #@! TF.GenerationSoftware,Kicad,Pcbnew,10.0.6
; #@! TF.FileFunction,Plated,1,2,PTH
FMAT,2
METRIC
; #@! TA.AperFunction,Plated,PTH,ViaDrill
T1C0.300
; #@! TA.AperFunction,Plated,PTH,ComponentDrill
T2C0.600
; #@! TA.AperFunction,Plated,PTH,ComponentDrill
T3C0.700
; #@! TA.AperFunction,Plated,PTH,ComponentDrill
T4C1.000
; #@! TA.AperFunction,Plated,PTH,ComponentDrill
T5C1.100
; #@! TA.AperFunction,Plated,PTH,ComponentDrill
T6C1.300
; #@! TA.AperFunction,Plated,PTH,ComponentDrill
T7C1.400
%
G90
G05
T1
X4.2Y20.2
X4.2Y16.6
X4.2Y13.0
X4.2Y9.4
X5.0Y90.6
X5.0Y86.2
X5.0Y81.8
X5.0Y77.4
X5.0Y73.0
X5.0Y68.6
X5.0Y64.2
X5.0Y59.8
X5.0Y55.4
X5.0Y51.0
X5.0Y46.6
X5.0Y42.2
X5.0Y37.8
X5.0Y33.4
X5.0Y29.0
X5.0Y24.6
X7.8Y20.2
X7.8Y16.6
X7.8Y13.0
X7.8Y2.2
X8.2Y10.4
X8.8Y6.2
X9.2Y11.4
X9.2Y10.4
X9.4Y95.0
X9.4Y90.6
X9.4Y86.2
X9.4Y81.8
X9.4Y77.4
X9.4Y73.0
X9.4Y68.6
X9.4Y64.2
X9.4Y59.8
X9.4Y55.4
X9.4Y51.0
X9.4Y46.6
X9.4Y42.2
X9.4Y37.8
X9.4Y33.4
X9.4Y29.0
X9.4Y24.6
X11.4Y20.2
X11.4Y16.6
X11.4Y5.8
X11.4Y2.2
X11.8Y14.6
X13.8Y95.0
X13.8Y90.6
X13.8Y86.2
X13.8Y81.8
X13.8Y77.4
X13.8Y73.0
X13.8Y68.6
X13.8Y64.2
X13.8Y59.8
X13.8Y55.4
X13.8Y51.0
X13.8Y46.6
X13.8Y42.2
X13.8Y37.8
X13.8Y33.4
X13.8Y29.0
X13.8Y24.6
X14.8Y14.6
X15.0Y20.2
X15.0Y16.6
X15.0Y5.8
X15.0Y2.2
X17.4Y66.6
X17.4Y7.8
X17.4Y6.2
X18.0Y10.4
X18.2Y95.0
X18.2Y90.6
X18.2Y86.2
X18.2Y81.8
X18.2Y77.4
X18.2Y59.8
X18.2Y55.4
X18.2Y51.0
X18.2Y37.8
X18.2Y33.4
X18.2Y29.0
X18.2Y24.6
X18.6Y20.2
X18.6Y16.6
X18.6Y13.0
X18.6Y9.4
X18.6Y5.8
X18.6Y2.2
X19.2Y71.6
X19.2Y46.6
X19.2Y40.4
X21.0Y48.0
X22.2Y9.4
X22.2Y5.8
X22.2Y2.2
X22.6Y95.0
X22.6Y90.6
X22.6Y86.2
X22.6Y81.8
X22.6Y73.0
X22.6Y68.6
X22.6Y59.8
X22.6Y55.4
X22.6Y51.0
X22.6Y37.8
X22.6Y33.4
X22.6Y29.0
X22.6Y24.6
X24.6Y41.6
X24.8Y67.8
X25.8Y9.4
X25.8Y5.8
X25.8Y2.2
X26.0Y20.0
X27.0Y95.0
X27.0Y90.6
X27.0Y86.2
X27.0Y81.8
X27.0Y73.0
X27.0Y51.0
X27.0Y37.8
X27.0Y33.4
X27.0Y29.0
X27.0Y24.6
X28.8Y41.6
X29.4Y20.2
X29.4Y16.6
X29.4Y9.4
X29.4Y5.8
X29.4Y2.2
X30.0Y44.2
X30.0Y15.0
X30.2Y41.6
X30.8Y60.0
X30.8Y40.2
X31.2Y50.4
X31.4Y95.0
X31.4Y90.6
X31.4Y86.2
X31.4Y81.8
X31.4Y73.0
X31.4Y64.2
X31.4Y46.6
X31.4Y33.4
X31.4Y29.0
X31.4Y24.6
X31.6Y76.8
X31.6Y35.0
X32.0Y61.6
X33.0Y16.6
X33.0Y15.0
X33.0Y9.4
X33.0Y5.8
X33.0Y2.2
X33.2Y52.2
X33.4Y54.0
X34.4Y45.6
X34.4Y43.8
X35.8Y95.0
X35.8Y90.6
X35.8Y86.2
X35.8Y81.8
X35.8Y73.0
X35.8Y64.2
X35.8Y59.8
X35.8Y55.4
X35.8Y51.0
X35.8Y42.2
X35.8Y33.4
X35.8Y29.0
X35.8Y24.6
X36.4Y47.6
X36.6Y16.6
X36.6Y13.0
X36.6Y2.2
X37.0Y21.2
X38.4Y35.8
X39.2Y32.8
X40.2Y95.0
X40.2Y90.6
X40.2Y86.2
X40.2Y81.8
X40.2Y51.0
X40.2Y46.6
X40.2Y29.0
X40.2Y24.6
X40.2Y20.2
X40.2Y16.6
X40.2Y13.0
X40.2Y9.4
X40.2Y2.2
X40.4Y8.4
X41.2Y77.4
X41.2Y38.6
X41.6Y32.2
X42.0Y36.0
X42.0Y18.0
X42.0Y15.0
X42.2Y60.8
X42.2Y21.0
X42.4Y83.8
X43.4Y40.8
X43.8Y36.2
X43.8Y21.0
X44.0Y24.0
X44.0Y18.0
X44.0Y15.0
X44.6Y95.0
X44.6Y90.6
X44.6Y77.4
X44.6Y51.0
X44.6Y46.6
X44.6Y42.2
X44.6Y29.0
X44.6Y11.4
X44.6Y2.6
X45.6Y58.6
X46.2Y33.8
X46.6Y56.2
X47.0Y37.0
X48.0Y8.4
X48.2Y35.8
X48.6Y65.4
X49.0Y95.0
X49.0Y90.6
X49.0Y81.8
X49.0Y77.4
X49.0Y73.0
X49.0Y68.6
X49.0Y59.8
X49.0Y51.0
X49.0Y46.6
X49.0Y29.0
X49.0Y24.6
X49.0Y20.2
X49.0Y15.8
X49.0Y11.4
X49.0Y2.6
X52.0Y39.6
X52.0Y24.0
X53.4Y95.0
X53.4Y90.6
X53.4Y46.6
X53.4Y33.4
X53.4Y24.6
X53.4Y15.8
X53.4Y2.6
X54.4Y83.2
X56.6Y35.8
X57.8Y95.0
X57.8Y90.6
X57.8Y81.8
X57.8Y77.4
X57.8Y73.0
X57.8Y33.4
X57.8Y29.0
X57.8Y2.6
X58.2Y51.2
X58.8Y8.2
X59.0Y15.0
X59.0Y6.0
X59.2Y44.0
X59.4Y83.2
X59.4Y35.8
X62.2Y95.0
X62.2Y90.6
X62.2Y86.2
X62.2Y81.8
X62.2Y77.4
X62.2Y73.0
X62.2Y64.2
X62.2Y33.4
X62.2Y29.0
X62.2Y24.6
X62.2Y15.8
X62.2Y11.4
X62.2Y2.6
X63.0Y52.8
X64.4Y43.6
X64.8Y56.6
X64.8Y52.8
X65.0Y41.4
X66.6Y95.0
X66.6Y90.6
X66.6Y86.2
X66.6Y81.8
X66.6Y77.4
X66.6Y73.0
X66.6Y33.4
X66.6Y29.0
X66.6Y15.8
X66.6Y11.4
X66.6Y2.6
X66.8Y44.0
X67.4Y52.0
X68.6Y57.0
X68.8Y40.8
X70.0Y57.0
X70.0Y35.2
X70.0Y33.0
X70.0Y31.0
X70.4Y29.4
X71.0Y95.0
X71.0Y90.6
X71.0Y86.2
X71.0Y81.8
X71.0Y77.4
X71.0Y73.0
X71.0Y64.2
X71.2Y50.2
X71.2Y39.2
X71.2Y36.4
X71.8Y6.4
X72.0Y21.2
X72.2Y54.8
X72.2Y27.2
X73.6Y68.6
X73.6Y29.6
X74.0Y3.4
X75.4Y95.0
X75.4Y90.6
X75.4Y86.2
X75.4Y81.8
X75.4Y77.4
X75.4Y59.8
X75.4Y51.0
X75.4Y46.6
X75.4Y37.8
X75.4Y20.2
X75.4Y15.8
X75.8Y11.8
X76.0Y73.0
X76.4Y10.0
X76.8Y39.0
X77.0Y20.0
X77.6Y72.6
X77.6Y31.2
X77.8Y25.2
X78.0Y79.0
X78.0Y37.4
X78.0Y23.0
X79.0Y34.2
X79.2Y63.0
X79.8Y95.0
X79.8Y90.6
X79.8Y86.2
X79.8Y81.8
X79.8Y64.2
X79.8Y59.8
X79.8Y51.0
X79.8Y46.6
X79.8Y37.8
X79.8Y15.8
X79.8Y11.4
X79.8Y7.0
X80.0Y73.0
X80.0Y41.8
X80.2Y77.2
X80.4Y69.0
X84.0Y16.0
X84.2Y95.0
X84.2Y90.6
X84.2Y86.2
X84.2Y77.4
X84.2Y73.0
X84.2Y64.2
X84.2Y59.8
X84.2Y29.0
X84.2Y11.4
X85.0Y49.0
X85.0Y46.8
X85.0Y20.0
X86.0Y30.4
X86.0Y11.8
X87.0Y3.6
X88.6Y95.0
X88.6Y90.6
X88.6Y73.0
X88.6Y68.6
X88.6Y64.2
X88.6Y55.4
X88.6Y42.2
X88.6Y33.4
X88.6Y24.6
X88.6Y15.8
X88.6Y7.0
X88.6Y2.6
X89.0Y86.6
X89.0Y78.6
X89.0Y61.6
X89.0Y53.6
X89.0Y28.6
X89.0Y20.4
X90.6Y35.0
X90.8Y43.2
X93.0Y95.0
X93.0Y90.6
X93.0Y86.2
X93.0Y77.4
X93.0Y73.0
X93.0Y68.6
X93.0Y64.2
X93.0Y59.8
X93.0Y51.0
X93.0Y37.8
X93.0Y33.4
X93.0Y24.6
X93.0Y20.2
X93.0Y7.0
X93.0Y2.6
X94.0Y12.0
X97.0Y86.6
X97.0Y78.6
X97.0Y61.6
X97.0Y53.6
X97.0Y36.6
X97.0Y28.6
X97.0Y20.0
X97.4Y90.6
X97.4Y81.8
X97.4Y73.0
X97.4Y68.6
X97.4Y64.2
X97.4Y55.4
X97.4Y46.6
X97.4Y42.2
X97.4Y37.8
X97.4Y33.4
X97.4Y24.6
X97.4Y15.8
X97.4Y11.4
X97.4Y7.0
T3
X32.0Y20.0
X37.0Y20.0
X45.5Y68.5
X48.0Y43.5
X52.0Y20.0
X57.0Y20.0
X62.0Y20.0
X67.0Y20.0
X72.0Y20.0
X74.0Y26.5
X86.0Y86.0
X86.0Y61.0
X86.0Y36.0
T4
X37.92Y7.0
X40.46Y7.0
X45.54Y7.0
X48.08Y7.0
X50.62Y7.0
T5
X45.46Y24.0
X50.54Y24.0
X78.46Y20.0
X83.54Y20.0
X90.46Y20.0
X95.54Y20.0
T6
X93.0Y81.0
X93.0Y56.0
X93.0Y31.0
T7
X89.0Y85.0
X89.0Y77.0
X89.0Y60.0
X89.0Y52.0
X89.0Y35.0
X89.0Y27.0
X97.0Y85.0
X97.0Y77.0
X97.0Y60.0
X97.0Y52.0
X97.0Y35.0
X97.0Y27.0
T2
X8.73Y9.68G85X8.73Y8.58
G05
X8.73Y5.25G85X8.73Y4.65
G05
X17.37Y9.68G85X17.37Y8.58
G05
X17.37Y5.25G85X17.37Y4.65
G05
M30
