%TF.GenerationSoftware,KiCad,Pcbnew,10.0.6*%
%TF.CreationDate,2026-09-15T13:02:52-07:00*%
%TF.ProjectId,lorenz,6c6f7265-6e7a-42e6-9b69-6361645f7063,rev?*%
%TF.SameCoordinates,Original*%
%TF.FileFunction,Copper,L2,Bot*%
%TF.FilePolarity,Positive*%
%FSLAX46Y46*%
G04 Gerber Fmt 4.6, Leading zero omitted, Abs format (unit mm)*
G04 Created by KiCad (PCBNEW 10.0.6) date 2026-09-15 13:02:52*
%MOMM*%
%LPD*%
G01*
G04 APERTURE LIST*
%TA.AperFunction,ComponentPad*%
%ADD10C,2.400000*%
%TD*%
%TA.AperFunction,ComponentPad*%
%ADD11C,2.600000*%
%TD*%
%TA.AperFunction,ComponentPad*%
%ADD12R,1.800000X1.800000*%
%TD*%
%TA.AperFunction,ComponentPad*%
%ADD13C,1.800000*%
%TD*%
%TA.AperFunction,ComponentPad*%
%ADD14O,1.000000X2.100000*%
%TD*%
%TA.AperFunction,ComponentPad*%
%ADD15O,1.000000X1.600000*%
%TD*%
%TA.AperFunction,ViaPad*%
%ADD16C,0.600000*%
%TD*%
%TA.AperFunction,Conductor*%
%ADD17C,0.300000*%
%TD*%
G04 APERTURE END LIST*
D10*
%TO.P,J2,1*%
%TO.N,Net-(J2-In)*%
X93000000Y80000000D03*
D11*
%TO.P,J2,2*%
%TO.N,GND*%
X89000000Y84000000D03*
X89000000Y76000000D03*
X97000000Y84000000D03*
X97000000Y76000000D03*
%TD*%
D10*
%TO.P,J4,1*%
%TO.N,Net-(J4-In)*%
X93000000Y28000000D03*
D11*
%TO.P,J4,2*%
%TO.N,GND*%
X89000000Y32000000D03*
X89000000Y24000000D03*
X97000000Y32000000D03*
X97000000Y24000000D03*
%TD*%
D12*
%TO.P,U5,1*%
%TO.N,+5V*%
X48000000Y9000000D03*
D13*
%TO.P,U5,2*%
%TO.N,GND*%
X50540000Y9000000D03*
%TO.P,U5,4*%
%TO.N,-15V*%
X55620000Y9000000D03*
%TO.P,U5,5*%
%TO.N,GND*%
X58160000Y9000000D03*
%TO.P,U5,6*%
%TO.N,+15V*%
X60700000Y9000000D03*
%TD*%
D10*
%TO.P,J3,1*%
%TO.N,Net-(J3-In)*%
X93000000Y54000000D03*
D11*
%TO.P,J3,2*%
%TO.N,GND*%
X89000000Y58000000D03*
X89000000Y50000000D03*
X97000000Y58000000D03*
X97000000Y50000000D03*
%TD*%
D14*
%TO.P,J1,SH*%
%TO.N,GND*%
X8730000Y9130000D03*
D15*
X8730000Y4950000D03*
D14*
X17370000Y9130000D03*
D15*
X17370000Y4950000D03*
%TD*%
D16*
%TO.N,+12V*%
X78000000Y34400001D03*
X26600000Y71600000D03*
X80000000Y72000000D03*
X80800000Y30000000D03*
X84000000Y3400000D03*
X26600000Y52800000D03*
X84000000Y16000000D03*
%TO.N,GND*%
X35800000Y95000000D03*
X97400000Y37800000D03*
X13800000Y24600000D03*
X22600000Y37800000D03*
X22600000Y24600000D03*
X49000000Y77400000D03*
X31400000Y68600000D03*
X57800000Y64200000D03*
X88600000Y73000000D03*
X84200000Y73000000D03*
X22600000Y86200000D03*
X88600000Y64200000D03*
X93000000Y51000000D03*
X27000000Y20200000D03*
X35800000Y81800000D03*
X89000000Y51600000D03*
X49000000Y7000000D03*
X66599999Y64200000D03*
X18200000Y55400000D03*
X57800000Y29000000D03*
X5000000Y29000000D03*
X89000000Y33600000D03*
X53400000Y29000000D03*
X50600000Y10400000D03*
X49000000Y90600000D03*
X49000000Y11400000D03*
X49000000Y15800000D03*
X84000000Y18000000D03*
X66599999Y42200000D03*
X75400000Y90600000D03*
X9400000Y55400000D03*
X66599999Y24600000D03*
X35800000Y20200000D03*
X57800000Y20200000D03*
X9200000Y11400000D03*
X71000000Y7000000D03*
X35800000Y24600000D03*
X44600000Y90600000D03*
X13800000Y95000000D03*
X79800000Y86200000D03*
X75400000Y2600000D03*
X66599999Y20200000D03*
X62200000Y90600000D03*
X49000000Y2600000D03*
X66599999Y51000000D03*
X62200000Y86200000D03*
X27000000Y2600000D03*
X84200000Y46600000D03*
X89000000Y85600000D03*
X71000000Y20200000D03*
X40200000Y90600000D03*
X53400000Y7000000D03*
X93000000Y33400001D03*
X44600000Y59800000D03*
X53400000Y95000000D03*
X13800000Y64200000D03*
X71000000Y64200000D03*
X13800000Y81800000D03*
X9400000Y90600000D03*
X84200000Y33400001D03*
X66599999Y73000000D03*
X9200000Y10400000D03*
X35800000Y64200000D03*
X9400000Y51000000D03*
X53400000Y11400000D03*
X31400000Y20200000D03*
X62200000Y73000000D03*
X13800000Y20200000D03*
X57800000Y95000000D03*
X31400000Y7000000D03*
X93000000Y95000000D03*
X88600000Y7000000D03*
X35800000Y29000000D03*
X22600000Y42200000D03*
X66599999Y11400000D03*
X93000000Y20200000D03*
X31400000Y95000000D03*
X76800000Y36000000D03*
X9400000Y77400000D03*
X97000000Y25600000D03*
X5000000Y33400001D03*
X57800000Y42200000D03*
X79800000Y11400000D03*
X22600000Y29000000D03*
X58200000Y10400000D03*
X9400000Y24600000D03*
X22600000Y55400000D03*
X84200000Y51000000D03*
X8800000Y6200000D03*
X18000000Y10400000D03*
X22600000Y20200000D03*
X5000000Y81800000D03*
X11800000Y14600000D03*
X93000000Y90600000D03*
X49000000Y24600000D03*
X31600000Y57000000D03*
X49000000Y46600000D03*
X97400000Y55400000D03*
X31400000Y29000000D03*
X27000000Y90600000D03*
X27000000Y95000000D03*
X97000000Y59600000D03*
X66599999Y95000000D03*
X62200000Y15800000D03*
X57800000Y68600000D03*
X49000000Y51000000D03*
X57800000Y46600000D03*
X57800000Y11400000D03*
X94000000Y18000000D03*
X5000000Y77400000D03*
X13800000Y68600000D03*
X97400000Y73000000D03*
X53400000Y2600000D03*
X31400000Y24600000D03*
X93000000Y59800000D03*
X22600000Y90600000D03*
X22600000Y11400000D03*
X35800000Y73000000D03*
X5000000Y68600000D03*
X13800000Y51000000D03*
X88600000Y37800000D03*
X49000000Y37800000D03*
X27000000Y86200000D03*
X18200000Y86200000D03*
X44600000Y73000000D03*
X93000000Y42200000D03*
X84200000Y77400000D03*
X9400000Y95000000D03*
X71000000Y24600000D03*
X44600000Y24600000D03*
X97000000Y51600000D03*
X79800000Y81800000D03*
X97400000Y20200000D03*
X97000000Y33600000D03*
X13800000Y7000000D03*
X27000000Y29000000D03*
X22600000Y73000000D03*
X9400000Y81800000D03*
X31800000Y52200000D03*
X53400000Y37800000D03*
X53400000Y24600000D03*
X84200000Y95000000D03*
X31400000Y90600000D03*
X66599999Y29000000D03*
X24800000Y40400000D03*
X35800000Y51000000D03*
X66599999Y2600000D03*
X57800000Y77400000D03*
X84200000Y81800000D03*
X18200000Y24600000D03*
X27000000Y15800000D03*
X93000000Y24600000D03*
X5000000Y11400000D03*
X31400000Y75800000D03*
X97400000Y64200000D03*
X18200000Y15800000D03*
X70000000Y17000000D03*
X71000000Y77400000D03*
X35800000Y7000000D03*
X49000000Y29000000D03*
X8199999Y10400000D03*
X44600000Y46600000D03*
X18200000Y59800000D03*
X70000000Y5000000D03*
X97000000Y77600000D03*
X5000000Y59800000D03*
X93000000Y46600000D03*
X13800000Y37800000D03*
X13800000Y73000000D03*
X9400000Y37800000D03*
X5000000Y2600000D03*
X97400000Y95000000D03*
X71000000Y59800000D03*
X93000000Y77400000D03*
X35800000Y11400000D03*
X9400000Y20200000D03*
X75400000Y24600000D03*
X13800000Y29000000D03*
X18200000Y33400001D03*
X97000000Y85600000D03*
X31400000Y37800000D03*
X44600000Y33400001D03*
X14800000Y14600000D03*
X15600000Y44200000D03*
X19200000Y65000000D03*
X40200000Y29000000D03*
X49000000Y73000000D03*
X93000000Y73000000D03*
X62200000Y2600000D03*
X18200000Y77400000D03*
X17400000Y6200000D03*
X9400000Y15800000D03*
X40200000Y20200000D03*
X79200000Y60000000D03*
X31400000Y86200000D03*
X5000000Y46600000D03*
X13800000Y42200000D03*
X5000000Y64200000D03*
X27000000Y33400001D03*
X22600000Y15800000D03*
X35800000Y90600000D03*
X31400000Y81800000D03*
X62200000Y20200000D03*
X93000000Y68600000D03*
X5000000Y20200000D03*
X5000000Y90600000D03*
X18200000Y81800000D03*
X44600000Y77400000D03*
X79800000Y46600000D03*
X57800000Y15800000D03*
X71000000Y90600000D03*
X66599999Y46600000D03*
X97400000Y11400000D03*
X49000000Y55400000D03*
X9400000Y59800000D03*
X44600000Y95000000D03*
X79600000Y24200000D03*
X5000000Y7000000D03*
X62200000Y77400000D03*
X84200000Y86200000D03*
X5000000Y37800000D03*
X88600000Y95000000D03*
X5000000Y73000000D03*
X24800000Y66400000D03*
X27000000Y81800000D03*
X13800000Y77400000D03*
X49000000Y20200000D03*
X97400000Y42200000D03*
X84200000Y29000000D03*
X53400000Y20200000D03*
X18200000Y20200000D03*
X79800000Y42200000D03*
X18200000Y95000000D03*
X75400000Y95000000D03*
X31400000Y55400000D03*
X93000000Y2600000D03*
X44600000Y68600000D03*
X5000000Y15800000D03*
X75400000Y64200000D03*
X31400000Y2600000D03*
X40200000Y86200000D03*
X76200000Y11000000D03*
X49000000Y64200000D03*
X9400000Y73000000D03*
X97400000Y81800000D03*
X79800000Y37800000D03*
X22600000Y33400001D03*
X62200000Y95000000D03*
X71000000Y11400000D03*
X75400000Y15800000D03*
X31400000Y11400000D03*
X97400000Y29000000D03*
X9400000Y86200000D03*
X62200000Y68600000D03*
X79800000Y7000000D03*
X5000000Y42200000D03*
X13800000Y90600000D03*
X93000000Y86200000D03*
X93000000Y7000000D03*
X89000000Y77600000D03*
X18200000Y2600000D03*
X22600000Y64200000D03*
X53400000Y46600000D03*
X44600000Y42200000D03*
X44600000Y2600000D03*
X15600000Y37800000D03*
X31400000Y46600000D03*
X86000000Y12800000D03*
X93000000Y64200000D03*
X84200000Y37800000D03*
X57800000Y90600000D03*
X9400000Y33400001D03*
X5000000Y24600000D03*
X88600000Y46600000D03*
X66599999Y86200000D03*
X22600000Y2600000D03*
X88600000Y2600000D03*
X84200000Y42200000D03*
X97400000Y15800000D03*
X15600000Y70200000D03*
X22600000Y95000000D03*
X40200000Y95000000D03*
X44600000Y20200000D03*
X79800000Y95000000D03*
X35800000Y86200000D03*
X13800000Y55400000D03*
X62200000Y24600000D03*
X57800000Y2600000D03*
X81000000Y68000000D03*
X93000000Y11400000D03*
X49000000Y42200000D03*
X53400000Y90600000D03*
X35800000Y42200000D03*
X18200000Y51000000D03*
X84200000Y20200000D03*
X88600000Y90600000D03*
X84200000Y90600000D03*
X5000000Y51000000D03*
X31000000Y17000000D03*
X9400000Y68600000D03*
X13800000Y46600000D03*
X66599999Y37800000D03*
X27000000Y7000000D03*
X57800000Y51000000D03*
X79800000Y51000000D03*
X13800000Y33400001D03*
X9400000Y46600000D03*
X40200000Y11400000D03*
X88600000Y15800000D03*
X5000000Y55400000D03*
X78000000Y20000000D03*
X78000000Y78000000D03*
X44600000Y86200000D03*
X97400000Y90600000D03*
X44600000Y7000000D03*
X97400000Y46600000D03*
X40200000Y7000000D03*
X66599999Y90600000D03*
X22600000Y7000000D03*
X53400000Y42200000D03*
X49000000Y95000000D03*
X79800000Y55400000D03*
X13800000Y59800000D03*
X88600000Y68600000D03*
X97400000Y7000000D03*
X35800000Y2600000D03*
X75400000Y86200000D03*
X97400000Y68600000D03*
X75400000Y20200000D03*
X22600000Y81800000D03*
X35800000Y55400000D03*
X73600000Y25400000D03*
X57800000Y24600000D03*
X18200000Y90600000D03*
X9400000Y2600000D03*
X22600000Y68600000D03*
X13800000Y15800000D03*
X18200000Y29000000D03*
X31600000Y32000000D03*
X13800000Y86200000D03*
X27000000Y11400000D03*
X44600000Y15800000D03*
X9400000Y42200000D03*
X27000000Y24600000D03*
X93000000Y37800000D03*
X71000000Y68600000D03*
X62200000Y29000000D03*
X66599999Y59800000D03*
X89000000Y25600000D03*
X88600000Y42200000D03*
X75400000Y81800000D03*
X53400000Y51000000D03*
X18600000Y9400000D03*
X9400000Y29000000D03*
X53400000Y55400000D03*
X73800000Y69400000D03*
X17400000Y7800000D03*
X53400000Y15800000D03*
X57800000Y73000000D03*
X71000000Y86200000D03*
X40200000Y24600000D03*
X79800000Y90600000D03*
X94000000Y3000000D03*
X5000000Y95000000D03*
X84200000Y24600000D03*
X44600000Y81800000D03*
X79800000Y2600000D03*
X40200000Y37800000D03*
X13800000Y2600000D03*
X9400000Y64200000D03*
X40200000Y2600000D03*
X49000000Y68600000D03*
X35000000Y17000000D03*
X40200000Y51000000D03*
X71000000Y95000000D03*
X89000000Y59600000D03*
X35800000Y68600000D03*
X5000000Y86200000D03*
%TO.N,Net-(U2A--)*%
X55200000Y35800000D03*
X61400000Y33000000D03*
X42000000Y35000000D03*
X59400000Y35000000D03*
X42000000Y29200000D03*
%TO.N,/x*%
X70400000Y46200000D03*
X80000000Y76200000D03*
X41200000Y77200000D03*
X79800000Y66800000D03*
X62000000Y81400000D03*
X70400000Y53400000D03*
X19400000Y40200000D03*
X42000000Y59000000D03*
%TO.N,Net-(U1A--)*%
X73600000Y71800000D03*
X68200000Y77200000D03*
%TO.N,-12V*%
X75600000Y26000000D03*
X75600000Y61600000D03*
X28800000Y57400000D03*
X28800000Y39200000D03*
%TO.N,/-y*%
X42400000Y82800000D03*
X48600000Y59400000D03*
%TO.N,Net-(C2-Pad1)*%
X54400000Y82200000D03*
X61200000Y53800000D03*
%TO.N,/z*%
X48600000Y33400001D03*
X30000000Y52000000D03*
X63800000Y40200000D03*
X46200000Y31000000D03*
%TO.N,Net-(C3-Pad1)*%
X59400000Y82200000D03*
X61600000Y46200000D03*
%TD*%
%TO.N,+12V*%
D17*
X80800000Y19200000D02*
X84000000Y16000000D01*
X80000000Y72000000D02*
X78000000Y70000000D01*
X80800000Y30000000D02*
X80800000Y19200000D01*
X26600000Y52800000D02*
X26600000Y71600000D01*
X78000000Y70000000D02*
X78000000Y34400001D01*
X84000000Y3400000D02*
X84000000Y16000000D01*
%TO.N,Net-(U2A--)*%
X42000000Y29200000D02*
X42000000Y35000000D01*
X55600000Y35400001D02*
X59000000Y35400001D01*
X59400000Y35000000D02*
X61400000Y33000000D01*
X59000000Y35400001D02*
X59400000Y35000000D01*
X55200000Y35800000D02*
X55600000Y35400001D01*
%TO.N,/x*%
X72000000Y81400000D02*
X62000000Y81400000D01*
X80800000Y71400000D02*
X80800000Y72600000D01*
X19400000Y44200000D02*
X19400000Y40200000D01*
X79800000Y66800000D02*
X79800000Y70400000D01*
X41200000Y58200000D02*
X28200000Y58200000D01*
X27400000Y57400000D02*
X27400000Y52200000D01*
X27400000Y52200000D02*
X19400000Y44200000D01*
X79800000Y70400000D02*
X80800000Y71400000D01*
X80000000Y76200000D02*
X78600000Y74800000D01*
X41200000Y77200000D02*
X41200000Y59800000D01*
X80800000Y72600000D02*
X72000000Y81400000D01*
X42000000Y59000000D02*
X41200000Y58200000D01*
X28200000Y58200000D02*
X27400000Y57400000D01*
X70400000Y46200000D02*
X70400000Y53400000D01*
X41200000Y59800000D02*
X42000000Y59000000D01*
%TO.N,Net-(U1A--)*%
X68200000Y77200000D02*
X73600000Y71800000D01*
%TO.N,-12V*%
X75600000Y61600000D02*
X75600000Y26000000D01*
X28800000Y57400000D02*
X28800000Y39200000D01*
%TO.N,/-y*%
X42400000Y65600000D02*
X48600000Y59400000D01*
X42400000Y82800000D02*
X42400000Y65600000D01*
%TO.N,Net-(C2-Pad1)*%
X54400000Y82200000D02*
X54400000Y60600000D01*
X54400000Y60600000D02*
X61200000Y53800000D01*
%TO.N,/z*%
X48600000Y33400001D02*
X30000000Y52000000D01*
X51400000Y33400001D02*
X48600000Y33400001D01*
X46200000Y31000000D02*
X48600000Y33400001D01*
X63800000Y40200000D02*
X60200000Y36600000D01*
X54600000Y36600000D02*
X51400000Y33400001D01*
X60200000Y36600000D02*
X54600000Y36600000D01*
%TO.N,Net-(C3-Pad1)*%
X62000000Y53200000D02*
X61600000Y52800000D01*
X62000000Y54400000D02*
X62000000Y53200000D01*
X59400000Y82200000D02*
X59400000Y57000000D01*
X61600000Y52800000D02*
X61600000Y46200000D01*
X59400000Y57000000D02*
X62000000Y54400000D01*
%TD*%
%TA.AperFunction,Conductor*%
%TO.N,GND*%
G36*
X97002992Y99499319D02*
G01*
X97295309Y99481638D01*
X97307164Y99480198D01*
X97592280Y99427949D01*
X97603882Y99425089D01*
X97880623Y99338853D01*
X97891786Y99334620D01*
X98152200Y99217417D01*
X98156118Y99215653D01*
X98166690Y99210105D01*
X98414770Y99060136D01*
X98424583Y99053362D01*
X98652755Y98874600D01*
X98661704Y98866673D01*
X98866672Y98661705D01*
X98874599Y98652756D01*
X99053356Y98424591D01*
X99060138Y98414767D01*
X99210100Y98166697D01*
X99215652Y98156119D01*
X99334616Y97891794D01*
X99338855Y97880616D01*
X99425087Y97603886D01*
X99427948Y97592278D01*
X99480196Y97307172D01*
X99481637Y97295305D01*
X99499319Y97002994D01*
X99499500Y96997016D01*
X99499500Y3002985D01*
X99499319Y2997007D01*
X99481637Y2704696D01*
X99480196Y2692829D01*
X99427948Y2407723D01*
X99425087Y2396115D01*
X99338855Y2119385D01*
X99334616Y2108207D01*
X99215652Y1843882D01*
X99210096Y1833297D01*
X99060142Y1585242D01*
X99053356Y1575410D01*
X98874599Y1347245D01*
X98866672Y1338296D01*
X98661704Y1133328D01*
X98652755Y1125401D01*
X98424590Y946644D01*
X98414758Y939858D01*
X98177212Y796256D01*
X98166703Y789903D01*
X98156118Y784348D01*
X97891793Y665384D01*
X97880615Y661145D01*
X97603885Y574913D01*
X97592277Y572052D01*
X97307171Y519804D01*
X97295304Y518363D01*
X97023993Y501952D01*
X97002991Y500681D01*
X96997015Y500500D01*
X3002985Y500500D01*
X2997008Y500681D01*
X2973564Y502100D01*
X2704695Y518363D01*
X2692828Y519804D01*
X2407722Y572052D01*
X2396114Y574913D01*
X2119384Y661145D01*
X2108206Y665384D01*
X1843881Y784348D01*
X1833303Y789900D01*
X1585233Y939862D01*
X1575413Y946641D01*
X1347244Y1125401D01*
X1338295Y1133328D01*
X1133327Y1338296D01*
X1125400Y1347245D01*
X946638Y1575417D01*
X939864Y1585230D01*
X789895Y1833310D01*
X784347Y1843882D01*
X665383Y2108207D01*
X661147Y2119377D01*
X574911Y2396118D01*
X572051Y2407723D01*
X519803Y2692829D01*
X518362Y2704697D01*
X509603Y2849500D01*
X500681Y2997008D01*
X500500Y3002985D01*
X500500Y5328796D01*
X7930000Y5328796D01*
X7930000Y5200001D01*
X7930001Y5200000D01*
X8430000Y5200000D01*
X8430000Y4700000D01*
X7930001Y4700000D01*
X7930000Y4699999D01*
X7930000Y4571205D01*
X7960742Y4416651D01*
X8021048Y4271060D01*
X8021052Y4271051D01*
X8108599Y4140031D01*
X8108602Y4140027D01*
X8220026Y4028603D01*
X8220030Y4028600D01*
X8351058Y3941049D01*
X8479999Y3887640D01*
X8480000Y3887641D01*
X8480000Y4483012D01*
X8489940Y4465795D01*
X8545795Y4409940D01*
X8614204Y4370444D01*
X8690504Y4350000D01*
X8769496Y4350000D01*
X8845796Y4370444D01*
X8914205Y4409940D01*
X8970060Y4465795D01*
X8980000Y4483012D01*
X8980000Y3887640D01*
X9108941Y3941049D01*
X9239969Y4028600D01*
X9239973Y4028603D01*
X9351397Y4140027D01*
X9351400Y4140031D01*
X9438947Y4271051D01*
X9438951Y4271060D01*
X9499257Y4416651D01*
X9529999Y4571205D01*
X9530000Y4571208D01*
X9530000Y4699999D01*
X9529999Y4700000D01*
X9030000Y4700000D01*
X9030000Y5200000D01*
X9529999Y5200000D01*
X9530000Y5200001D01*
X9530000Y5328793D01*
X9529999Y5328796D01*
X16570000Y5328796D01*
X16570000Y5200001D01*
X16570001Y5200000D01*
X17070000Y5200000D01*
X17070000Y4700000D01*
X16570001Y4700000D01*
X16570000Y4699999D01*
X16570000Y4571205D01*
X16600742Y4416651D01*
X16661048Y4271060D01*
X16661052Y4271051D01*
X16748599Y4140031D01*
X16748602Y4140027D01*
X16860026Y4028603D01*
X16860030Y4028600D01*
X16991058Y3941049D01*
X17119999Y3887640D01*
X17120000Y3887641D01*
X17120000Y4483012D01*
X17129940Y4465795D01*
X17185795Y4409940D01*
X17254204Y4370444D01*
X17330504Y4350000D01*
X17409496Y4350000D01*
X17485796Y4370444D01*
X17554205Y4409940D01*
X17610060Y4465795D01*
X17620000Y4483012D01*
X17620000Y3887640D01*
X17748941Y3941049D01*
X17879969Y4028600D01*
X17879973Y4028603D01*
X17991397Y4140027D01*
X17991400Y4140031D01*
X18078947Y4271051D01*
X18078951Y4271060D01*
X18139257Y4416651D01*
X18169999Y4571205D01*
X18170000Y4571208D01*
X18170000Y4699999D01*
X18169999Y4700000D01*
X17670000Y4700000D01*
X17670000Y5200000D01*
X18169999Y5200000D01*
X18170000Y5200001D01*
X18170000Y5328793D01*
X18169999Y5328796D01*
X18139257Y5483350D01*
X18078951Y5628941D01*
X18078947Y5628950D01*
X17991400Y5759970D01*
X17991397Y5759974D01*
X17879973Y5871398D01*
X17879969Y5871401D01*
X17748949Y5958948D01*
X17748940Y5958952D01*
X17620000Y6012361D01*
X17620000Y5416989D01*
X17610060Y5434205D01*
X17554205Y5490060D01*
X17485796Y5529556D01*
X17409496Y5550000D01*
X17330504Y5550000D01*
X17254204Y5529556D01*
X17185795Y5490060D01*
X17129940Y5434205D01*
X17120000Y5416989D01*
X17120000Y6012361D01*
X16991059Y5958952D01*
X16991050Y5958948D01*
X16860030Y5871401D01*
X16860026Y5871398D01*
X16748602Y5759974D01*
X16748599Y5759970D01*
X16661052Y5628950D01*
X16661048Y5628941D01*
X16600742Y5483350D01*
X16570000Y5328796D01*
X9529999Y5328796D01*
X9499257Y5483350D01*
X9438951Y5628941D01*
X9438947Y5628950D01*
X9351400Y5759970D01*
X9351397Y5759974D01*
X9239973Y5871398D01*
X9239969Y5871401D01*
X9108949Y5958948D01*
X9108940Y5958952D01*
X8980000Y6012361D01*
X8980000Y5416989D01*
X8970060Y5434205D01*
X8914205Y5490060D01*
X8845796Y5529556D01*
X8769496Y5550000D01*
X8690504Y5550000D01*
X8614204Y5529556D01*
X8545795Y5490060D01*
X8489940Y5434205D01*
X8480000Y5416989D01*
X8480000Y6012361D01*
X8351059Y5958952D01*
X8351050Y5958948D01*
X8220030Y5871401D01*
X8220026Y5871398D01*
X8108602Y5759974D01*
X8108599Y5759970D01*
X8021052Y5628950D01*
X8021048Y5628941D01*
X7960742Y5483350D01*
X7930000Y5328796D01*
X500500Y5328796D01*
X500500Y9758796D01*
X7930000Y9758796D01*
X7930000Y9380001D01*
X7930001Y9380000D01*
X8430000Y9380000D01*
X8430000Y8880000D01*
X7930001Y8880000D01*
X7930000Y8879999D01*
X7930000Y8501205D01*
X7960742Y8346651D01*
X8021048Y8201060D01*
X8021052Y8201051D01*
X8108599Y8070031D01*
X8108602Y8070027D01*
X8220026Y7958603D01*
X8220030Y7958600D01*
X8351058Y7871049D01*
X8479999Y7817640D01*
X8480000Y7817641D01*
X8480000Y8413012D01*
X8489940Y8395795D01*
X8545795Y8339940D01*
X8614204Y8300444D01*
X8690504Y8280000D01*
X8769496Y8280000D01*
X8845796Y8300444D01*
X8914205Y8339940D01*
X8970060Y8395795D01*
X8980000Y8413012D01*
X8980000Y7817640D01*
X9108941Y7871049D01*
X9239969Y7958600D01*
X9239973Y7958603D01*
X9351397Y8070027D01*
X9351400Y8070031D01*
X9438947Y8201051D01*
X9438953Y8201063D01*
X9481953Y8304875D01*
X9521689Y8351401D01*
X9581184Y8365685D01*
X9637712Y8342271D01*
X9659153Y8316490D01*
X9699481Y8246640D01*
X9699483Y8246638D01*
X9699485Y8246635D01*
X9806635Y8139485D01*
X9806637Y8139484D01*
X9806639Y8139482D01*
X9937861Y8063721D01*
X9937859Y8063721D01*
X9937863Y8063720D01*
X9937865Y8063719D01*
X10084234Y8024500D01*
X10084236Y8024500D01*
X10235764Y8024500D01*
X10235766Y8024500D01*
X10382135Y8063719D01*
X10382137Y8063721D01*
X10382139Y8063721D01*
X10513360Y8139482D01*
X10513360Y8139483D01*
X10513365Y8139485D01*
X10620515Y8246635D01*
X10622746Y8250499D01*
X10696279Y8377861D01*
X10696279Y8377863D01*
X10696281Y8377865D01*
X10735500Y8524234D01*
X10735500Y8675766D01*
X15364500Y8675766D01*
X15364500Y8524234D01*
X15380585Y8464204D01*
X15403720Y8377861D01*
X15479481Y8246640D01*
X15479483Y8246638D01*
X15479485Y8246635D01*
X15586635Y8139485D01*
X15586637Y8139484D01*
X15586639Y8139482D01*
X15717861Y8063721D01*
X15717859Y8063721D01*
X15717863Y8063720D01*
X15717865Y8063719D01*
X15864234Y8024500D01*
X15864236Y8024500D01*
X16015764Y8024500D01*
X16015766Y8024500D01*
X16162135Y8063719D01*
X16162137Y8063721D01*
X16162139Y8063721D01*
X16293360Y8139482D01*
X16293360Y8139483D01*
X16293365Y8139485D01*
X16400515Y8246635D01*
X16440847Y8316492D01*
X16486315Y8357431D01*
X16547165Y8363827D01*
X16600153Y8333234D01*
X16618046Y8304876D01*
X16661048Y8201060D01*
X16661052Y8201051D01*
X16748599Y8070031D01*
X16748602Y8070027D01*
X16860026Y7958603D01*
X16860030Y7958600D01*
X16991058Y7871049D01*
X17119999Y7817640D01*
X17120000Y7817641D01*
X17120000Y8413012D01*
X17129940Y8395795D01*
X17185795Y8339940D01*
X17254204Y8300444D01*
X17330504Y8280000D01*
X17409496Y8280000D01*
X17485796Y8300444D01*
X17554205Y8339940D01*
X17610060Y8395795D01*
X17620000Y8413012D01*
X17620000Y7817640D01*
X17748941Y7871049D01*
X17879969Y7958600D01*
X17879973Y7958603D01*
X17991397Y8070027D01*
X17991400Y8070031D01*
X18078947Y8201051D01*
X18078951Y8201060D01*
X18139257Y8346651D01*
X18169999Y8501205D01*
X18170000Y8501208D01*
X18170000Y8879999D01*
X18169999Y8880000D01*
X17670000Y8880000D01*
X17670000Y9380000D01*
X18169999Y9380000D01*
X18170000Y9380001D01*
X18170000Y9758793D01*
X18169999Y9758796D01*
X18139879Y9910224D01*
X18139879Y9910226D01*
X18139258Y9913344D01*
X18139257Y9913349D01*
X18134566Y9924673D01*
X46849500Y9924673D01*
X46849500Y8075328D01*
X46849501Y8075316D01*
X46864033Y8002264D01*
X46864035Y8002258D01*
X46919397Y7919401D01*
X46919399Y7919399D01*
X47002260Y7864034D01*
X47057808Y7852985D01*
X47075315Y7849502D01*
X47075320Y7849502D01*
X47075326Y7849500D01*
X47075327Y7849500D01*
X48924673Y7849500D01*
X48924674Y7849500D01*
X48997740Y7864034D01*
X49080601Y7919399D01*
X49135966Y8002260D01*
X49150500Y8075326D01*
X49150500Y8844098D01*
X49169407Y8902289D01*
X49218907Y8938253D01*
X49280093Y8938253D01*
X49329593Y8902289D01*
X49347281Y8859585D01*
X49369546Y8719004D01*
X49427914Y8539365D01*
X49513666Y8371066D01*
X49532115Y8345672D01*
X50057036Y8870594D01*
X50074075Y8807007D01*
X50139901Y8692993D01*
X50232993Y8599901D01*
X50347007Y8534075D01*
X50410590Y8517038D01*
X49885670Y7992117D01*
X49911059Y7973670D01*
X49911063Y7973668D01*
X50079364Y7887915D01*
X50259003Y7829547D01*
X50445555Y7800000D01*
X50634445Y7800000D01*
X50820996Y7829547D01*
X51000635Y7887915D01*
X51168939Y7973671D01*
X51194328Y7992117D01*
X50669407Y8517038D01*
X50732993Y8534075D01*
X50847007Y8599901D01*
X50940099Y8692993D01*
X51005925Y8807007D01*
X51022962Y8870593D01*
X51547883Y8345672D01*
X51566329Y8371061D01*
X51652085Y8539365D01*
X51710453Y8719004D01*
X51740000Y8905555D01*
X51740000Y9090550D01*
X54469500Y9090550D01*
X54469500Y8909451D01*
X54497828Y8730594D01*
X54553788Y8558363D01*
X54601764Y8464204D01*
X54636004Y8397006D01*
X54742447Y8250499D01*
X54870499Y8122447D01*
X55017006Y8016004D01*
X55178361Y7933789D01*
X55350591Y7877829D01*
X55422136Y7866498D01*
X55529451Y7849500D01*
X55529454Y7849500D01*
X55710549Y7849500D01*
X55802323Y7864036D01*
X55889409Y7877829D01*
X56061639Y7933789D01*
X56222994Y8016004D01*
X56369501Y8122447D01*
X56497553Y8250499D01*
X56603996Y8397006D01*
X56686211Y8558361D01*
X56742171Y8730591D01*
X56767160Y8888367D01*
X56794937Y8942882D01*
X56849454Y8970660D01*
X56909886Y8961089D01*
X56953150Y8917824D01*
X56962722Y8888366D01*
X56989546Y8719004D01*
X57047914Y8539365D01*
X57133666Y8371066D01*
X57152115Y8345672D01*
X57677036Y8870594D01*
X57694075Y8807007D01*
X57759901Y8692993D01*
X57852993Y8599901D01*
X57967007Y8534075D01*
X58030590Y8517038D01*
X57505670Y7992117D01*
X57531059Y7973670D01*
X57531063Y7973668D01*
X57699364Y7887915D01*
X57879003Y7829547D01*
X58065555Y7800000D01*
X58254445Y7800000D01*
X58440996Y7829547D01*
X58620635Y7887915D01*
X58788939Y7973671D01*
X58814328Y7992117D01*
X58289407Y8517038D01*
X58352993Y8534075D01*
X58467007Y8599901D01*
X58560099Y8692993D01*
X58625925Y8807007D01*
X58642962Y8870593D01*
X59167883Y8345672D01*
X59186329Y8371061D01*
X59272085Y8539365D01*
X59330453Y8719004D01*
X59357277Y8888366D01*
X59385054Y8942882D01*
X59439571Y8970660D01*
X59500003Y8961089D01*
X59543267Y8917824D01*
X59552839Y8888366D01*
X59577828Y8730594D01*
X59633788Y8558363D01*
X59681764Y8464204D01*
X59716004Y8397006D01*
X59822447Y8250499D01*
X59950499Y8122447D01*
X60097006Y8016004D01*
X60258361Y7933789D01*
X60430591Y7877829D01*
X60502136Y7866498D01*
X60609451Y7849500D01*
X60609454Y7849500D01*
X60790549Y7849500D01*
X60882323Y7864036D01*
X60969409Y7877829D01*
X61141639Y7933789D01*
X61302994Y8016004D01*
X61449501Y8122447D01*
X61577553Y8250499D01*
X61683996Y8397006D01*
X61766211Y8558361D01*
X61822171Y8730591D01*
X61843270Y8863803D01*
X61850500Y8909451D01*
X61850500Y9090550D01*
X61822171Y9269407D01*
X61822171Y9269409D01*
X61766211Y9441639D01*
X61683996Y9602994D01*
X61577553Y9749501D01*
X61449501Y9877553D01*
X61302994Y9983996D01*
X61302993Y9983997D01*
X61302991Y9983998D01*
X61141637Y10066212D01*
X60969406Y10122172D01*
X60790549Y10150500D01*
X60790546Y10150500D01*
X60609454Y10150500D01*
X60609451Y10150500D01*
X60430593Y10122172D01*
X60258362Y10066212D01*
X60097008Y9983998D01*
X60051351Y9950826D01*
X59950499Y9877553D01*
X59822447Y9749501D01*
X59769225Y9676248D01*
X59716002Y9602992D01*
X59633788Y9441638D01*
X59577828Y9269407D01*
X59552839Y9111635D01*
X59525061Y9057118D01*
X59470545Y9029341D01*
X59410113Y9038913D01*
X59366848Y9082177D01*
X59357277Y9111635D01*
X59330453Y9280997D01*
X59272085Y9460636D01*
X59186332Y9628937D01*
X59186330Y9628941D01*
X59167883Y9654330D01*
X58642962Y9129410D01*
X58625925Y9192993D01*
X58560099Y9307007D01*
X58467007Y9400099D01*
X58352993Y9465925D01*
X58289406Y9482964D01*
X58814328Y10007885D01*
X58788934Y10026334D01*
X58620635Y10112086D01*
X58440996Y10170454D01*
X58254445Y10200000D01*
X58065555Y10200000D01*
X57879003Y10170454D01*
X57699364Y10112086D01*
X57531063Y10026332D01*
X57505670Y10007885D01*
X58030592Y9482963D01*
X57967007Y9465925D01*
X57852993Y9400099D01*
X57759901Y9307007D01*
X57694075Y9192993D01*
X57677037Y9129408D01*
X57152115Y9654330D01*
X57133668Y9628937D01*
X57047914Y9460636D01*
X56989546Y9280997D01*
X56962722Y9111635D01*
X56934944Y9057118D01*
X56880428Y9029341D01*
X56819996Y9038912D01*
X56776731Y9082177D01*
X56767160Y9111635D01*
X56742171Y9269407D01*
X56742171Y9269409D01*
X56686211Y9441639D01*
X56603996Y9602994D01*
X56497553Y9749501D01*
X56369501Y9877553D01*
X56369497Y9877556D01*
X56352287Y9890060D01*
X56352286Y9890060D01*
X56222994Y9983996D01*
X56222993Y9983997D01*
X56222991Y9983998D01*
X56061637Y10066212D01*
X55889406Y10122172D01*
X55710549Y10150500D01*
X55710546Y10150500D01*
X55529454Y10150500D01*
X55529451Y10150500D01*
X55350593Y10122172D01*
X55178362Y10066212D01*
X55017008Y9983998D01*
X54971351Y9950826D01*
X54870499Y9877553D01*
X54742447Y9749501D01*
X54689225Y9676248D01*
X54636002Y9602992D01*
X54553788Y9441638D01*
X54497828Y9269407D01*
X54469500Y9090550D01*
X51740000Y9090550D01*
X51740000Y9094446D01*
X51710453Y9280997D01*
X51652085Y9460636D01*
X51566332Y9628937D01*
X51566330Y9628941D01*
X51547883Y9654330D01*
X51022962Y9129410D01*
X51005925Y9192993D01*
X50940099Y9307007D01*
X50847007Y9400099D01*
X50732993Y9465925D01*
X50669406Y9482964D01*
X51194328Y10007885D01*
X51168934Y10026334D01*
X51000635Y10112086D01*
X50820996Y10170454D01*
X50634445Y10200000D01*
X50445555Y10200000D01*
X50259003Y10170454D01*
X50079364Y10112086D01*
X49911063Y10026332D01*
X49885670Y10007885D01*
X50410592Y9482963D01*
X50347007Y9465925D01*
X50232993Y9400099D01*
X50139901Y9307007D01*
X50074075Y9192993D01*
X50057037Y9129408D01*
X49532115Y9654330D01*
X49513668Y9628937D01*
X49427914Y9460636D01*
X49369546Y9280997D01*
X49347281Y9140416D01*
X49319504Y9085899D01*
X49264987Y9058122D01*
X49204555Y9067693D01*
X49161290Y9110958D01*
X49150500Y9155903D01*
X49150500Y9924673D01*
X49150499Y9924682D01*
X49145298Y9950826D01*
X49145297Y9950828D01*
X49135966Y9997740D01*
X49116862Y10026332D01*
X49080602Y10080600D01*
X49080599Y10080603D01*
X48997742Y10135965D01*
X48997740Y10135966D01*
X48997737Y10135967D01*
X48997736Y10135967D01*
X48924684Y10150499D01*
X48924674Y10150500D01*
X47075326Y10150500D01*
X47075325Y10150500D01*
X47075315Y10150499D01*
X47002263Y10135967D01*
X47002257Y10135965D01*
X46919400Y10080603D01*
X46919397Y10080600D01*
X46864035Y9997743D01*
X46864033Y9997737D01*
X46849501Y9924685D01*
X46849500Y9924673D01*
X18134566Y9924673D01*
X18078951Y10058941D01*
X18078947Y10058950D01*
X17991400Y10189970D01*
X17991397Y10189974D01*
X17879973Y10301398D01*
X17879969Y10301401D01*
X17748949Y10388948D01*
X17748940Y10388952D01*
X17620000Y10442361D01*
X17620000Y9846989D01*
X17610060Y9864205D01*
X17554205Y9920060D01*
X17485796Y9959556D01*
X17409496Y9980000D01*
X17330504Y9980000D01*
X17254204Y9959556D01*
X17185795Y9920060D01*
X17129940Y9864205D01*
X17120000Y9846989D01*
X17120000Y10442361D01*
X16991059Y10388952D01*
X16991050Y10388948D01*
X16860030Y10301401D01*
X16860026Y10301398D01*
X16748602Y10189974D01*
X16748599Y10189970D01*
X16661052Y10058950D01*
X16661048Y10058941D01*
X16600742Y9913350D01*
X16570000Y9758796D01*
X16570000Y9380001D01*
X16570001Y9380000D01*
X17070000Y9380000D01*
X17070000Y8880000D01*
X16559762Y8880000D01*
X16526115Y8862857D01*
X16465684Y8872431D01*
X16424895Y8911139D01*
X16400518Y8953361D01*
X16400516Y8953363D01*
X16400515Y8953365D01*
X16293365Y9060515D01*
X16293362Y9060517D01*
X16293360Y9060519D01*
X16162138Y9136280D01*
X16162140Y9136280D01*
X16105347Y9151497D01*
X16015766Y9175500D01*
X15864234Y9175500D01*
X15774652Y9151497D01*
X15717860Y9136280D01*
X15586639Y9060519D01*
X15479481Y8953361D01*
X15403720Y8822140D01*
X15381793Y8740307D01*
X15364500Y8675766D01*
X10735500Y8675766D01*
X10696281Y8822135D01*
X10696279Y8822138D01*
X10696279Y8822140D01*
X10620518Y8953361D01*
X10620516Y8953363D01*
X10620515Y8953365D01*
X10513365Y9060515D01*
X10513362Y9060517D01*
X10513360Y9060519D01*
X10382138Y9136280D01*
X10382140Y9136280D01*
X10325347Y9151497D01*
X10235766Y9175500D01*
X10084234Y9175500D01*
X9994652Y9151497D01*
X9937860Y9136280D01*
X9806639Y9060519D01*
X9699483Y8953363D01*
X9675104Y8911138D01*
X9629633Y8870197D01*
X9568783Y8863803D01*
X9538951Y8880000D01*
X9030000Y8880000D01*
X9030000Y9380000D01*
X9529999Y9380000D01*
X9530000Y9380001D01*
X9530000Y9758793D01*
X9529999Y9758796D01*
X9499257Y9913350D01*
X9438951Y10058941D01*
X9438947Y10058950D01*
X9351400Y10189970D01*
X9351397Y10189974D01*
X9239973Y10301398D01*
X9239969Y10301401D01*
X9108949Y10388948D01*
X9108940Y10388952D01*
X8980000Y10442361D01*
X8980000Y9846989D01*
X8970060Y9864205D01*
X8914205Y9920060D01*
X8845796Y9959556D01*
X8769496Y9980000D01*
X8690504Y9980000D01*
X8614204Y9959556D01*
X8545795Y9920060D01*
X8489940Y9864205D01*
X8480000Y9846989D01*
X8480000Y10442361D01*
X8351059Y10388952D01*
X8351050Y10388948D01*
X8220030Y10301401D01*
X8220026Y10301398D01*
X8108602Y10189974D01*
X8108599Y10189970D01*
X8021052Y10058950D01*
X8021048Y10058941D01*
X7960742Y9913350D01*
X7930000Y9758796D01*
X500500Y9758796D01*
X500500Y35072475D01*
X41449500Y35072475D01*
X41449500Y34927525D01*
X41478571Y34819033D01*
X41487017Y34787511D01*
X41559487Y34661990D01*
X41559489Y34661988D01*
X41559491Y34661985D01*
X41570505Y34650971D01*
X41598281Y34596456D01*
X41599500Y34580969D01*
X41599500Y29619032D01*
X41580593Y29560841D01*
X41570506Y29549031D01*
X41559492Y29538017D01*
X41559487Y29538011D01*
X41487017Y29412490D01*
X41449500Y29272475D01*
X41449500Y29127526D01*
X41487017Y28987511D01*
X41559487Y28861990D01*
X41559489Y28861988D01*
X41559491Y28861985D01*
X41661985Y28759491D01*
X41661987Y28759490D01*
X41661989Y28759488D01*
X41787511Y28687018D01*
X41787512Y28687018D01*
X41787515Y28687016D01*
X41927525Y28649500D01*
X41927526Y28649500D01*
X42072474Y28649500D01*
X42072475Y28649500D01*
X42212485Y28687016D01*
X42212487Y28687018D01*
X42212489Y28687018D01*
X42338010Y28759488D01*
X42338010Y28759489D01*
X42338015Y28759491D01*
X42440509Y28861985D01*
X42512984Y28987515D01*
X42550500Y29127525D01*
X42550500Y29272475D01*
X42512984Y29412485D01*
X42512982Y29412488D01*
X42512982Y29412490D01*
X42440512Y29538011D01*
X42440507Y29538017D01*
X42429494Y29549031D01*
X42401718Y29603548D01*
X42400500Y29619032D01*
X42400500Y34580969D01*
X42419407Y34639160D01*
X42429490Y34650967D01*
X42440509Y34661985D01*
X42440512Y34661990D01*
X42512982Y34787511D01*
X42512982Y34787513D01*
X42512984Y34787515D01*
X42550500Y34927525D01*
X42550500Y35072475D01*
X42512984Y35212485D01*
X42512982Y35212488D01*
X42512982Y35212490D01*
X42440512Y35338011D01*
X42440510Y35338013D01*
X42440509Y35338015D01*
X42338015Y35440509D01*
X42338012Y35440511D01*
X42338010Y35440513D01*
X42212488Y35512983D01*
X42212489Y35512983D01*
X42182896Y35520913D01*
X42072475Y35550500D01*
X41927525Y35550500D01*
X41865790Y35533959D01*
X41787510Y35512983D01*
X41661989Y35440513D01*
X41559487Y35338011D01*
X41487017Y35212490D01*
X41487016Y35212485D01*
X41449500Y35072475D01*
X500500Y35072475D01*
X500500Y40272475D01*
X18849500Y40272475D01*
X18849500Y40127526D01*
X18887017Y39987511D01*
X18959487Y39861990D01*
X18959489Y39861988D01*
X18959491Y39861985D01*
X19061985Y39759491D01*
X19061987Y39759490D01*
X19061989Y39759488D01*
X19187511Y39687018D01*
X19187512Y39687018D01*
X19187515Y39687016D01*
X19327525Y39649500D01*
X19327526Y39649500D01*
X19472474Y39649500D01*
X19472475Y39649500D01*
X19612485Y39687016D01*
X19612487Y39687018D01*
X19612489Y39687018D01*
X19738010Y39759488D01*
X19738010Y39759489D01*
X19738015Y39759491D01*
X19840509Y39861985D01*
X19912984Y39987515D01*
X19950500Y40127525D01*
X19950500Y40272475D01*
X19912984Y40412485D01*
X19912982Y40412488D01*
X19912982Y40412490D01*
X19840512Y40538011D01*
X19840507Y40538017D01*
X19829494Y40549031D01*
X19801718Y40603548D01*
X19800500Y40619032D01*
X19800500Y43993100D01*
X19819407Y44051291D01*
X19829490Y44063098D01*
X27720480Y51954087D01*
X27770898Y52041414D01*
X27773169Y52045347D01*
X27773179Y52045366D01*
X27773206Y52045412D01*
X27773207Y52045413D01*
X27800500Y52147273D01*
X27800500Y57193099D01*
X27819407Y57251290D01*
X27829496Y57263103D01*
X28080496Y57514103D01*
X28135013Y57541880D01*
X28195445Y57532309D01*
X28238710Y57489044D01*
X28249500Y57444099D01*
X28249500Y57327525D01*
X28266762Y57263103D01*
X28287017Y57187511D01*
X28359487Y57061990D01*
X28359489Y57061988D01*
X28359491Y57061985D01*
X28370505Y57050971D01*
X28398281Y56996456D01*
X28399500Y56980969D01*
X28399500Y39619032D01*
X28380593Y39560841D01*
X28370506Y39549031D01*
X28359492Y39538017D01*
X28359487Y39538011D01*
X28287017Y39412490D01*
X28249500Y39272475D01*
X28249500Y39127526D01*
X28287017Y38987511D01*
X28359487Y38861990D01*
X28359489Y38861988D01*
X28359491Y38861985D01*
X28461985Y38759491D01*
X28461987Y38759490D01*
X28461989Y38759488D01*
X28587511Y38687018D01*
X28587512Y38687018D01*
X28587515Y38687016D01*
X28727525Y38649500D01*
X28727526Y38649500D01*
X28872474Y38649500D01*
X28872475Y38649500D01*
X29012485Y38687016D01*
X29012487Y38687018D01*
X29012489Y38687018D01*
X29138010Y38759488D01*
X29138010Y38759489D01*
X29138015Y38759491D01*
X29240509Y38861985D01*
X29312984Y38987515D01*
X29350500Y39127525D01*
X29350500Y39272475D01*
X29312984Y39412485D01*
X29312982Y39412488D01*
X29312982Y39412490D01*
X29240512Y39538011D01*
X29240507Y39538017D01*
X29229494Y39549031D01*
X29201718Y39603548D01*
X29200500Y39619032D01*
X29200500Y52072475D01*
X29449500Y52072475D01*
X29449500Y51927526D01*
X29487017Y51787511D01*
X29559487Y51661990D01*
X29559489Y51661988D01*
X29559491Y51661985D01*
X29661985Y51559491D01*
X29661987Y51559490D01*
X29661989Y51559488D01*
X29787511Y51487018D01*
X29787512Y51487018D01*
X29787515Y51487016D01*
X29927525Y51449500D01*
X29943099Y51449500D01*
X30001290Y51430593D01*
X30013103Y51420504D01*
X47963603Y33470006D01*
X47991380Y33415489D01*
X47981809Y33355057D01*
X47963603Y33329998D01*
X46213103Y31579496D01*
X46158586Y31551719D01*
X46143099Y31550500D01*
X46127525Y31550500D01*
X46065790Y31533959D01*
X45987510Y31512983D01*
X45861989Y31440513D01*
X45759487Y31338011D01*
X45687017Y31212490D01*
X45649500Y31072475D01*
X45649500Y30927526D01*
X45687017Y30787511D01*
X45759487Y30661990D01*
X45759489Y30661988D01*
X45759491Y30661985D01*
X45861985Y30559491D01*
X45861987Y30559490D01*
X45861989Y30559488D01*
X45987511Y30487018D01*
X45987512Y30487018D01*
X45987515Y30487016D01*
X46127525Y30449500D01*
X46127526Y30449500D01*
X46272474Y30449500D01*
X46272475Y30449500D01*
X46412485Y30487016D01*
X46412487Y30487018D01*
X46412489Y30487018D01*
X46538010Y30559488D01*
X46538010Y30559489D01*
X46538015Y30559491D01*
X46640509Y30661985D01*
X46712984Y30787515D01*
X46750500Y30927525D01*
X46750500Y30943100D01*
X46769407Y31001291D01*
X46779496Y31013104D01*
X48586897Y32820505D01*
X48641414Y32848282D01*
X48656901Y32849501D01*
X48672474Y32849501D01*
X48672475Y32849501D01*
X48812485Y32887017D01*
X48812487Y32887019D01*
X48812489Y32887019D01*
X48938010Y32959489D01*
X48938010Y32959490D01*
X48938015Y32959492D01*
X48949029Y32970507D01*
X49003544Y32998282D01*
X49019031Y32999501D01*
X51452725Y32999501D01*
X51452727Y32999501D01*
X51554588Y33026794D01*
X51554590Y33026796D01*
X51554592Y33026796D01*
X51645908Y33079518D01*
X51645908Y33079519D01*
X51645913Y33079521D01*
X54480498Y35914107D01*
X54535013Y35941882D01*
X54595445Y35932311D01*
X54638710Y35889046D01*
X54649500Y35844101D01*
X54649500Y35727525D01*
X54679087Y35617104D01*
X54687017Y35587511D01*
X54759487Y35461990D01*
X54759489Y35461988D01*
X54759491Y35461985D01*
X54861985Y35359491D01*
X54861987Y35359490D01*
X54861989Y35359488D01*
X54987511Y35287018D01*
X54987512Y35287018D01*
X54987515Y35287016D01*
X55127525Y35249500D01*
X55143101Y35249500D01*
X55201292Y35230593D01*
X55213104Y35220504D01*
X55273873Y35159736D01*
X55273876Y35159732D01*
X55273877Y35159732D01*
X55279519Y35154090D01*
X55279520Y35154088D01*
X55354087Y35079521D01*
X55354089Y35079520D01*
X55445409Y35026796D01*
X55445410Y35026796D01*
X55445413Y35026794D01*
X55547274Y34999500D01*
X55652728Y34999501D01*
X58754249Y34999501D01*
X58812440Y34980594D01*
X58848404Y34931094D01*
X58849869Y34926146D01*
X58878571Y34819033D01*
X58887017Y34787511D01*
X58959487Y34661990D01*
X58959489Y34661988D01*
X58959491Y34661985D01*
X59061985Y34559491D01*
X59061987Y34559490D01*
X59061989Y34559488D01*
X59187511Y34487018D01*
X59187512Y34487018D01*
X59187515Y34487016D01*
X59327525Y34449500D01*
X59343099Y34449500D01*
X59401290Y34430593D01*
X59413103Y34420504D01*
X60820504Y33013103D01*
X60848281Y32958586D01*
X60849500Y32943099D01*
X60849500Y32927525D01*
X60878176Y32820505D01*
X60887017Y32787511D01*
X60959487Y32661990D01*
X60959489Y32661988D01*
X60959491Y32661985D01*
X61061985Y32559491D01*
X61061987Y32559490D01*
X61061989Y32559488D01*
X61187511Y32487018D01*
X61187512Y32487018D01*
X61187515Y32487016D01*
X61327525Y32449500D01*
X61327526Y32449500D01*
X61472474Y32449500D01*
X61472475Y32449500D01*
X61612485Y32487016D01*
X61612487Y32487018D01*
X61612489Y32487018D01*
X61738010Y32559488D01*
X61738010Y32559489D01*
X61738015Y32559491D01*
X61840509Y32661985D01*
X61912984Y32787515D01*
X61950500Y32927525D01*
X61950500Y33072475D01*
X61912984Y33212485D01*
X61912982Y33212488D01*
X61912982Y33212490D01*
X61840512Y33338011D01*
X61840510Y33338013D01*
X61840509Y33338015D01*
X61738015Y33440509D01*
X61738012Y33440511D01*
X61738010Y33440513D01*
X61612488Y33512983D01*
X61612489Y33512983D01*
X61582896Y33520913D01*
X61472475Y33550500D01*
X61472474Y33550500D01*
X61456901Y33550500D01*
X61398710Y33569407D01*
X61386897Y33579496D01*
X59979496Y34986897D01*
X59951719Y35041414D01*
X59950500Y35056901D01*
X59950500Y35072475D01*
X59948612Y35079521D01*
X59912984Y35212485D01*
X59912982Y35212488D01*
X59912982Y35212490D01*
X59840512Y35338011D01*
X59840510Y35338013D01*
X59840509Y35338015D01*
X59738015Y35440509D01*
X59738012Y35440511D01*
X59738010Y35440513D01*
X59612488Y35512983D01*
X59612489Y35512983D01*
X59582896Y35520913D01*
X59472475Y35550500D01*
X59472474Y35550500D01*
X59456900Y35550500D01*
X59398709Y35569407D01*
X59386896Y35579497D01*
X59245913Y35720482D01*
X59154591Y35773207D01*
X59154593Y35773207D01*
X59115070Y35783797D01*
X59052727Y35800501D01*
X59052725Y35800501D01*
X55845751Y35800501D01*
X55787560Y35819408D01*
X55751596Y35868908D01*
X55750124Y35873877D01*
X55712984Y36012485D01*
X55712981Y36012491D01*
X55690748Y36051000D01*
X55678026Y36110848D01*
X55702912Y36166744D01*
X55755900Y36197337D01*
X55776484Y36199500D01*
X60252725Y36199500D01*
X60252727Y36199500D01*
X60354588Y36226793D01*
X60354590Y36226795D01*
X60354592Y36226795D01*
X60445908Y36279517D01*
X60445908Y36279518D01*
X60445913Y36279520D01*
X63786897Y39620504D01*
X63841414Y39648281D01*
X63856901Y39649500D01*
X63872474Y39649500D01*
X63872475Y39649500D01*
X64012485Y39687016D01*
X64012487Y39687018D01*
X64012489Y39687018D01*
X64138010Y39759488D01*
X64138010Y39759489D01*
X64138015Y39759491D01*
X64240509Y39861985D01*
X64312984Y39987515D01*
X64350500Y40127525D01*
X64350500Y40272475D01*
X64312984Y40412485D01*
X64312982Y40412488D01*
X64312982Y40412490D01*
X64240512Y40538011D01*
X64240510Y40538013D01*
X64240509Y40538015D01*
X64138015Y40640509D01*
X64138012Y40640511D01*
X64138010Y40640513D01*
X64012488Y40712983D01*
X64012489Y40712983D01*
X63982896Y40720913D01*
X63872475Y40750500D01*
X63727525Y40750500D01*
X63665790Y40733959D01*
X63587510Y40712983D01*
X63461989Y40640513D01*
X63359487Y40538011D01*
X63287017Y40412490D01*
X63249500Y40272475D01*
X63249500Y40256901D01*
X63230593Y40198710D01*
X63220504Y40186897D01*
X60063103Y37029496D01*
X60008586Y37001719D01*
X59993099Y37000500D01*
X54658806Y37000500D01*
X54658790Y37000501D01*
X54652727Y37000501D01*
X54547273Y37000501D01*
X54547270Y37000501D01*
X54445413Y36973208D01*
X54445409Y36973206D01*
X54354087Y36920481D01*
X54279519Y36845914D01*
X54279520Y36845913D01*
X54279518Y36845911D01*
X51263103Y33829497D01*
X51208586Y33801720D01*
X51193099Y33800501D01*
X49019031Y33800501D01*
X48960840Y33819408D01*
X48949033Y33829492D01*
X48938015Y33840510D01*
X48938012Y33840512D01*
X48938010Y33840514D01*
X48812488Y33912984D01*
X48812489Y33912984D01*
X48782896Y33920914D01*
X48672475Y33950501D01*
X48672474Y33950501D01*
X48656900Y33950501D01*
X48598709Y33969408D01*
X48586896Y33979497D01*
X30579496Y51986897D01*
X30551719Y52041414D01*
X30550500Y52056901D01*
X30550500Y52072475D01*
X30537790Y52119907D01*
X30512984Y52212485D01*
X30512982Y52212488D01*
X30512982Y52212490D01*
X30440512Y52338011D01*
X30440510Y52338013D01*
X30440509Y52338015D01*
X30338015Y52440509D01*
X30338012Y52440511D01*
X30338010Y52440513D01*
X30212488Y52512983D01*
X30212489Y52512983D01*
X30182896Y52520913D01*
X30072475Y52550500D01*
X29927525Y52550500D01*
X29865790Y52533959D01*
X29787510Y52512983D01*
X29661989Y52440513D01*
X29559487Y52338011D01*
X29487017Y52212490D01*
X29449500Y52072475D01*
X29200500Y52072475D01*
X29200500Y56980969D01*
X29219407Y57039160D01*
X29229490Y57050967D01*
X29240509Y57061985D01*
X29297918Y57161420D01*
X29312982Y57187511D01*
X29312982Y57187513D01*
X29312984Y57187515D01*
X29350500Y57327525D01*
X29350500Y57472475D01*
X29312984Y57612485D01*
X29312982Y57612488D01*
X29312982Y57612490D01*
X29290748Y57651000D01*
X29278026Y57710848D01*
X29302912Y57766744D01*
X29355900Y57797337D01*
X29376484Y57799500D01*
X41252725Y57799500D01*
X41252727Y57799500D01*
X41354588Y57826793D01*
X41354590Y57826795D01*
X41354592Y57826795D01*
X41445908Y57879517D01*
X41445908Y57879518D01*
X41445913Y57879520D01*
X41986897Y58420504D01*
X42041414Y58448281D01*
X42056901Y58449500D01*
X42072474Y58449500D01*
X42072475Y58449500D01*
X42212485Y58487016D01*
X42212487Y58487018D01*
X42212489Y58487018D01*
X42338010Y58559488D01*
X42338010Y58559489D01*
X42338015Y58559491D01*
X42440509Y58661985D01*
X42512984Y58787515D01*
X42550500Y58927525D01*
X42550500Y59072475D01*
X42512984Y59212485D01*
X42512982Y59212488D01*
X42512982Y59212490D01*
X42440512Y59338011D01*
X42440510Y59338013D01*
X42440509Y59338015D01*
X42338015Y59440509D01*
X42338012Y59440511D01*
X42338010Y59440513D01*
X42212488Y59512983D01*
X42212489Y59512983D01*
X42182896Y59520913D01*
X42072475Y59550500D01*
X42072474Y59550500D01*
X42056901Y59550500D01*
X41998710Y59569407D01*
X41986897Y59579496D01*
X41629496Y59936897D01*
X41601719Y59991414D01*
X41600500Y60006901D01*
X41600500Y76780969D01*
X41619407Y76839160D01*
X41629490Y76850967D01*
X41640509Y76861985D01*
X41712984Y76987515D01*
X41750500Y77127525D01*
X41750500Y77272475D01*
X41712984Y77412485D01*
X41712982Y77412488D01*
X41712982Y77412490D01*
X41640512Y77538011D01*
X41640510Y77538013D01*
X41640509Y77538015D01*
X41538015Y77640509D01*
X41538012Y77640511D01*
X41538010Y77640513D01*
X41412488Y77712983D01*
X41412489Y77712983D01*
X41382896Y77720913D01*
X41272475Y77750500D01*
X41127525Y77750500D01*
X41065790Y77733959D01*
X40987510Y77712983D01*
X40861989Y77640513D01*
X40759487Y77538011D01*
X40687017Y77412490D01*
X40649500Y77272475D01*
X40649500Y77127526D01*
X40687017Y76987511D01*
X40759487Y76861990D01*
X40759489Y76861988D01*
X40759491Y76861985D01*
X40770505Y76850971D01*
X40798281Y76796456D01*
X40799500Y76780969D01*
X40799500Y59852727D01*
X40799500Y59747273D01*
X40801981Y59738015D01*
X40826794Y59645408D01*
X40879516Y59554092D01*
X40879518Y59554090D01*
X40879520Y59554087D01*
X41363604Y59070003D01*
X41391380Y59015488D01*
X41381809Y58955056D01*
X41363603Y58929998D01*
X41063103Y58629497D01*
X41008586Y58601719D01*
X40993099Y58600500D01*
X28252727Y58600500D01*
X28147273Y58600500D01*
X28084929Y58583796D01*
X28045407Y58573206D01*
X27954091Y58520484D01*
X27954090Y58520483D01*
X27954087Y58520481D01*
X27954087Y58520480D01*
X27169501Y57735895D01*
X27114987Y57708119D01*
X27054555Y57717690D01*
X27011290Y57760955D01*
X27000500Y57805900D01*
X27000500Y71180969D01*
X27019407Y71239160D01*
X27029490Y71250967D01*
X27040509Y71261985D01*
X27096803Y71359488D01*
X27112982Y71387511D01*
X27112982Y71387513D01*
X27112984Y71387515D01*
X27150500Y71527525D01*
X27150500Y71672475D01*
X27112984Y71812485D01*
X27112982Y71812488D01*
X27112982Y71812490D01*
X27040512Y71938011D01*
X27040510Y71938013D01*
X27040509Y71938015D01*
X26938015Y72040509D01*
X26938012Y72040511D01*
X26938010Y72040513D01*
X26812488Y72112983D01*
X26812489Y72112983D01*
X26782896Y72120913D01*
X26672475Y72150500D01*
X26527525Y72150500D01*
X26480931Y72138015D01*
X26387510Y72112983D01*
X26261989Y72040513D01*
X26159487Y71938011D01*
X26087017Y71812490D01*
X26068424Y71743099D01*
X26049500Y71672475D01*
X26049500Y71527525D01*
X26067060Y71461990D01*
X26087017Y71387511D01*
X26159487Y71261990D01*
X26159489Y71261988D01*
X26159491Y71261985D01*
X26170505Y71250971D01*
X26198281Y71196456D01*
X26199500Y71180969D01*
X26199500Y53219032D01*
X26180593Y53160841D01*
X26170506Y53149031D01*
X26159492Y53138017D01*
X26159487Y53138011D01*
X26087017Y53012490D01*
X26049500Y52872475D01*
X26049500Y52727526D01*
X26087017Y52587511D01*
X26159487Y52461990D01*
X26159489Y52461988D01*
X26159491Y52461985D01*
X26261985Y52359491D01*
X26261987Y52359490D01*
X26261989Y52359488D01*
X26387511Y52287018D01*
X26387512Y52287018D01*
X26387515Y52287016D01*
X26527525Y52249500D01*
X26527526Y52249500D01*
X26644099Y52249500D01*
X26702290Y52230593D01*
X26738254Y52181093D01*
X26738254Y52119907D01*
X26714103Y52080496D01*
X19079516Y44445909D01*
X19026793Y44354589D01*
X19026792Y44354589D01*
X19026793Y44354588D01*
X18999500Y44252727D01*
X18999500Y40619032D01*
X18980593Y40560841D01*
X18970506Y40549031D01*
X18959492Y40538017D01*
X18959487Y40538011D01*
X18887017Y40412490D01*
X18849500Y40272475D01*
X500500Y40272475D01*
X500500Y82872475D01*
X41849500Y82872475D01*
X41849500Y82727525D01*
X41853397Y82712983D01*
X41887017Y82587511D01*
X41959487Y82461990D01*
X41959489Y82461988D01*
X41959491Y82461985D01*
X41970505Y82450971D01*
X41998281Y82396456D01*
X41999500Y82380969D01*
X41999500Y65652727D01*
X41999500Y65547273D01*
X42023570Y65457441D01*
X42026794Y65445408D01*
X42079516Y65354092D01*
X42079518Y65354090D01*
X42079520Y65354087D01*
X48020505Y59413102D01*
X48048281Y59358587D01*
X48049500Y59343100D01*
X48049500Y59327526D01*
X48087017Y59187511D01*
X48159487Y59061990D01*
X48159489Y59061988D01*
X48159491Y59061985D01*
X48261985Y58959491D01*
X48261987Y58959490D01*
X48261989Y58959488D01*
X48387511Y58887018D01*
X48387512Y58887018D01*
X48387515Y58887016D01*
X48527525Y58849500D01*
X48527526Y58849500D01*
X48672474Y58849500D01*
X48672475Y58849500D01*
X48812485Y58887016D01*
X48812487Y58887018D01*
X48812489Y58887018D01*
X48938010Y58959488D01*
X48938010Y58959489D01*
X48938015Y58959491D01*
X49040509Y59061985D01*
X49045139Y59070005D01*
X49112982Y59187511D01*
X49112982Y59187513D01*
X49112984Y59187515D01*
X49150500Y59327525D01*
X49150500Y59472475D01*
X49112984Y59612485D01*
X49112982Y59612488D01*
X49112982Y59612490D01*
X49040512Y59738011D01*
X49040510Y59738013D01*
X49040509Y59738015D01*
X48938015Y59840509D01*
X48938012Y59840511D01*
X48938010Y59840513D01*
X48812488Y59912983D01*
X48812489Y59912983D01*
X48782896Y59920913D01*
X48672475Y59950500D01*
X48672474Y59950500D01*
X48656901Y59950500D01*
X48598710Y59969407D01*
X48586897Y59979496D01*
X42829496Y65736897D01*
X42801719Y65791414D01*
X42800500Y65806901D01*
X42800500Y82272475D01*
X53849500Y82272475D01*
X53849500Y82127526D01*
X53887017Y81987511D01*
X53959487Y81861990D01*
X53959489Y81861988D01*
X53959491Y81861985D01*
X53970505Y81850971D01*
X53998281Y81796456D01*
X53999500Y81780969D01*
X53999500Y60652727D01*
X53999500Y60547273D01*
X54023570Y60457441D01*
X54026794Y60445408D01*
X54079516Y60354092D01*
X54079518Y60354090D01*
X54079520Y60354087D01*
X60620505Y53813102D01*
X60648281Y53758587D01*
X60649500Y53743100D01*
X60649500Y53727526D01*
X60687017Y53587511D01*
X60759487Y53461990D01*
X60759489Y53461988D01*
X60759491Y53461985D01*
X60861985Y53359491D01*
X60861987Y53359490D01*
X60861989Y53359488D01*
X60987511Y53287018D01*
X60987512Y53287018D01*
X60987515Y53287016D01*
X61127525Y53249500D01*
X61127526Y53249500D01*
X61244100Y53249500D01*
X61302291Y53230593D01*
X61338255Y53181093D01*
X61338255Y53119907D01*
X61314105Y53080499D01*
X61295597Y53061990D01*
X61279517Y53045910D01*
X61279516Y53045909D01*
X61226793Y52954589D01*
X61226792Y52954589D01*
X61226793Y52954588D01*
X61199500Y52852727D01*
X61199500Y46619032D01*
X61180593Y46560841D01*
X61170506Y46549031D01*
X61159492Y46538017D01*
X61159487Y46538011D01*
X61087017Y46412490D01*
X61049500Y46272475D01*
X61049500Y46127526D01*
X61087017Y45987511D01*
X61159487Y45861990D01*
X61159489Y45861988D01*
X61159491Y45861985D01*
X61261985Y45759491D01*
X61261987Y45759490D01*
X61261989Y45759488D01*
X61387511Y45687018D01*
X61387512Y45687018D01*
X61387515Y45687016D01*
X61527525Y45649500D01*
X61527526Y45649500D01*
X61672474Y45649500D01*
X61672475Y45649500D01*
X61812485Y45687016D01*
X61812487Y45687018D01*
X61812489Y45687018D01*
X61938010Y45759488D01*
X61938010Y45759489D01*
X61938015Y45759491D01*
X62040509Y45861985D01*
X62112984Y45987515D01*
X62150500Y46127525D01*
X62150500Y46272475D01*
X62112984Y46412485D01*
X62112982Y46412488D01*
X62112982Y46412490D01*
X62040512Y46538011D01*
X62040507Y46538017D01*
X62029494Y46549031D01*
X62001718Y46603548D01*
X62000500Y46619032D01*
X62000500Y52593100D01*
X62019407Y52651291D01*
X62029490Y52663098D01*
X62320480Y52954087D01*
X62354196Y53012485D01*
X62373207Y53045413D01*
X62400500Y53147273D01*
X62400500Y53472475D01*
X69849500Y53472475D01*
X69849500Y53327525D01*
X69870407Y53249500D01*
X69887017Y53187511D01*
X69959487Y53061990D01*
X69959489Y53061988D01*
X69959491Y53061985D01*
X69970505Y53050971D01*
X69998281Y52996456D01*
X69999500Y52980969D01*
X69999500Y46619032D01*
X69980593Y46560841D01*
X69970506Y46549031D01*
X69959492Y46538017D01*
X69959487Y46538011D01*
X69887017Y46412490D01*
X69849500Y46272475D01*
X69849500Y46127526D01*
X69887017Y45987511D01*
X69959487Y45861990D01*
X69959489Y45861988D01*
X69959491Y45861985D01*
X70061985Y45759491D01*
X70061987Y45759490D01*
X70061989Y45759488D01*
X70187511Y45687018D01*
X70187512Y45687018D01*
X70187515Y45687016D01*
X70327525Y45649500D01*
X70327526Y45649500D01*
X70472474Y45649500D01*
X70472475Y45649500D01*
X70612485Y45687016D01*
X70612487Y45687018D01*
X70612489Y45687018D01*
X70738010Y45759488D01*
X70738010Y45759489D01*
X70738015Y45759491D01*
X70840509Y45861985D01*
X70912984Y45987515D01*
X70950500Y46127525D01*
X70950500Y46272475D01*
X70912984Y46412485D01*
X70912982Y46412488D01*
X70912982Y46412490D01*
X70840512Y46538011D01*
X70840507Y46538017D01*
X70829494Y46549031D01*
X70801718Y46603548D01*
X70800500Y46619032D01*
X70800500Y52980969D01*
X70819407Y53039160D01*
X70829490Y53050967D01*
X70840509Y53061985D01*
X70840512Y53061990D01*
X70912982Y53187511D01*
X70912982Y53187513D01*
X70912984Y53187515D01*
X70950500Y53327525D01*
X70950500Y53472475D01*
X70912984Y53612485D01*
X70912982Y53612488D01*
X70912982Y53612490D01*
X70840512Y53738011D01*
X70840510Y53738013D01*
X70840509Y53738015D01*
X70738015Y53840509D01*
X70738012Y53840511D01*
X70738010Y53840513D01*
X70612488Y53912983D01*
X70612489Y53912983D01*
X70582896Y53920913D01*
X70472475Y53950500D01*
X70327525Y53950500D01*
X70265790Y53933959D01*
X70187510Y53912983D01*
X70061989Y53840513D01*
X69959487Y53738011D01*
X69887017Y53612490D01*
X69887016Y53612485D01*
X69849500Y53472475D01*
X62400500Y53472475D01*
X62400500Y54452727D01*
X62373207Y54554587D01*
X62373207Y54554588D01*
X62373207Y54554589D01*
X62320483Y54645909D01*
X62320482Y54645910D01*
X62320481Y54645911D01*
X62320480Y54645913D01*
X59829496Y57136897D01*
X59801719Y57191414D01*
X59800500Y57206901D01*
X59800500Y61672475D01*
X75049500Y61672475D01*
X75049500Y61527526D01*
X75087017Y61387511D01*
X75159487Y61261990D01*
X75159489Y61261988D01*
X75159491Y61261985D01*
X75170505Y61250971D01*
X75198281Y61196456D01*
X75199500Y61180969D01*
X75199500Y26419032D01*
X75180593Y26360841D01*
X75170506Y26349031D01*
X75159492Y26338017D01*
X75159487Y26338011D01*
X75087017Y26212490D01*
X75049500Y26072475D01*
X75049500Y25927526D01*
X75087017Y25787511D01*
X75159487Y25661990D01*
X75159489Y25661988D01*
X75159491Y25661985D01*
X75261985Y25559491D01*
X75261987Y25559490D01*
X75261989Y25559488D01*
X75387511Y25487018D01*
X75387512Y25487018D01*
X75387515Y25487016D01*
X75527525Y25449500D01*
X75527526Y25449500D01*
X75672474Y25449500D01*
X75672475Y25449500D01*
X75812485Y25487016D01*
X75812487Y25487018D01*
X75812489Y25487018D01*
X75938010Y25559488D01*
X75938010Y25559489D01*
X75938015Y25559491D01*
X76040509Y25661985D01*
X76112984Y25787515D01*
X76150500Y25927525D01*
X76150500Y26072475D01*
X76112984Y26212485D01*
X76112982Y26212488D01*
X76112982Y26212490D01*
X76040512Y26338011D01*
X76040507Y26338017D01*
X76029494Y26349031D01*
X76001718Y26403548D01*
X76000500Y26419032D01*
X76000500Y30072475D01*
X80249500Y30072475D01*
X80249500Y29927526D01*
X80287017Y29787511D01*
X80359487Y29661990D01*
X80359489Y29661988D01*
X80359491Y29661985D01*
X80370505Y29650971D01*
X80398281Y29596456D01*
X80399500Y29580969D01*
X80399500Y19252727D01*
X80399500Y19147273D01*
X80423570Y19057441D01*
X80426794Y19045408D01*
X80479516Y18954092D01*
X80479518Y18954090D01*
X80479520Y18954087D01*
X83420505Y16013102D01*
X83448281Y15958587D01*
X83449500Y15943100D01*
X83449500Y15927526D01*
X83487017Y15787511D01*
X83559487Y15661990D01*
X83559489Y15661988D01*
X83559491Y15661985D01*
X83570505Y15650971D01*
X83598281Y15596456D01*
X83599500Y15580969D01*
X83599500Y3819032D01*
X83580593Y3760841D01*
X83570506Y3749031D01*
X83559492Y3738017D01*
X83559487Y3738011D01*
X83487017Y3612490D01*
X83449500Y3472475D01*
X83449500Y3327526D01*
X83487017Y3187511D01*
X83559487Y3061990D01*
X83559489Y3061988D01*
X83559491Y3061985D01*
X83661985Y2959491D01*
X83661987Y2959490D01*
X83661989Y2959488D01*
X83787511Y2887018D01*
X83787512Y2887018D01*
X83787515Y2887016D01*
X83927525Y2849500D01*
X83927526Y2849500D01*
X84072474Y2849500D01*
X84072475Y2849500D01*
X84212485Y2887016D01*
X84212487Y2887018D01*
X84212489Y2887018D01*
X84338010Y2959488D01*
X84338010Y2959489D01*
X84338015Y2959491D01*
X84440509Y3061985D01*
X84512984Y3187515D01*
X84550500Y3327525D01*
X84550500Y3472475D01*
X84512984Y3612485D01*
X84512982Y3612488D01*
X84512982Y3612490D01*
X84440512Y3738011D01*
X84440507Y3738017D01*
X84429494Y3749031D01*
X84401718Y3803548D01*
X84400500Y3819032D01*
X84400500Y15580969D01*
X84419407Y15639160D01*
X84429490Y15650967D01*
X84440509Y15661985D01*
X84512984Y15787515D01*
X84550500Y15927525D01*
X84550500Y16072475D01*
X84512984Y16212485D01*
X84512982Y16212488D01*
X84512982Y16212490D01*
X84440512Y16338011D01*
X84440510Y16338013D01*
X84440509Y16338015D01*
X84338015Y16440509D01*
X84338012Y16440511D01*
X84338010Y16440513D01*
X84212488Y16512983D01*
X84212489Y16512983D01*
X84182896Y16520913D01*
X84072475Y16550500D01*
X84072474Y16550500D01*
X84056901Y16550500D01*
X83998710Y16569407D01*
X83986897Y16579496D01*
X81229496Y19336897D01*
X81201719Y19391414D01*
X81200500Y19406901D01*
X81200500Y24125927D01*
X87400000Y24125927D01*
X87400000Y23874074D01*
X87439395Y23625337D01*
X87517221Y23385813D01*
X87631556Y23161418D01*
X87631558Y23161414D01*
X87705746Y23059303D01*
X88360688Y23714246D01*
X88379668Y23668426D01*
X88456274Y23553776D01*
X88553776Y23456274D01*
X88668426Y23379668D01*
X88714243Y23360691D01*
X88059301Y22705748D01*
X88161413Y22631559D01*
X88161417Y22631557D01*
X88385812Y22517222D01*
X88625336Y22439396D01*
X88874074Y22400000D01*
X89125926Y22400000D01*
X89374663Y22439396D01*
X89614187Y22517222D01*
X89838580Y22631556D01*
X89940696Y22705749D01*
X89285755Y23360690D01*
X89331574Y23379668D01*
X89446224Y23456274D01*
X89543726Y23553776D01*
X89620332Y23668426D01*
X89639310Y23714245D01*
X90294251Y23059304D01*
X90368444Y23161420D01*
X90482778Y23385813D01*
X90560604Y23625337D01*
X90600000Y23874074D01*
X90600000Y24125927D01*
X95400000Y24125927D01*
X95400000Y23874074D01*
X95439395Y23625337D01*
X95517221Y23385813D01*
X95631556Y23161418D01*
X95631558Y23161414D01*
X95705746Y23059303D01*
X96360688Y23714246D01*
X96379668Y23668426D01*
X96456274Y23553776D01*
X96553776Y23456274D01*
X96668426Y23379668D01*
X96714243Y23360691D01*
X96059301Y22705748D01*
X96161413Y22631559D01*
X96161417Y22631557D01*
X96385812Y22517222D01*
X96625336Y22439396D01*
X96874074Y22400000D01*
X97125926Y22400000D01*
X97374663Y22439396D01*
X97614187Y22517222D01*
X97838580Y22631556D01*
X97940696Y22705749D01*
X97285755Y23360690D01*
X97331574Y23379668D01*
X97446224Y23456274D01*
X97543726Y23553776D01*
X97620332Y23668426D01*
X97639310Y23714245D01*
X98294251Y23059304D01*
X98368444Y23161420D01*
X98482778Y23385813D01*
X98560604Y23625337D01*
X98600000Y23874074D01*
X98600000Y24125927D01*
X98560604Y24374664D01*
X98482778Y24614188D01*
X98368443Y24838583D01*
X98368441Y24838587D01*
X98294252Y24940699D01*
X97639309Y24285757D01*
X97620332Y24331574D01*
X97543726Y24446224D01*
X97446224Y24543726D01*
X97331574Y24620332D01*
X97285754Y24639312D01*
X97940697Y25294254D01*
X97838586Y25368442D01*
X97838582Y25368444D01*
X97614187Y25482779D01*
X97374663Y25560605D01*
X97125926Y25600000D01*
X96874074Y25600000D01*
X96625336Y25560605D01*
X96385812Y25482779D01*
X96161418Y25368444D01*
X96059301Y25294254D01*
X96714244Y24639311D01*
X96668426Y24620332D01*
X96553776Y24543726D01*
X96456274Y24446224D01*
X96379668Y24331574D01*
X96360689Y24285756D01*
X95705746Y24940699D01*
X95631556Y24838582D01*
X95517221Y24614188D01*
X95439395Y24374664D01*
X95400000Y24125927D01*
X90600000Y24125927D01*
X90560604Y24374664D01*
X90482778Y24614188D01*
X90368443Y24838583D01*
X90368441Y24838587D01*
X90294252Y24940699D01*
X89639309Y24285757D01*
X89620332Y24331574D01*
X89543726Y24446224D01*
X89446224Y24543726D01*
X89331574Y24620332D01*
X89285754Y24639312D01*
X89940697Y25294254D01*
X89838586Y25368442D01*
X89838582Y25368444D01*
X89614187Y25482779D01*
X89374663Y25560605D01*
X89125926Y25600000D01*
X88874074Y25600000D01*
X88625336Y25560605D01*
X88385812Y25482779D01*
X88161418Y25368444D01*
X88059301Y25294254D01*
X88714244Y24639311D01*
X88668426Y24620332D01*
X88553776Y24543726D01*
X88456274Y24446224D01*
X88379668Y24331574D01*
X88360689Y24285756D01*
X87705746Y24940699D01*
X87631556Y24838582D01*
X87517221Y24614188D01*
X87439395Y24374664D01*
X87400000Y24125927D01*
X81200500Y24125927D01*
X81200500Y28114161D01*
X91549500Y28114161D01*
X91549500Y27885840D01*
X91585214Y27660345D01*
X91655769Y27443201D01*
X91759420Y27239773D01*
X91759424Y27239767D01*
X91893616Y27055069D01*
X91893618Y27055067D01*
X91893621Y27055063D01*
X92055063Y26893621D01*
X92055066Y26893619D01*
X92055068Y26893617D01*
X92239766Y26759425D01*
X92239772Y26759421D01*
X92443201Y26655769D01*
X92660340Y26585216D01*
X92660341Y26585216D01*
X92660344Y26585215D01*
X92885840Y26549500D01*
X92885843Y26549500D01*
X93114160Y26549500D01*
X93339655Y26585215D01*
X93339656Y26585216D01*
X93339660Y26585216D01*
X93556799Y26655769D01*
X93760228Y26759421D01*
X93944937Y26893621D01*
X94106379Y27055063D01*
X94240579Y27239772D01*
X94344231Y27443201D01*
X94414784Y27660340D01*
X94450500Y27885843D01*
X94450500Y28114157D01*
X94450500Y28114161D01*
X94414785Y28339656D01*
X94414784Y28339660D01*
X94344231Y28556799D01*
X94240579Y28760228D01*
X94106379Y28944937D01*
X93944937Y29106379D01*
X93944933Y29106382D01*
X93944931Y29106384D01*
X93760233Y29240576D01*
X93760227Y29240580D01*
X93556799Y29344231D01*
X93339655Y29414786D01*
X93114160Y29450500D01*
X93114157Y29450500D01*
X92885843Y29450500D01*
X92885840Y29450500D01*
X92660344Y29414786D01*
X92443200Y29344231D01*
X92239772Y29240580D01*
X92239766Y29240576D01*
X92055068Y29106384D01*
X91893616Y28944932D01*
X91759424Y28760234D01*
X91759420Y28760228D01*
X91655769Y28556800D01*
X91585214Y28339656D01*
X91549500Y28114161D01*
X81200500Y28114161D01*
X81200500Y29580969D01*
X81219407Y29639160D01*
X81229490Y29650967D01*
X81240509Y29661985D01*
X81312984Y29787515D01*
X81350500Y29927525D01*
X81350500Y30072475D01*
X81312984Y30212485D01*
X81312982Y30212488D01*
X81312982Y30212490D01*
X81240512Y30338011D01*
X81240510Y30338013D01*
X81240509Y30338015D01*
X81138015Y30440509D01*
X81138012Y30440511D01*
X81138010Y30440513D01*
X81012488Y30512983D01*
X81012489Y30512983D01*
X80982896Y30520913D01*
X80872475Y30550500D01*
X80727525Y30550500D01*
X80665790Y30533959D01*
X80587510Y30512983D01*
X80461989Y30440513D01*
X80359487Y30338011D01*
X80287017Y30212490D01*
X80249500Y30072475D01*
X76000500Y30072475D01*
X76000500Y32125927D01*
X87400000Y32125927D01*
X87400000Y31874074D01*
X87439395Y31625337D01*
X87517221Y31385813D01*
X87631556Y31161418D01*
X87631558Y31161414D01*
X87705746Y31059303D01*
X88360688Y31714246D01*
X88379668Y31668426D01*
X88456274Y31553776D01*
X88553776Y31456274D01*
X88668426Y31379668D01*
X88714243Y31360691D01*
X88059301Y30705748D01*
X88161413Y30631559D01*
X88161417Y30631557D01*
X88385812Y30517222D01*
X88625336Y30439396D01*
X88874074Y30400000D01*
X89125926Y30400000D01*
X89374663Y30439396D01*
X89614187Y30517222D01*
X89838580Y30631556D01*
X89940696Y30705749D01*
X89285755Y31360690D01*
X89331574Y31379668D01*
X89446224Y31456274D01*
X89543726Y31553776D01*
X89620332Y31668426D01*
X89639310Y31714245D01*
X90294251Y31059304D01*
X90368444Y31161420D01*
X90482778Y31385813D01*
X90560604Y31625337D01*
X90600000Y31874074D01*
X90600000Y32125927D01*
X95400000Y32125927D01*
X95400000Y31874074D01*
X95439395Y31625337D01*
X95517221Y31385813D01*
X95631556Y31161418D01*
X95631558Y31161414D01*
X95705746Y31059303D01*
X96360688Y31714246D01*
X96379668Y31668426D01*
X96456274Y31553776D01*
X96553776Y31456274D01*
X96668426Y31379668D01*
X96714243Y31360691D01*
X96059301Y30705748D01*
X96161413Y30631559D01*
X96161417Y30631557D01*
X96385812Y30517222D01*
X96625336Y30439396D01*
X96874074Y30400000D01*
X97125926Y30400000D01*
X97374663Y30439396D01*
X97614187Y30517222D01*
X97838580Y30631556D01*
X97940696Y30705749D01*
X97285755Y31360690D01*
X97331574Y31379668D01*
X97446224Y31456274D01*
X97543726Y31553776D01*
X97620332Y31668426D01*
X97639310Y31714245D01*
X98294251Y31059304D01*
X98368444Y31161420D01*
X98482778Y31385813D01*
X98560604Y31625337D01*
X98600000Y31874074D01*
X98600000Y32125927D01*
X98560604Y32374664D01*
X98482778Y32614188D01*
X98368443Y32838583D01*
X98368441Y32838587D01*
X98294252Y32940699D01*
X97639309Y32285757D01*
X97620332Y32331574D01*
X97543726Y32446224D01*
X97446224Y32543726D01*
X97331574Y32620332D01*
X97285754Y32639312D01*
X97940697Y33294254D01*
X97838586Y33368442D01*
X97838582Y33368444D01*
X97614187Y33482779D01*
X97374663Y33560605D01*
X97125926Y33600000D01*
X96874074Y33600000D01*
X96625336Y33560605D01*
X96385812Y33482779D01*
X96161418Y33368444D01*
X96059301Y33294254D01*
X96714244Y32639311D01*
X96668426Y32620332D01*
X96553776Y32543726D01*
X96456274Y32446224D01*
X96379668Y32331574D01*
X96360689Y32285756D01*
X95705746Y32940699D01*
X95631556Y32838582D01*
X95517221Y32614188D01*
X95439395Y32374664D01*
X95400000Y32125927D01*
X90600000Y32125927D01*
X90560604Y32374664D01*
X90482778Y32614188D01*
X90368443Y32838583D01*
X90368441Y32838587D01*
X90294252Y32940699D01*
X89639309Y32285757D01*
X89620332Y32331574D01*
X89543726Y32446224D01*
X89446224Y32543726D01*
X89331574Y32620332D01*
X89285754Y32639312D01*
X89940697Y33294254D01*
X89838586Y33368442D01*
X89838582Y33368444D01*
X89614187Y33482779D01*
X89374663Y33560605D01*
X89125926Y33600000D01*
X88874074Y33600000D01*
X88625336Y33560605D01*
X88385812Y33482779D01*
X88161418Y33368444D01*
X88059301Y33294254D01*
X88714244Y32639311D01*
X88668426Y32620332D01*
X88553776Y32543726D01*
X88456274Y32446224D01*
X88379668Y32331574D01*
X88360689Y32285756D01*
X87705746Y32940699D01*
X87631556Y32838582D01*
X87517221Y32614188D01*
X87439395Y32374664D01*
X87400000Y32125927D01*
X76000500Y32125927D01*
X76000500Y61180969D01*
X76019407Y61239160D01*
X76029490Y61250967D01*
X76040509Y61261985D01*
X76112984Y61387515D01*
X76150500Y61527525D01*
X76150500Y61672475D01*
X76112984Y61812485D01*
X76112982Y61812488D01*
X76112982Y61812490D01*
X76040512Y61938011D01*
X76040510Y61938013D01*
X76040509Y61938015D01*
X75938015Y62040509D01*
X75938012Y62040511D01*
X75938010Y62040513D01*
X75812488Y62112983D01*
X75812489Y62112983D01*
X75782896Y62120913D01*
X75672475Y62150500D01*
X75527525Y62150500D01*
X75465790Y62133959D01*
X75387510Y62112983D01*
X75261989Y62040513D01*
X75159487Y61938011D01*
X75087017Y61812490D01*
X75049500Y61672475D01*
X59800500Y61672475D01*
X59800500Y77272475D01*
X67649500Y77272475D01*
X67649500Y77127526D01*
X67687017Y76987511D01*
X67759487Y76861990D01*
X67759489Y76861988D01*
X67759491Y76861985D01*
X67861985Y76759491D01*
X67861987Y76759490D01*
X67861989Y76759488D01*
X67987511Y76687018D01*
X67987512Y76687018D01*
X67987515Y76687016D01*
X68127525Y76649500D01*
X68143099Y76649500D01*
X68201290Y76630593D01*
X68213103Y76620504D01*
X73020504Y71813103D01*
X73048281Y71758586D01*
X73049500Y71743099D01*
X73049500Y71727526D01*
X73087017Y71587511D01*
X73159487Y71461990D01*
X73159489Y71461988D01*
X73159491Y71461985D01*
X73261985Y71359491D01*
X73261987Y71359490D01*
X73261989Y71359488D01*
X73387511Y71287018D01*
X73387512Y71287018D01*
X73387515Y71287016D01*
X73527525Y71249500D01*
X73527526Y71249500D01*
X73672474Y71249500D01*
X73672475Y71249500D01*
X73812485Y71287016D01*
X73812487Y71287018D01*
X73812489Y71287018D01*
X73938010Y71359488D01*
X73938010Y71359489D01*
X73938015Y71359491D01*
X74040509Y71461985D01*
X74078349Y71527526D01*
X74112982Y71587511D01*
X74112982Y71587513D01*
X74112984Y71587515D01*
X74150500Y71727525D01*
X74150500Y71872475D01*
X74112984Y72012485D01*
X74112982Y72012488D01*
X74112982Y72012490D01*
X74040512Y72138011D01*
X74040510Y72138013D01*
X74040509Y72138015D01*
X73938015Y72240509D01*
X73938012Y72240511D01*
X73938010Y72240513D01*
X73812488Y72312983D01*
X73812489Y72312983D01*
X73782896Y72320913D01*
X73672475Y72350500D01*
X73672474Y72350500D01*
X73656901Y72350500D01*
X73598710Y72369407D01*
X73586897Y72379496D01*
X68779496Y77186897D01*
X68751719Y77241414D01*
X68750500Y77256901D01*
X68750500Y77272475D01*
X68724785Y77368442D01*
X68712984Y77412485D01*
X68712982Y77412488D01*
X68712982Y77412490D01*
X68640512Y77538011D01*
X68640510Y77538013D01*
X68640509Y77538015D01*
X68538015Y77640509D01*
X68538012Y77640511D01*
X68538010Y77640513D01*
X68412488Y77712983D01*
X68412489Y77712983D01*
X68382896Y77720913D01*
X68272475Y77750500D01*
X68127525Y77750500D01*
X68065790Y77733959D01*
X67987510Y77712983D01*
X67861989Y77640513D01*
X67759487Y77538011D01*
X67687017Y77412490D01*
X67649500Y77272475D01*
X59800500Y77272475D01*
X59800500Y81472475D01*
X61449500Y81472475D01*
X61449500Y81327526D01*
X61487017Y81187511D01*
X61559487Y81061990D01*
X61559489Y81061988D01*
X61559491Y81061985D01*
X61661985Y80959491D01*
X61661987Y80959490D01*
X61661989Y80959488D01*
X61787511Y80887018D01*
X61787512Y80887018D01*
X61787515Y80887016D01*
X61927525Y80849500D01*
X61927526Y80849500D01*
X62072474Y80849500D01*
X62072475Y80849500D01*
X62212485Y80887016D01*
X62212487Y80887018D01*
X62212489Y80887018D01*
X62338010Y80959488D01*
X62338010Y80959489D01*
X62338015Y80959491D01*
X62349029Y80970506D01*
X62403544Y80998281D01*
X62419031Y80999500D01*
X71793099Y80999500D01*
X71851290Y80980593D01*
X71863103Y80970504D01*
X80114103Y72719504D01*
X80141880Y72664987D01*
X80132309Y72604555D01*
X80089044Y72561290D01*
X80044099Y72550500D01*
X79927525Y72550500D01*
X79865790Y72533959D01*
X79787510Y72512983D01*
X79661989Y72440513D01*
X79559487Y72338011D01*
X79487017Y72212490D01*
X79449500Y72072475D01*
X79449500Y72056901D01*
X79430593Y71998710D01*
X79420504Y71986897D01*
X77679516Y70245909D01*
X77626793Y70154589D01*
X77626792Y70154589D01*
X77626793Y70154588D01*
X77599500Y70052727D01*
X77599500Y34819033D01*
X77580593Y34760842D01*
X77570506Y34749032D01*
X77559492Y34738018D01*
X77559487Y34738012D01*
X77487017Y34612491D01*
X77449500Y34472476D01*
X77449500Y34327527D01*
X77487017Y34187512D01*
X77559487Y34061991D01*
X77559489Y34061989D01*
X77559491Y34061986D01*
X77661985Y33959492D01*
X77661987Y33959491D01*
X77661989Y33959489D01*
X77787511Y33887019D01*
X77787512Y33887019D01*
X77787515Y33887017D01*
X77927525Y33849501D01*
X77927526Y33849501D01*
X78072474Y33849501D01*
X78072475Y33849501D01*
X78212485Y33887017D01*
X78212487Y33887019D01*
X78212489Y33887019D01*
X78338010Y33959489D01*
X78338010Y33959490D01*
X78338015Y33959492D01*
X78440509Y34061986D01*
X78512984Y34187516D01*
X78550500Y34327526D01*
X78550500Y34472476D01*
X78512984Y34612486D01*
X78512982Y34612489D01*
X78512982Y34612491D01*
X78440512Y34738012D01*
X78440507Y34738018D01*
X78429494Y34749032D01*
X78401718Y34803549D01*
X78400500Y34819033D01*
X78400500Y50125927D01*
X87400000Y50125927D01*
X87400000Y49874074D01*
X87439395Y49625337D01*
X87517221Y49385813D01*
X87631556Y49161418D01*
X87631558Y49161414D01*
X87705746Y49059303D01*
X88360688Y49714246D01*
X88379668Y49668426D01*
X88456274Y49553776D01*
X88553776Y49456274D01*
X88668426Y49379668D01*
X88714243Y49360691D01*
X88059301Y48705748D01*
X88161413Y48631559D01*
X88161417Y48631557D01*
X88385812Y48517222D01*
X88625336Y48439396D01*
X88874074Y48400000D01*
X89125926Y48400000D01*
X89374663Y48439396D01*
X89614187Y48517222D01*
X89838580Y48631556D01*
X89940696Y48705749D01*
X89285755Y49360690D01*
X89331574Y49379668D01*
X89446224Y49456274D01*
X89543726Y49553776D01*
X89620332Y49668426D01*
X89639310Y49714245D01*
X90294251Y49059304D01*
X90368444Y49161420D01*
X90482778Y49385813D01*
X90560604Y49625337D01*
X90600000Y49874074D01*
X90600000Y50125927D01*
X95400000Y50125927D01*
X95400000Y49874074D01*
X95439395Y49625337D01*
X95517221Y49385813D01*
X95631556Y49161418D01*
X95631558Y49161414D01*
X95705746Y49059303D01*
X96360688Y49714246D01*
X96379668Y49668426D01*
X96456274Y49553776D01*
X96553776Y49456274D01*
X96668426Y49379668D01*
X96714243Y49360691D01*
X96059301Y48705748D01*
X96161413Y48631559D01*
X96161417Y48631557D01*
X96385812Y48517222D01*
X96625336Y48439396D01*
X96874074Y48400000D01*
X97125926Y48400000D01*
X97374663Y48439396D01*
X97614187Y48517222D01*
X97838580Y48631556D01*
X97940696Y48705749D01*
X97285755Y49360690D01*
X97331574Y49379668D01*
X97446224Y49456274D01*
X97543726Y49553776D01*
X97620332Y49668426D01*
X97639310Y49714245D01*
X98294251Y49059304D01*
X98368444Y49161420D01*
X98482778Y49385813D01*
X98560604Y49625337D01*
X98600000Y49874074D01*
X98600000Y50125927D01*
X98560604Y50374664D01*
X98482778Y50614188D01*
X98368443Y50838583D01*
X98368441Y50838587D01*
X98294252Y50940699D01*
X97639309Y50285757D01*
X97620332Y50331574D01*
X97543726Y50446224D01*
X97446224Y50543726D01*
X97331574Y50620332D01*
X97285754Y50639312D01*
X97940697Y51294254D01*
X97838586Y51368442D01*
X97838582Y51368444D01*
X97614187Y51482779D01*
X97374663Y51560605D01*
X97125926Y51600000D01*
X96874074Y51600000D01*
X96625336Y51560605D01*
X96385812Y51482779D01*
X96161418Y51368444D01*
X96059301Y51294254D01*
X96714244Y50639311D01*
X96668426Y50620332D01*
X96553776Y50543726D01*
X96456274Y50446224D01*
X96379668Y50331574D01*
X96360689Y50285756D01*
X95705746Y50940699D01*
X95631556Y50838582D01*
X95517221Y50614188D01*
X95439395Y50374664D01*
X95400000Y50125927D01*
X90600000Y50125927D01*
X90560604Y50374664D01*
X90482778Y50614188D01*
X90368443Y50838583D01*
X90368441Y50838587D01*
X90294252Y50940699D01*
X89639309Y50285757D01*
X89620332Y50331574D01*
X89543726Y50446224D01*
X89446224Y50543726D01*
X89331574Y50620332D01*
X89285754Y50639312D01*
X89940697Y51294254D01*
X89838586Y51368442D01*
X89838582Y51368444D01*
X89614187Y51482779D01*
X89374663Y51560605D01*
X89125926Y51600000D01*
X88874074Y51600000D01*
X88625336Y51560605D01*
X88385812Y51482779D01*
X88161418Y51368444D01*
X88059301Y51294254D01*
X88714244Y50639311D01*
X88668426Y50620332D01*
X88553776Y50543726D01*
X88456274Y50446224D01*
X88379668Y50331574D01*
X88360689Y50285756D01*
X87705746Y50940699D01*
X87631556Y50838582D01*
X87517221Y50614188D01*
X87439395Y50374664D01*
X87400000Y50125927D01*
X78400500Y50125927D01*
X78400500Y54114161D01*
X91549500Y54114161D01*
X91549500Y53885840D01*
X91585214Y53660345D01*
X91655769Y53443201D01*
X91759420Y53239773D01*
X91759424Y53239767D01*
X91893616Y53055069D01*
X91893618Y53055067D01*
X91893621Y53055063D01*
X92055063Y52893621D01*
X92055066Y52893619D01*
X92055068Y52893617D01*
X92111348Y52852727D01*
X92239772Y52759421D01*
X92443201Y52655769D01*
X92660340Y52585216D01*
X92660341Y52585216D01*
X92660344Y52585215D01*
X92885840Y52549500D01*
X92885843Y52549500D01*
X93114160Y52549500D01*
X93339655Y52585215D01*
X93339656Y52585216D01*
X93339660Y52585216D01*
X93556799Y52655769D01*
X93760228Y52759421D01*
X93944937Y52893621D01*
X94106379Y53055063D01*
X94240579Y53239772D01*
X94344231Y53443201D01*
X94414784Y53660340D01*
X94427086Y53738011D01*
X94450500Y53885840D01*
X94450500Y54114161D01*
X94414785Y54339656D01*
X94378046Y54452727D01*
X94344231Y54556799D01*
X94240579Y54760228D01*
X94106379Y54944937D01*
X93944937Y55106379D01*
X93944933Y55106382D01*
X93944931Y55106384D01*
X93760233Y55240576D01*
X93760227Y55240580D01*
X93556799Y55344231D01*
X93339655Y55414786D01*
X93114160Y55450500D01*
X93114157Y55450500D01*
X92885843Y55450500D01*
X92885840Y55450500D01*
X92660344Y55414786D01*
X92443200Y55344231D01*
X92239772Y55240580D01*
X92239766Y55240576D01*
X92055068Y55106384D01*
X91893616Y54944932D01*
X91759424Y54760234D01*
X91759420Y54760228D01*
X91655769Y54556800D01*
X91585214Y54339656D01*
X91549500Y54114161D01*
X78400500Y54114161D01*
X78400500Y58125927D01*
X87400000Y58125927D01*
X87400000Y57874074D01*
X87439395Y57625337D01*
X87517221Y57385813D01*
X87631556Y57161418D01*
X87631558Y57161414D01*
X87705746Y57059303D01*
X88360688Y57714246D01*
X88379668Y57668426D01*
X88456274Y57553776D01*
X88553776Y57456274D01*
X88668426Y57379668D01*
X88714243Y57360691D01*
X88059301Y56705748D01*
X88161413Y56631559D01*
X88161417Y56631557D01*
X88385812Y56517222D01*
X88625336Y56439396D01*
X88874074Y56400000D01*
X89125926Y56400000D01*
X89374663Y56439396D01*
X89614187Y56517222D01*
X89838580Y56631556D01*
X89940696Y56705749D01*
X89285755Y57360690D01*
X89331574Y57379668D01*
X89446224Y57456274D01*
X89543726Y57553776D01*
X89620332Y57668426D01*
X89639310Y57714245D01*
X90294251Y57059304D01*
X90368444Y57161420D01*
X90482778Y57385813D01*
X90560604Y57625337D01*
X90600000Y57874074D01*
X90600000Y58125927D01*
X95400000Y58125927D01*
X95400000Y57874074D01*
X95439395Y57625337D01*
X95517221Y57385813D01*
X95631556Y57161418D01*
X95631558Y57161414D01*
X95705746Y57059303D01*
X96360688Y57714246D01*
X96379668Y57668426D01*
X96456274Y57553776D01*
X96553776Y57456274D01*
X96668426Y57379668D01*
X96714243Y57360691D01*
X96059301Y56705748D01*
X96161413Y56631559D01*
X96161417Y56631557D01*
X96385812Y56517222D01*
X96625336Y56439396D01*
X96874074Y56400000D01*
X97125926Y56400000D01*
X97374663Y56439396D01*
X97614187Y56517222D01*
X97838580Y56631556D01*
X97940696Y56705749D01*
X97285755Y57360690D01*
X97331574Y57379668D01*
X97446224Y57456274D01*
X97543726Y57553776D01*
X97620332Y57668426D01*
X97639310Y57714245D01*
X98294251Y57059304D01*
X98368444Y57161420D01*
X98482778Y57385813D01*
X98560604Y57625337D01*
X98600000Y57874074D01*
X98600000Y58125927D01*
X98560604Y58374664D01*
X98482778Y58614188D01*
X98368443Y58838583D01*
X98368441Y58838587D01*
X98294252Y58940699D01*
X97639309Y58285757D01*
X97620332Y58331574D01*
X97543726Y58446224D01*
X97446224Y58543726D01*
X97331574Y58620332D01*
X97285754Y58639312D01*
X97940697Y59294254D01*
X97838586Y59368442D01*
X97838582Y59368444D01*
X97614187Y59482779D01*
X97374663Y59560605D01*
X97125926Y59600000D01*
X96874074Y59600000D01*
X96625336Y59560605D01*
X96385812Y59482779D01*
X96161418Y59368444D01*
X96059301Y59294254D01*
X96714244Y58639311D01*
X96668426Y58620332D01*
X96553776Y58543726D01*
X96456274Y58446224D01*
X96379668Y58331574D01*
X96360689Y58285756D01*
X95705746Y58940699D01*
X95631556Y58838582D01*
X95517221Y58614188D01*
X95439395Y58374664D01*
X95400000Y58125927D01*
X90600000Y58125927D01*
X90560604Y58374664D01*
X90482778Y58614188D01*
X90368443Y58838583D01*
X90368441Y58838587D01*
X90294252Y58940699D01*
X89639309Y58285757D01*
X89620332Y58331574D01*
X89543726Y58446224D01*
X89446224Y58543726D01*
X89331574Y58620332D01*
X89285754Y58639312D01*
X89940697Y59294254D01*
X89838586Y59368442D01*
X89838582Y59368444D01*
X89614187Y59482779D01*
X89374663Y59560605D01*
X89125926Y59600000D01*
X88874074Y59600000D01*
X88625336Y59560605D01*
X88385812Y59482779D01*
X88161418Y59368444D01*
X88059301Y59294254D01*
X88714244Y58639311D01*
X88668426Y58620332D01*
X88553776Y58543726D01*
X88456274Y58446224D01*
X88379668Y58331574D01*
X88360689Y58285756D01*
X87705746Y58940699D01*
X87631556Y58838582D01*
X87517221Y58614188D01*
X87439395Y58374664D01*
X87400000Y58125927D01*
X78400500Y58125927D01*
X78400500Y69793099D01*
X78419407Y69851290D01*
X78429496Y69863103D01*
X78829498Y70263105D01*
X79312811Y70746419D01*
X79367326Y70774194D01*
X79427758Y70764623D01*
X79471023Y70721358D01*
X79480594Y70660926D01*
X79468550Y70626913D01*
X79426793Y70554588D01*
X79399500Y70452727D01*
X79399500Y67219032D01*
X79380593Y67160841D01*
X79370506Y67149031D01*
X79359492Y67138017D01*
X79359487Y67138011D01*
X79287017Y67012490D01*
X79249500Y66872475D01*
X79249500Y66727526D01*
X79287017Y66587511D01*
X79359487Y66461990D01*
X79359489Y66461988D01*
X79359491Y66461985D01*
X79461985Y66359491D01*
X79461987Y66359490D01*
X79461989Y66359488D01*
X79587511Y66287018D01*
X79587512Y66287018D01*
X79587515Y66287016D01*
X79727525Y66249500D01*
X79727526Y66249500D01*
X79872474Y66249500D01*
X79872475Y66249500D01*
X80012485Y66287016D01*
X80012487Y66287018D01*
X80012489Y66287018D01*
X80138010Y66359488D01*
X80138010Y66359489D01*
X80138015Y66359491D01*
X80240509Y66461985D01*
X80312984Y66587515D01*
X80350500Y66727525D01*
X80350500Y66872475D01*
X80312984Y67012485D01*
X80312982Y67012488D01*
X80312982Y67012490D01*
X80240512Y67138011D01*
X80240507Y67138017D01*
X80229494Y67149031D01*
X80201718Y67203548D01*
X80200500Y67219032D01*
X80200500Y70193101D01*
X80219407Y70251292D01*
X80229490Y70263099D01*
X81045910Y71079519D01*
X81045913Y71079520D01*
X81120480Y71154087D01*
X81173207Y71245413D01*
X81174302Y71249500D01*
X81200501Y71347273D01*
X81200501Y71452727D01*
X81200501Y71458789D01*
X81200500Y71458807D01*
X81200500Y72652726D01*
X81197215Y72664987D01*
X81173207Y72754587D01*
X81120480Y72845913D01*
X81045913Y72920481D01*
X81045913Y72920480D01*
X79236397Y74729996D01*
X79208620Y74784513D01*
X79218191Y74844945D01*
X79236397Y74870004D01*
X79986897Y75620504D01*
X80041414Y75648281D01*
X80056901Y75649500D01*
X80072474Y75649500D01*
X80072475Y75649500D01*
X80212485Y75687016D01*
X80212487Y75687018D01*
X80212489Y75687018D01*
X80338010Y75759488D01*
X80338010Y75759489D01*
X80338015Y75759491D01*
X80440509Y75861985D01*
X80447489Y75874074D01*
X80512982Y75987511D01*
X80512982Y75987513D01*
X80512984Y75987515D01*
X80550072Y76125927D01*
X87400000Y76125927D01*
X87400000Y75874074D01*
X87439395Y75625337D01*
X87517221Y75385813D01*
X87631556Y75161418D01*
X87631558Y75161414D01*
X87705746Y75059303D01*
X88360688Y75714246D01*
X88379668Y75668426D01*
X88456274Y75553776D01*
X88553776Y75456274D01*
X88668426Y75379668D01*
X88714243Y75360691D01*
X88059301Y74705748D01*
X88161413Y74631559D01*
X88161417Y74631557D01*
X88385812Y74517222D01*
X88625336Y74439396D01*
X88874074Y74400000D01*
X89125926Y74400000D01*
X89374663Y74439396D01*
X89614187Y74517222D01*
X89838580Y74631556D01*
X89940696Y74705749D01*
X89285755Y75360690D01*
X89331574Y75379668D01*
X89446224Y75456274D01*
X89543726Y75553776D01*
X89620332Y75668426D01*
X89639310Y75714245D01*
X90294251Y75059304D01*
X90368444Y75161420D01*
X90482778Y75385813D01*
X90560604Y75625337D01*
X90600000Y75874074D01*
X90600000Y76125927D01*
X95400000Y76125927D01*
X95400000Y75874074D01*
X95439395Y75625337D01*
X95517221Y75385813D01*
X95631556Y75161418D01*
X95631558Y75161414D01*
X95705746Y75059303D01*
X96360688Y75714246D01*
X96379668Y75668426D01*
X96456274Y75553776D01*
X96553776Y75456274D01*
X96668426Y75379668D01*
X96714243Y75360691D01*
X96059301Y74705748D01*
X96161413Y74631559D01*
X96161417Y74631557D01*
X96385812Y74517222D01*
X96625336Y74439396D01*
X96874074Y74400000D01*
X97125926Y74400000D01*
X97374663Y74439396D01*
X97614187Y74517222D01*
X97838580Y74631556D01*
X97940696Y74705749D01*
X97285755Y75360690D01*
X97331574Y75379668D01*
X97446224Y75456274D01*
X97543726Y75553776D01*
X97620332Y75668426D01*
X97639310Y75714245D01*
X98294251Y75059304D01*
X98368444Y75161420D01*
X98482778Y75385813D01*
X98560604Y75625337D01*
X98600000Y75874074D01*
X98600000Y76125927D01*
X98560604Y76374664D01*
X98482778Y76614188D01*
X98368443Y76838583D01*
X98368441Y76838587D01*
X98294252Y76940699D01*
X97639309Y76285757D01*
X97620332Y76331574D01*
X97543726Y76446224D01*
X97446224Y76543726D01*
X97331574Y76620332D01*
X97285754Y76639312D01*
X97940697Y77294254D01*
X97838586Y77368442D01*
X97838582Y77368444D01*
X97614187Y77482779D01*
X97374663Y77560605D01*
X97125926Y77600000D01*
X96874074Y77600000D01*
X96625336Y77560605D01*
X96385812Y77482779D01*
X96161418Y77368444D01*
X96059301Y77294254D01*
X96714244Y76639311D01*
X96668426Y76620332D01*
X96553776Y76543726D01*
X96456274Y76446224D01*
X96379668Y76331574D01*
X96360689Y76285756D01*
X95705746Y76940699D01*
X95631556Y76838582D01*
X95517221Y76614188D01*
X95439395Y76374664D01*
X95400000Y76125927D01*
X90600000Y76125927D01*
X90560604Y76374664D01*
X90482778Y76614188D01*
X90368443Y76838583D01*
X90368441Y76838587D01*
X90294252Y76940699D01*
X89639309Y76285757D01*
X89620332Y76331574D01*
X89543726Y76446224D01*
X89446224Y76543726D01*
X89331574Y76620332D01*
X89285754Y76639312D01*
X89940697Y77294254D01*
X89838586Y77368442D01*
X89838582Y77368444D01*
X89614187Y77482779D01*
X89374663Y77560605D01*
X89125926Y77600000D01*
X88874074Y77600000D01*
X88625336Y77560605D01*
X88385812Y77482779D01*
X88161418Y77368444D01*
X88059301Y77294254D01*
X88714244Y76639311D01*
X88668426Y76620332D01*
X88553776Y76543726D01*
X88456274Y76446224D01*
X88379668Y76331574D01*
X88360689Y76285756D01*
X87705746Y76940699D01*
X87631556Y76838582D01*
X87517221Y76614188D01*
X87439395Y76374664D01*
X87400000Y76125927D01*
X80550072Y76125927D01*
X80550500Y76127525D01*
X80550500Y76272475D01*
X80512984Y76412485D01*
X80512982Y76412488D01*
X80512982Y76412490D01*
X80440512Y76538011D01*
X80440510Y76538013D01*
X80440509Y76538015D01*
X80338015Y76640509D01*
X80338012Y76640511D01*
X80338010Y76640513D01*
X80212488Y76712983D01*
X80212489Y76712983D01*
X80182896Y76720913D01*
X80072475Y76750500D01*
X79927525Y76750500D01*
X79865790Y76733959D01*
X79787510Y76712983D01*
X79661989Y76640513D01*
X79559487Y76538011D01*
X79487017Y76412490D01*
X79449500Y76272475D01*
X79449500Y76256901D01*
X79430593Y76198710D01*
X79420504Y76186897D01*
X78670003Y75436397D01*
X78615486Y75408620D01*
X78555054Y75418191D01*
X78529998Y75436395D01*
X73852232Y80114161D01*
X91549500Y80114161D01*
X91549500Y79885840D01*
X91585214Y79660345D01*
X91655769Y79443201D01*
X91759420Y79239773D01*
X91759424Y79239767D01*
X91893616Y79055069D01*
X91893618Y79055067D01*
X91893621Y79055063D01*
X92055063Y78893621D01*
X92055066Y78893619D01*
X92055068Y78893617D01*
X92239766Y78759425D01*
X92239772Y78759421D01*
X92443201Y78655769D01*
X92660340Y78585216D01*
X92660341Y78585216D01*
X92660344Y78585215D01*
X92885840Y78549500D01*
X92885843Y78549500D01*
X93114160Y78549500D01*
X93339655Y78585215D01*
X93339656Y78585216D01*
X93339660Y78585216D01*
X93556799Y78655769D01*
X93760228Y78759421D01*
X93944937Y78893621D01*
X94106379Y79055063D01*
X94240579Y79239772D01*
X94344231Y79443201D01*
X94414784Y79660340D01*
X94450500Y79885843D01*
X94450500Y80114157D01*
X94450500Y80114161D01*
X94414785Y80339656D01*
X94414784Y80339660D01*
X94344231Y80556799D01*
X94240579Y80760228D01*
X94175719Y80849500D01*
X94106383Y80944932D01*
X94106381Y80944934D01*
X94106379Y80944937D01*
X93944937Y81106379D01*
X93944933Y81106382D01*
X93944931Y81106384D01*
X93760233Y81240576D01*
X93760227Y81240580D01*
X93556799Y81344231D01*
X93339655Y81414786D01*
X93114160Y81450500D01*
X93114157Y81450500D01*
X92885843Y81450500D01*
X92885840Y81450500D01*
X92660344Y81414786D01*
X92443200Y81344231D01*
X92239772Y81240580D01*
X92239766Y81240576D01*
X92055068Y81106384D01*
X91893616Y80944932D01*
X91759424Y80760234D01*
X91759420Y80760228D01*
X91655769Y80556800D01*
X91585214Y80339656D01*
X91549500Y80114161D01*
X73852232Y80114161D01*
X72245913Y81720480D01*
X72245910Y81720482D01*
X72245908Y81720484D01*
X72154591Y81773206D01*
X72154593Y81773206D01*
X72115070Y81783796D01*
X72052727Y81800500D01*
X72052725Y81800500D01*
X62419031Y81800500D01*
X62360840Y81819407D01*
X62349033Y81829491D01*
X62338015Y81840509D01*
X62338012Y81840511D01*
X62338010Y81840513D01*
X62212488Y81912983D01*
X62212489Y81912983D01*
X62182896Y81920913D01*
X62072475Y81950500D01*
X61927525Y81950500D01*
X61865790Y81933959D01*
X61787510Y81912983D01*
X61661989Y81840513D01*
X61559487Y81738011D01*
X61487017Y81612490D01*
X61449500Y81472475D01*
X59800500Y81472475D01*
X59800500Y81780969D01*
X59819407Y81839160D01*
X59829490Y81850967D01*
X59840509Y81861985D01*
X59869953Y81912983D01*
X59912982Y81987511D01*
X59912982Y81987513D01*
X59912984Y81987515D01*
X59950500Y82127525D01*
X59950500Y82272475D01*
X59912984Y82412485D01*
X59912982Y82412488D01*
X59912982Y82412490D01*
X59840512Y82538011D01*
X59840510Y82538013D01*
X59840509Y82538015D01*
X59738015Y82640509D01*
X59708165Y82657743D01*
X59708164Y82657745D01*
X59612488Y82712983D01*
X59612489Y82712983D01*
X59558214Y82727526D01*
X59472475Y82750500D01*
X59327525Y82750500D01*
X59265790Y82733959D01*
X59187510Y82712983D01*
X59061989Y82640513D01*
X58959487Y82538011D01*
X58887017Y82412490D01*
X58849500Y82272475D01*
X58849500Y82127526D01*
X58887017Y81987511D01*
X58959487Y81861990D01*
X58959489Y81861988D01*
X58959491Y81861985D01*
X58970505Y81850971D01*
X58998281Y81796456D01*
X58999500Y81780969D01*
X58999500Y57052727D01*
X58999500Y56947273D01*
X59023570Y56857441D01*
X59026794Y56845408D01*
X59068548Y56773089D01*
X59081270Y56713241D01*
X59056383Y56657345D01*
X59003395Y56626752D01*
X58942545Y56633148D01*
X58912808Y56653585D01*
X54829496Y60736897D01*
X54801719Y60791414D01*
X54800500Y60806901D01*
X54800500Y81780969D01*
X54819407Y81839160D01*
X54829490Y81850967D01*
X54840509Y81861985D01*
X54869953Y81912983D01*
X54912982Y81987511D01*
X54912982Y81987513D01*
X54912984Y81987515D01*
X54950500Y82127525D01*
X54950500Y82272475D01*
X54912984Y82412485D01*
X54912982Y82412488D01*
X54912982Y82412490D01*
X54840512Y82538011D01*
X54840510Y82538013D01*
X54840509Y82538015D01*
X54738015Y82640509D01*
X54738012Y82640511D01*
X54738010Y82640513D01*
X54612488Y82712983D01*
X54612489Y82712983D01*
X54558214Y82727526D01*
X54472475Y82750500D01*
X54327525Y82750500D01*
X54265790Y82733959D01*
X54187510Y82712983D01*
X54061989Y82640513D01*
X53959487Y82538011D01*
X53887017Y82412490D01*
X53849500Y82272475D01*
X42800500Y82272475D01*
X42800500Y82380969D01*
X42819407Y82439160D01*
X42829490Y82450967D01*
X42840509Y82461985D01*
X42912984Y82587515D01*
X42950500Y82727525D01*
X42950500Y82872475D01*
X42912984Y83012485D01*
X42912982Y83012488D01*
X42912982Y83012490D01*
X42840512Y83138011D01*
X42840510Y83138013D01*
X42840509Y83138015D01*
X42738015Y83240509D01*
X42738012Y83240511D01*
X42738010Y83240513D01*
X42612488Y83312983D01*
X42612489Y83312983D01*
X42582896Y83320913D01*
X42472475Y83350500D01*
X42327525Y83350500D01*
X42265790Y83333959D01*
X42187510Y83312983D01*
X42061989Y83240513D01*
X41959487Y83138011D01*
X41887017Y83012490D01*
X41887016Y83012485D01*
X41849500Y82872475D01*
X500500Y82872475D01*
X500500Y84125927D01*
X87400000Y84125927D01*
X87400000Y83874074D01*
X87439395Y83625337D01*
X87517221Y83385813D01*
X87631556Y83161418D01*
X87631558Y83161414D01*
X87705746Y83059303D01*
X88360688Y83714246D01*
X88379668Y83668426D01*
X88456274Y83553776D01*
X88553776Y83456274D01*
X88668426Y83379668D01*
X88714243Y83360691D01*
X88059301Y82705748D01*
X88161413Y82631559D01*
X88161417Y82631557D01*
X88385812Y82517222D01*
X88625336Y82439396D01*
X88874074Y82400000D01*
X89125926Y82400000D01*
X89374663Y82439396D01*
X89614187Y82517222D01*
X89838580Y82631556D01*
X89940696Y82705749D01*
X89285755Y83360690D01*
X89331574Y83379668D01*
X89446224Y83456274D01*
X89543726Y83553776D01*
X89620332Y83668426D01*
X89639310Y83714245D01*
X90294251Y83059304D01*
X90368444Y83161420D01*
X90482778Y83385813D01*
X90560604Y83625337D01*
X90600000Y83874074D01*
X90600000Y84125927D01*
X95400000Y84125927D01*
X95400000Y83874074D01*
X95439395Y83625337D01*
X95517221Y83385813D01*
X95631556Y83161418D01*
X95631558Y83161414D01*
X95705746Y83059303D01*
X96360688Y83714246D01*
X96379668Y83668426D01*
X96456274Y83553776D01*
X96553776Y83456274D01*
X96668426Y83379668D01*
X96714243Y83360691D01*
X96059301Y82705748D01*
X96161413Y82631559D01*
X96161417Y82631557D01*
X96385812Y82517222D01*
X96625336Y82439396D01*
X96874074Y82400000D01*
X97125926Y82400000D01*
X97374663Y82439396D01*
X97614187Y82517222D01*
X97838580Y82631556D01*
X97940696Y82705749D01*
X97285755Y83360690D01*
X97331574Y83379668D01*
X97446224Y83456274D01*
X97543726Y83553776D01*
X97620332Y83668426D01*
X97639310Y83714245D01*
X98294251Y83059304D01*
X98368444Y83161420D01*
X98482778Y83385813D01*
X98560604Y83625337D01*
X98600000Y83874074D01*
X98600000Y84125927D01*
X98560604Y84374664D01*
X98482778Y84614188D01*
X98368443Y84838583D01*
X98368441Y84838587D01*
X98294252Y84940699D01*
X97639309Y84285757D01*
X97620332Y84331574D01*
X97543726Y84446224D01*
X97446224Y84543726D01*
X97331574Y84620332D01*
X97285754Y84639312D01*
X97940697Y85294254D01*
X97838586Y85368442D01*
X97838582Y85368444D01*
X97614187Y85482779D01*
X97374663Y85560605D01*
X97125926Y85600000D01*
X96874074Y85600000D01*
X96625336Y85560605D01*
X96385812Y85482779D01*
X96161418Y85368444D01*
X96059301Y85294254D01*
X96714244Y84639311D01*
X96668426Y84620332D01*
X96553776Y84543726D01*
X96456274Y84446224D01*
X96379668Y84331574D01*
X96360689Y84285756D01*
X95705746Y84940699D01*
X95631556Y84838582D01*
X95517221Y84614188D01*
X95439395Y84374664D01*
X95400000Y84125927D01*
X90600000Y84125927D01*
X90560604Y84374664D01*
X90482778Y84614188D01*
X90368443Y84838583D01*
X90368441Y84838587D01*
X90294252Y84940699D01*
X89639309Y84285757D01*
X89620332Y84331574D01*
X89543726Y84446224D01*
X89446224Y84543726D01*
X89331574Y84620332D01*
X89285754Y84639312D01*
X89940697Y85294254D01*
X89838586Y85368442D01*
X89838582Y85368444D01*
X89614187Y85482779D01*
X89374663Y85560605D01*
X89125926Y85600000D01*
X88874074Y85600000D01*
X88625336Y85560605D01*
X88385812Y85482779D01*
X88161418Y85368444D01*
X88059301Y85294254D01*
X88714244Y84639311D01*
X88668426Y84620332D01*
X88553776Y84543726D01*
X88456274Y84446224D01*
X88379668Y84331574D01*
X88360689Y84285756D01*
X87705746Y84940699D01*
X87631556Y84838582D01*
X87517221Y84614188D01*
X87439395Y84374664D01*
X87400000Y84125927D01*
X500500Y84125927D01*
X500500Y96997016D01*
X500681Y97002993D01*
X518362Y97295304D01*
X518363Y97295305D01*
X518362Y97295312D01*
X519801Y97307163D01*
X572052Y97592285D01*
X574912Y97603886D01*
X661148Y97880630D01*
X665378Y97891782D01*
X784350Y98156125D01*
X789891Y98166685D01*
X939868Y98414779D01*
X946632Y98424576D01*
X1125407Y98652765D01*
X1133319Y98661697D01*
X1338303Y98866681D01*
X1347235Y98874593D01*
X1575424Y99053368D01*
X1585221Y99060132D01*
X1833315Y99210109D01*
X1843875Y99215650D01*
X2108218Y99334622D01*
X2119370Y99338852D01*
X2396121Y99425090D01*
X2407715Y99427948D01*
X2692837Y99480199D01*
X2704688Y99481638D01*
X2997008Y99499319D01*
X3002985Y99499500D01*
X3065892Y99499500D01*
X96934108Y99499500D01*
X96997015Y99499500D01*
X97002992Y99499319D01*
G37*
%TD.AperFunction*%
%TD*%
M02*
