%TF.GenerationSoftware,KiCad,Pcbnew,10.0.6*%
%TF.CreationDate,2026-09-15T00:00:00+00:00*%
%TF.ProjectId,lorenz,6c6f7265-6e7a-42e6-9b69-6361645f7063,rev?*%
%TF.SameCoordinates,Original*%
%TF.FileFunction,Paste,Top*%
%TF.FilePolarity,Positive*%
%FSLAX46Y46*%
G04 Gerber Fmt 4.6, Leading zero omitted, Abs format (unit mm)*
G04 Created by KiCad (PCBNEW 10.0.6) date 2026-09-15*
%MOMM*%
%LPD*%
G01*
G04 APERTURE LIST*
G04 Aperture macros list*
%AMRoundRect*
0 Rectangle with rounded corners*
0 $1 Rounding radius*
0 $2 $3 $4 $5 $6 $7 $8 $9 X,Y pos of 4 corners*
0 Add a 4 corners polygon primitive as box body*
4,1,4,$2,$3,$4,$5,$6,$7,$8,$9,$2,$3,0*
0 Add four circle primitives for the rounded corners*
1,1,$1+$1,$2,$3*
1,1,$1+$1,$4,$5*
1,1,$1+$1,$6,$7*
1,1,$1+$1,$8,$9*
0 Add four rect primitives between the rounded corners*
20,1,$1+$1,$2,$3,$4,$5,0*
20,1,$1+$1,$4,$5,$6,$7,0*
20,1,$1+$1,$6,$7,$8,$9,0*
20,1,$1+$1,$8,$9,$2,$3,0*%
%AMFreePoly0*
4,1,9,3.862500,-0.866500,0.737500,-0.866500,0.737500,-0.450000,-0.737500,-0.450000,-0.737500,0.450000,0.737500,0.450000,0.737500,0.866500,3.862500,0.866500,3.862500,-0.866500,3.862500,-0.866500,$1*%
G04 Aperture macros list end*
%ADD10RoundRect,0.250000X0.650000X-0.325000X0.650000X0.325000X-0.650000X0.325000X-0.650000X-0.325000X0*%
%ADD11RoundRect,0.150000X-0.150000X-0.575000X0.150000X-0.575000X0.150000X0.575000X-0.150000X0.575000X0*%
%ADD12RoundRect,0.075000X-0.075000X-0.650000X0.075000X-0.650000X0.075000X0.650000X-0.075000X0.650000X0*%
%ADD13RoundRect,0.250000X0.475000X-0.250000X0.475000X0.250000X-0.475000X0.250000X-0.475000X-0.250000X0*%
%ADD14RoundRect,0.150000X-0.825000X-0.150000X0.825000X-0.150000X0.825000X0.150000X-0.825000X0.150000X0*%
%ADD15RoundRect,0.250000X0.450000X-0.262500X0.450000X0.262500X-0.450000X0.262500X-0.450000X-0.262500X0*%
%ADD16RoundRect,0.250000X-0.250000X-0.475000X0.250000X-0.475000X0.250000X0.475000X-0.250000X0.475000X0*%
%ADD17RoundRect,0.250000X-0.262500X-0.450000X0.262500X-0.450000X0.262500X0.450000X-0.262500X0.450000X0*%
%ADD18RoundRect,0.150000X-0.875000X-0.150000X0.875000X-0.150000X0.875000X0.150000X-0.875000X0.150000X0*%
%ADD19RoundRect,0.225000X-0.425000X-0.225000X0.425000X-0.225000X0.425000X0.225000X-0.425000X0.225000X0*%
%ADD20FreePoly0,0.000000*%
%ADD21RoundRect,0.281250X1.418750X-0.281250X1.418750X0.281250X-1.418750X0.281250X-1.418750X-0.281250X0*%
%ADD22RoundRect,0.375000X0.375000X-0.825000X0.375000X0.825000X-0.375000X0.825000X-0.375000X-0.825000X0*%
%ADD23RoundRect,0.237500X-0.362500X-0.237500X0.362500X-0.237500X0.362500X0.237500X-0.362500X0.237500X0*%
G04 APERTURE END LIST*
D10*
%TO.C,C3*%
X55000000Y84525000D03*
X55000000Y87475000D03*
%TD*%
D11*
%TO.C,J1*%
X9800000Y10045000D03*
X10600000Y10045000D03*
D12*
X11800000Y10045000D03*
X12800000Y10045000D03*
X13300000Y10045000D03*
X14300000Y10045000D03*
D11*
X15500000Y10045000D03*
X16300000Y10045000D03*
X16300000Y10045000D03*
X15500000Y10045000D03*
D12*
X14800000Y10045000D03*
X13800000Y10045000D03*
X12300000Y10045000D03*
X11300000Y10045000D03*
D11*
X10600000Y10045000D03*
X9800000Y10045000D03*
%TD*%
D13*
%TO.C,C17*%
X65000000Y76050000D03*
X65000000Y77950000D03*
%TD*%
D14*
%TO.C,U1*%
X69525000Y82905000D03*
X69525000Y81635000D03*
X69525000Y80365000D03*
X69525000Y79095000D03*
X74475000Y79095000D03*
X74475000Y80365000D03*
X74475000Y81635000D03*
X74475000Y82905000D03*
%TD*%
D13*
%TO.C,C12*%
X59000000Y13050000D03*
X59000000Y14950000D03*
%TD*%
D15*
%TO.C,R7*%
X35000000Y30087500D03*
X35000000Y31912500D03*
%TD*%
D16*
%TO.C,C24*%
X57050000Y27000000D03*
X58950000Y27000000D03*
%TD*%
D15*
%TO.C,R13*%
X70000000Y48087500D03*
X70000000Y49912500D03*
%TD*%
%TO.C,R14*%
X70000000Y42587500D03*
X70000000Y44412500D03*
%TD*%
D17*
%TO.C,R17*%
X57087500Y32000000D03*
X58912500Y32000000D03*
%TD*%
D13*
%TO.C,C23*%
X22000000Y37550000D03*
X22000000Y39450000D03*
%TD*%
%TO.C,C26*%
X64500000Y13050000D03*
X64500000Y14950000D03*
%TD*%
%TO.C,C15*%
X82000000Y4050000D03*
X82000000Y5950000D03*
%TD*%
D15*
%TO.C,R3*%
X35000000Y61087500D03*
X35000000Y62912500D03*
%TD*%
D17*
%TO.C,R16*%
X57087500Y37000000D03*
X58912500Y37000000D03*
%TD*%
D15*
%TO.C,R9*%
X85500000Y55087500D03*
X85500000Y56912500D03*
%TD*%
D18*
%TO.C,U4*%
X7350000Y47945000D03*
X7350000Y46675000D03*
X7350000Y45405000D03*
X7350000Y44135000D03*
X7350000Y42865000D03*
X7350000Y41595000D03*
X7350000Y40325000D03*
X7350000Y39055000D03*
X16650000Y39055000D03*
X16650000Y40325000D03*
X16650000Y41595000D03*
X16650000Y42865000D03*
X16650000Y44135000D03*
X16650000Y45405000D03*
X16650000Y46675000D03*
X16650000Y47945000D03*
%TD*%
D15*
%TO.C,R11*%
X11800000Y12687500D03*
X11800000Y14512500D03*
%TD*%
D10*
%TO.C,C9*%
X55000000Y32525000D03*
X55000000Y35475000D03*
%TD*%
D13*
%TO.C,C19*%
X65000000Y26050000D03*
X65000000Y27950000D03*
%TD*%
D17*
%TO.C,R18*%
X42087500Y17500000D03*
X43912500Y17500000D03*
%TD*%
D13*
%TO.C,C4*%
X43000000Y67050000D03*
X43000000Y68950000D03*
%TD*%
D16*
%TO.C,C25*%
X42050000Y14000000D03*
X43950000Y14000000D03*
%TD*%
D19*
%TO.C,U6*%
X68050000Y15500000D03*
D20*
X68137500Y14000000D03*
D19*
X68050000Y12500000D03*
%TD*%
D21*
%TO.C,F1*%
X24000000Y11862500D03*
X24000000Y16137500D03*
%TD*%
D15*
%TO.C,R6*%
X35000000Y36087500D03*
X35000000Y37912500D03*
%TD*%
D13*
%TO.C,C10*%
X30000000Y13050000D03*
X30000000Y14950000D03*
%TD*%
%TO.C,C13*%
X59000000Y4050000D03*
X59000000Y5950000D03*
%TD*%
D22*
%TO.C,SW1*%
X49650000Y43600000D03*
X52190000Y43600000D03*
X54730000Y43600000D03*
X57270000Y43600000D03*
X59810000Y43600000D03*
X62350000Y43600000D03*
X62350000Y52400000D03*
X59810000Y52400000D03*
X57270000Y52400000D03*
X54730000Y52400000D03*
X52190000Y52400000D03*
X49650000Y52400000D03*
%TD*%
D15*
%TO.C,R1*%
X35000000Y85087500D03*
X35000000Y86912500D03*
%TD*%
%TO.C,R4*%
X35000000Y55087500D03*
X35000000Y56912500D03*
%TD*%
D13*
%TO.C,C14*%
X81000000Y13050000D03*
X81000000Y14950000D03*
%TD*%
D23*
%TO.C,D1*%
X81400000Y42775000D03*
X81400000Y44225000D03*
X84600000Y44225000D03*
X84600000Y42775000D03*
%TD*%
D10*
%TO.C,C5*%
X49000000Y66525000D03*
X49000000Y69475000D03*
%TD*%
D19*
%TO.C,U7*%
X68050000Y6500000D03*
D20*
X68137500Y5000000D03*
D19*
X68050000Y3500000D03*
%TD*%
D13*
%TO.C,C27*%
X76000000Y13050000D03*
X76000000Y14950000D03*
%TD*%
D15*
%TO.C,R2*%
X35000000Y79087500D03*
X35000000Y80912500D03*
%TD*%
D13*
%TO.C,C16*%
X65000000Y84050000D03*
X65000000Y85950000D03*
%TD*%
D15*
%TO.C,R15*%
X70000000Y37087500D03*
X70000000Y38912500D03*
%TD*%
D13*
%TO.C,C7*%
X43000000Y33050000D03*
X43000000Y34950000D03*
%TD*%
D15*
%TO.C,R5*%
X35000000Y49087500D03*
X35000000Y50912500D03*
%TD*%
%TO.C,R12*%
X14800000Y12687500D03*
X14800000Y14512500D03*
%TD*%
D18*
%TO.C,U3*%
X7350000Y72945000D03*
X7350000Y71675000D03*
X7350000Y70405000D03*
X7350000Y69135000D03*
X7350000Y67865000D03*
X7350000Y66595000D03*
X7350000Y65325000D03*
X7350000Y64055000D03*
X16650000Y64055000D03*
X16650000Y65325000D03*
X16650000Y66595000D03*
X16650000Y67865000D03*
X16650000Y69135000D03*
X16650000Y70405000D03*
X16650000Y71675000D03*
X16650000Y72945000D03*
%TD*%
D13*
%TO.C,C1*%
X43000000Y85050000D03*
X43000000Y86950000D03*
%TD*%
D10*
%TO.C,C6*%
X55000000Y66525000D03*
X55000000Y69475000D03*
%TD*%
D14*
%TO.C,U2*%
X69525000Y32905000D03*
X69525000Y31635000D03*
X69525000Y30365000D03*
X69525000Y29095000D03*
X74475000Y29095000D03*
X74475000Y30365000D03*
X74475000Y31635000D03*
X74475000Y32905000D03*
%TD*%
D13*
%TO.C,C22*%
X22000000Y47550000D03*
X22000000Y49450000D03*
%TD*%
%TO.C,C18*%
X65000000Y34050000D03*
X65000000Y35950000D03*
%TD*%
%TO.C,C21*%
X22000000Y62550000D03*
X22000000Y64450000D03*
%TD*%
D10*
%TO.C,C2*%
X49000000Y84525000D03*
X49000000Y87475000D03*
%TD*%
D13*
%TO.C,C11*%
X34000000Y13050000D03*
X34000000Y14950000D03*
%TD*%
D15*
%TO.C,R10*%
X85500000Y30087500D03*
X85500000Y31912500D03*
%TD*%
%TO.C,R8*%
X85500000Y80087500D03*
X85500000Y81912500D03*
%TD*%
D13*
%TO.C,C28*%
X64000000Y4050000D03*
X64000000Y5950000D03*
%TD*%
D10*
%TO.C,C8*%
X49000000Y32525000D03*
X49000000Y35475000D03*
%TD*%
D13*
%TO.C,C29*%
X76500000Y4050000D03*
X76500000Y5950000D03*
%TD*%
%TO.C,C20*%
X22000000Y72550000D03*
X22000000Y74450000D03*
%TD*%
M02*
