%TF.GenerationSoftware,KiCad,Pcbnew,10.0.6*%
%TF.CreationDate,2026-09-15T00:00:00+00:00*%
%TF.ProjectId,lorenz,6c6f7265-6e7a-42e6-9b69-6361645f7063,rev?*%
%TF.SameCoordinates,Original*%
%TF.FileFunction,Paste,Top*%
%TF.FilePolarity,Positive*%
%FSLAX46Y46*%
G04 Gerber Fmt 4.6, Leading zero omitted, Abs format (unit mm)*
G04 Created by KiCad (PCBNEW 10.0.6) date 2026-09-15*
%MOMM*%
%LPD*%
G01*
G04 APERTURE LIST*
G04 Aperture macros list*
%AMRoundRect*
0 Rectangle with rounded corners*
0 $1 Rounding radius*
0 $2 $3 $4 $5 $6 $7 $8 $9 X,Y pos of 4 corners*
0 Add a 4 corners polygon primitive as box body*
4,1,4,$2,$3,$4,$5,$6,$7,$8,$9,$2,$3,0*
0 Add four circle primitives for the rounded corners*
1,1,$1+$1,$2,$3*
1,1,$1+$1,$4,$5*
1,1,$1+$1,$6,$7*
1,1,$1+$1,$8,$9*
0 Add four rect primitives between the rounded corners*
20,1,$1+$1,$2,$3,$4,$5,0*
20,1,$1+$1,$4,$5,$6,$7,0*
20,1,$1+$1,$6,$7,$8,$9,0*
20,1,$1+$1,$8,$9,$2,$3,0*%
%AMFreePoly0*
4,1,9,3.862500,-0.866500,0.737500,-0.866500,0.737500,-0.450000,-0.737500,-0.450000,-0.737500,0.450000,0.737500,0.450000,0.737500,0.866500,3.862500,0.866500,3.862500,-0.866500,3.862500,-0.866500,$1*%
G04 Aperture macros list end*
%ADD10RoundRect,0.250000X0.650000X-0.325000X0.650000X0.325000X-0.650000X0.325000X-0.650000X-0.325000X0*%
%ADD11RoundRect,0.150000X-0.150000X-0.575000X0.150000X-0.575000X0.150000X0.575000X-0.150000X0.575000X0*%
%ADD12RoundRect,0.075000X-0.075000X-0.650000X0.075000X-0.650000X0.075000X0.650000X-0.075000X0.650000X0*%
%ADD13RoundRect,0.250000X0.475000X-0.250000X0.475000X0.250000X-0.475000X0.250000X-0.475000X-0.250000X0*%
%ADD14RoundRect,0.237500X-0.362500X-0.237500X0.362500X-0.237500X0.362500X0.237500X-0.362500X0.237500X0*%
%ADD15RoundRect,0.150000X-0.825000X-0.150000X0.825000X-0.150000X0.825000X0.150000X-0.825000X0.150000X0*%
%ADD16RoundRect,0.250000X0.450000X-0.262500X0.450000X0.262500X-0.450000X0.262500X-0.450000X-0.262500X0*%
%ADD17RoundRect,0.250000X-0.262500X-0.450000X0.262500X-0.450000X0.262500X0.450000X-0.262500X0.450000X0*%
%ADD18RoundRect,0.150000X-0.875000X-0.150000X0.875000X-0.150000X0.875000X0.150000X-0.875000X0.150000X0*%
%ADD19RoundRect,0.250000X-0.250000X-0.475000X0.250000X-0.475000X0.250000X0.475000X-0.250000X0.475000X0*%
%ADD20RoundRect,0.225000X-0.425000X-0.225000X0.425000X-0.225000X0.425000X0.225000X-0.425000X0.225000X0*%
%ADD21FreePoly0,0.000000*%
%ADD22RoundRect,0.250000X1.450000X-0.312500X1.450000X0.312500X-1.450000X0.312500X-1.450000X-0.312500X0*%
%ADD23RoundRect,0.243750X-0.243750X-0.456250X0.243750X-0.456250X0.243750X0.456250X-0.243750X0.456250X0*%
%ADD24RoundRect,0.375000X0.375000X-0.825000X0.375000X0.825000X-0.375000X0.825000X-0.375000X-0.825000X0*%
G04 APERTURE END LIST*
D10*
%TO.C,C3*%
X59000000Y83525000D03*
X59000000Y86475000D03*
%TD*%
D11*
%TO.C,J1*%
X9800000Y10045000D03*
X10600000Y10045000D03*
D12*
X11800000Y10045000D03*
X12800000Y10045000D03*
X13300000Y10045000D03*
X14300000Y10045000D03*
D11*
X15500000Y10045000D03*
X16300000Y10045000D03*
X16300000Y10045000D03*
X15500000Y10045000D03*
D12*
X14800000Y10045000D03*
X13800000Y10045000D03*
X12300000Y10045000D03*
X11300000Y10045000D03*
D11*
X10600000Y10045000D03*
X9800000Y10045000D03*
%TD*%
D13*
%TO.C,C17*%
X78000000Y63050000D03*
X78000000Y64950000D03*
%TD*%
D14*
%TO.C,D4*%
X91900000Y43275000D03*
X91900000Y44725000D03*
X95100000Y44725000D03*
X95100000Y43275000D03*
%TD*%
D15*
%TO.C,U1*%
X75525000Y72905000D03*
X75525000Y71635000D03*
X75525000Y70365000D03*
X75525000Y69095000D03*
X80475000Y69095000D03*
X80475000Y70365000D03*
X80475000Y71635000D03*
X80475000Y72905000D03*
%TD*%
D13*
%TO.C,C12*%
X59000000Y13050000D03*
X59000000Y14950000D03*
%TD*%
D16*
%TO.C,R7*%
X42000000Y30087500D03*
X42000000Y31912500D03*
%TD*%
D13*
%TO.C,C24*%
X70000000Y29050000D03*
X70000000Y30950000D03*
%TD*%
D17*
%TO.C,R13*%
X21087500Y20000000D03*
X22912500Y20000000D03*
%TD*%
%TO.C,R14*%
X69087500Y3500000D03*
X70912500Y3500000D03*
%TD*%
D16*
%TO.C,R17*%
X85000000Y43087500D03*
X85000000Y44912500D03*
%TD*%
D13*
%TO.C,C23*%
X31500000Y35050000D03*
X31500000Y36950000D03*
%TD*%
%TO.C,C15*%
X94000000Y12050000D03*
X94000000Y13950000D03*
%TD*%
D16*
%TO.C,R3*%
X42000000Y61087500D03*
X42000000Y62912500D03*
%TD*%
%TO.C,R16*%
X85000000Y47087500D03*
X85000000Y48912500D03*
%TD*%
%TO.C,R9*%
X86000000Y55087500D03*
X86000000Y56912500D03*
%TD*%
D18*
%TO.C,U4*%
X17350000Y47945000D03*
X17350000Y46675000D03*
X17350000Y45405000D03*
X17350000Y44135000D03*
X17350000Y42865000D03*
X17350000Y41595000D03*
X17350000Y40325000D03*
X17350000Y39055000D03*
X26650000Y39055000D03*
X26650000Y40325000D03*
X26650000Y41595000D03*
X26650000Y42865000D03*
X26650000Y44135000D03*
X26650000Y45405000D03*
X26650000Y46675000D03*
X26650000Y47945000D03*
%TD*%
D16*
%TO.C,R20*%
X70000000Y33087500D03*
X70000000Y34912500D03*
%TD*%
%TO.C,R11*%
X11800000Y12687500D03*
X11800000Y14512500D03*
%TD*%
D10*
%TO.C,C9*%
X59000000Y35525000D03*
X59000000Y38475000D03*
%TD*%
D13*
%TO.C,C19*%
X78000000Y23050000D03*
X78000000Y24950000D03*
%TD*%
D16*
%TO.C,R18*%
X85000000Y39087500D03*
X85000000Y40912500D03*
%TD*%
D13*
%TO.C,C4*%
X49000000Y65050000D03*
X49000000Y66950000D03*
%TD*%
D19*
%TO.C,C25*%
X42050000Y15000000D03*
X43950000Y15000000D03*
%TD*%
D20*
%TO.C,U6*%
X76050000Y11500000D03*
D21*
X76137500Y10000000D03*
D20*
X76050000Y8500000D03*
%TD*%
D22*
%TO.C,F1*%
X24000000Y11862500D03*
X24000000Y16137500D03*
%TD*%
D16*
%TO.C,R6*%
X42000000Y36087500D03*
X42000000Y37912500D03*
%TD*%
D23*
%TO.C,D2*%
X74062500Y3500000D03*
X75937500Y3500000D03*
%TD*%
D13*
%TO.C,C10*%
X30000000Y13050000D03*
X30000000Y14950000D03*
%TD*%
%TO.C,C13*%
X59000000Y6050000D03*
X59000000Y7950000D03*
%TD*%
D24*
%TO.C,SW1*%
X59650000Y43600000D03*
X62190000Y43600000D03*
X64730000Y43600000D03*
X67270000Y43600000D03*
X69810000Y43600000D03*
X72350000Y43600000D03*
X72350000Y52400000D03*
X69810000Y52400000D03*
X67270000Y52400000D03*
X64730000Y52400000D03*
X62190000Y52400000D03*
X59650000Y52400000D03*
%TD*%
D16*
%TO.C,R1*%
X42000000Y84087500D03*
X42000000Y85912500D03*
%TD*%
%TO.C,R4*%
X42000000Y55087500D03*
X42000000Y56912500D03*
%TD*%
D13*
%TO.C,C14*%
X84000000Y14050000D03*
X84000000Y15950000D03*
%TD*%
D23*
%TO.C,D1*%
X26062500Y20000000D03*
X27937500Y20000000D03*
%TD*%
D10*
%TO.C,C5*%
X54000000Y64525000D03*
X54000000Y67475000D03*
%TD*%
D20*
%TO.C,U7*%
X86050000Y11500000D03*
D21*
X86137500Y10000000D03*
D20*
X86050000Y8500000D03*
%TD*%
D16*
%TO.C,R2*%
X42000000Y78087500D03*
X42000000Y79912500D03*
%TD*%
D13*
%TO.C,C16*%
X78000000Y77050000D03*
X78000000Y78950000D03*
%TD*%
D17*
%TO.C,R15*%
X80087500Y3500000D03*
X81912500Y3500000D03*
%TD*%
D13*
%TO.C,C7*%
X49000000Y36050000D03*
X49000000Y37950000D03*
%TD*%
D16*
%TO.C,R5*%
X42000000Y49087500D03*
X42000000Y50912500D03*
%TD*%
%TO.C,R12*%
X14800000Y12687500D03*
X14800000Y14512500D03*
%TD*%
D18*
%TO.C,U3*%
X17350000Y72945000D03*
X17350000Y71675000D03*
X17350000Y70405000D03*
X17350000Y69135000D03*
X17350000Y67865000D03*
X17350000Y66595000D03*
X17350000Y65325000D03*
X17350000Y64055000D03*
X26650000Y64055000D03*
X26650000Y65325000D03*
X26650000Y66595000D03*
X26650000Y67865000D03*
X26650000Y69135000D03*
X26650000Y70405000D03*
X26650000Y71675000D03*
X26650000Y72945000D03*
%TD*%
D13*
%TO.C,C1*%
X49000000Y84050000D03*
X49000000Y85950000D03*
%TD*%
D10*
%TO.C,C6*%
X59000000Y64525000D03*
X59000000Y67475000D03*
%TD*%
D15*
%TO.C,U2*%
X75525000Y32905000D03*
X75525000Y31635000D03*
X75525000Y30365000D03*
X75525000Y29095000D03*
X80475000Y29095000D03*
X80475000Y30365000D03*
X80475000Y31635000D03*
X80475000Y32905000D03*
%TD*%
D13*
%TO.C,C22*%
X31500000Y50050000D03*
X31500000Y51950000D03*
%TD*%
%TO.C,C18*%
X78000000Y37050000D03*
X78000000Y38950000D03*
%TD*%
%TO.C,C21*%
X31500000Y60050000D03*
X31500000Y61950000D03*
%TD*%
D16*
%TO.C,R19*%
X70000000Y37087500D03*
X70000000Y38912500D03*
%TD*%
D10*
%TO.C,C2*%
X54000000Y83525000D03*
X54000000Y86475000D03*
%TD*%
D13*
%TO.C,C11*%
X33000000Y13050000D03*
X33000000Y14950000D03*
%TD*%
D16*
%TO.C,R10*%
X86000000Y30087500D03*
X86000000Y31912500D03*
%TD*%
%TO.C,R8*%
X86000000Y80087500D03*
X86000000Y81912500D03*
%TD*%
D23*
%TO.C,D3*%
X85062500Y3500000D03*
X86937500Y3500000D03*
%TD*%
D10*
%TO.C,C8*%
X54000000Y35525000D03*
X54000000Y38475000D03*
%TD*%
D17*
%TO.C,R21*%
X42087500Y18000000D03*
X43912500Y18000000D03*
%TD*%
D13*
%TO.C,C20*%
X31500000Y75050000D03*
X31500000Y76950000D03*
%TD*%
M02*
