#VRML V2.0 utf8
# Generated by scripts/gen_models.py -- a plain stand-in body.
Transform { translation 0.0000 0.0000 6.1000 children [
  Shape { appearance Appearance { material Material { diffuseColor 0.52 0.54 0.57 specularColor 0.2 0.2 0.2 shininess 0.3 } }
    geometry Box { size 10.0000 10.0000 12.2000 } } ] }
Shape {
  appearance Appearance { material Material { diffuseColor 0.52 0.54 0.57 specularColor 0.2 0.2 0.2 shininess 0.3 } }
  geometry IndexedFaceSet {
    creaseAngle 1.0 solid TRUE
    coord Coordinate { point [ 5.0000 4.8000 6.1000, 5.0000 4.4346 7.9369, 5.0000 3.3941 9.4941, 5.0000 1.8369 10.5346, 5.0000 0.0000 10.9000, 5.0000 -1.8369 10.5346, 5.0000 -3.3941 9.4941, 5.0000 -4.4346 7.9369, 5.0000 -4.8000 6.1000, 5.0000 -4.4346 4.2631, 5.0000 -3.3941 2.7059, 5.0000 -1.8369 1.6654, 5.0000 -0.0000 1.3000, 5.0000 1.8369 1.6654, 5.0000 3.3941 2.7059, 5.0000 4.4346 4.2631, 19.5000 4.8000 6.1000, 19.5000 4.4346 7.9369, 19.5000 3.3941 9.4941, 19.5000 1.8369 10.5346, 19.5000 0.0000 10.9000, 19.5000 -1.8369 10.5346, 19.5000 -3.3941 9.4941, 19.5000 -4.4346 7.9369, 19.5000 -4.8000 6.1000, 19.5000 -4.4346 4.2631, 19.5000 -3.3941 2.7059, 19.5000 -1.8369 1.6654, 19.5000 -0.0000 1.3000, 19.5000 1.8369 1.6654, 19.5000 3.3941 2.7059, 19.5000 4.4346 4.2631 ] }
    coordIndex [ 0 1 17 16 -1 1 2 18 17 -1 2 3 19 18 -1 3 4 20 19 -1 4 5 21 20 -1 5 6 22 21 -1 6 7 23 22 -1 7 8 24 23 -1 8 9 25 24 -1 9 10 26 25 -1 10 11 27 26 -1 11 12 28 27 -1 12 13 29 28 -1 13 14 30 29 -1 14 15 31 30 -1 15 0 16 31 -1 0 1 2 3 4 5 6 7 8 9 10 11 12 13 14 15 -1 31 30 29 28 27 26 25 24 23 22 21 20 19 18 17 16 -1 ]
  } }
Shape {
  appearance Appearance { material Material { diffuseColor 0.52 0.54 0.57 specularColor 0.2 0.2 0.2 shininess 0.3 } }
  geometry IndexedFaceSet {
    creaseAngle 1.0 solid TRUE
    coord Coordinate { point [ 19.5000 6.0000 6.1000, 19.5000 3.0000 11.2962, 19.5000 -3.0000 11.2962, 19.5000 -6.0000 6.1000, 19.5000 -3.0000 0.9038, 19.5000 3.0000 0.9038, 23.0000 6.0000 6.1000, 23.0000 3.0000 11.2962, 23.0000 -3.0000 11.2962, 23.0000 -6.0000 6.1000, 23.0000 -3.0000 0.9038, 23.0000 3.0000 0.9038 ] }
    coordIndex [ 0 1 7 6 -1 1 2 8 7 -1 2 3 9 8 -1 3 4 10 9 -1 4 5 11 10 -1 5 0 6 11 -1 0 1 2 3 4 5 -1 11 10 9 8 7 6 -1 ]
  } }
Shape {
  appearance Appearance { material Material { diffuseColor 0.52 0.54 0.57 specularColor 0.2 0.2 0.2 shininess 0.3 } }
  geometry IndexedFaceSet {
    creaseAngle 1.0 solid TRUE
    coord Coordinate { point [ 23.0000 4.0000 6.1000, 23.0000 3.6955 7.6307, 23.0000 2.8284 8.9284, 23.0000 1.5307 9.7955, 23.0000 0.0000 10.1000, 23.0000 -1.5307 9.7955, 23.0000 -2.8284 8.9284, 23.0000 -3.6955 7.6307, 23.0000 -4.0000 6.1000, 23.0000 -3.6955 4.5693, 23.0000 -2.8284 3.2716, 23.0000 -1.5307 2.4045, 23.0000 -0.0000 2.1000, 23.0000 1.5307 2.4045, 23.0000 2.8284 3.2716, 23.0000 3.6955 4.5693, 24.5000 4.0000 6.1000, 24.5000 3.6955 7.6307, 24.5000 2.8284 8.9284, 24.5000 1.5307 9.7955, 24.5000 0.0000 10.1000, 24.5000 -1.5307 9.7955, 24.5000 -2.8284 8.9284, 24.5000 -3.6955 7.6307, 24.5000 -4.0000 6.1000, 24.5000 -3.6955 4.5693, 24.5000 -2.8284 3.2716, 24.5000 -1.5307 2.4045, 24.5000 -0.0000 2.1000, 24.5000 1.5307 2.4045, 24.5000 2.8284 3.2716, 24.5000 3.6955 4.5693 ] }
    coordIndex [ 0 1 17 16 -1 1 2 18 17 -1 2 3 19 18 -1 3 4 20 19 -1 4 5 21 20 -1 5 6 22 21 -1 6 7 23 22 -1 7 8 24 23 -1 8 9 25 24 -1 9 10 26 25 -1 10 11 27 26 -1 11 12 28 27 -1 12 13 29 28 -1 13 14 30 29 -1 14 15 31 30 -1 15 0 16 31 -1 0 1 2 3 4 5 6 7 8 9 10 11 12 13 14 15 -1 31 30 29 28 27 26 25 24 23 22 21 20 19 18 17 16 -1 ]
  } }
Shape {
  appearance Appearance { material Material { diffuseColor 0.85 0.7 0.3 specularColor 0.2 0.2 0.2 shininess 0.3 } }
  geometry IndexedFaceSet {
    creaseAngle 1.0 solid TRUE
    coord Coordinate { point [ 6.0000 0.6000 6.1000, 6.0000 0.5543 6.3296, 6.0000 0.4243 6.5243, 6.0000 0.2296 6.6543, 6.0000 0.0000 6.7000, 6.0000 -0.2296 6.6543, 6.0000 -0.4243 6.5243, 6.0000 -0.5543 6.3296, 6.0000 -0.6000 6.1000, 6.0000 -0.5543 5.8704, 6.0000 -0.4243 5.6757, 6.0000 -0.2296 5.5457, 6.0000 -0.0000 5.5000, 6.0000 0.2296 5.5457, 6.0000 0.4243 5.6757, 6.0000 0.5543 5.8704, 24.5000 0.6000 6.1000, 24.5000 0.5543 6.3296, 24.5000 0.4243 6.5243, 24.5000 0.2296 6.6543, 24.5000 0.0000 6.7000, 24.5000 -0.2296 6.6543, 24.5000 -0.4243 6.5243, 24.5000 -0.5543 6.3296, 24.5000 -0.6000 6.1000, 24.5000 -0.5543 5.8704, 24.5000 -0.4243 5.6757, 24.5000 -0.2296 5.5457, 24.5000 -0.0000 5.5000, 24.5000 0.2296 5.5457, 24.5000 0.4243 5.6757, 24.5000 0.5543 5.8704 ] }
    coordIndex [ 0 1 17 16 -1 1 2 18 17 -1 2 3 19 18 -1 3 4 20 19 -1 4 5 21 20 -1 5 6 22 21 -1 6 7 23 22 -1 7 8 24 23 -1 8 9 25 24 -1 9 10 26 25 -1 10 11 27 26 -1 11 12 28 27 -1 12 13 29 28 -1 13 14 30 29 -1 14 15 31 30 -1 15 0 16 31 -1 0 1 2 3 4 5 6 7 8 9 10 11 12 13 14 15 -1 31 30 29 28 27 26 25 24 23 22 21 20 19 18 17 16 -1 ]
  } }
