#VRML V2.0 utf8
# Generated by scripts/gen_models.py -- a plain stand-in body.
Transform { translation 0.0000 0.0000 0.4200 children [
  Shape { appearance Appearance { material Material { diffuseColor 0.88 0.88 0.86 specularColor 0.2 0.2 0.2 shininess 0.3 } }
    geometry Box { size 3.5000 2.8000 0.8400 } } ] }
Transform { translation 0.0000 0.0000 1.3500 children [
  Shape { appearance Appearance { material Material { diffuseColor 0.8 0.82 0.84 specularColor 0.2 0.2 0.2 shininess 0.3 } }
    geometry Box { size 3.1000 2.4000 1.0200 } } ] }
Transform { translation 0.0000 0.0000 0.3000 children [
  Shape { appearance Appearance { material Material { diffuseColor 0.35 0.35 0.38 specularColor 0.2 0.2 0.2 shininess 0.3 } }
    geometry Box { size 2.0000 1.4000 0.1000 } } ] }
