#VRML V2.0 utf8
# Generated by scripts/gen_models.py -- a plain stand-in body.
Transform { translation 0.0000 0.0000 2.4150 children [
  Shape { appearance Appearance { material Material { diffuseColor 0.1 0.18 0.55 specularColor 0.2 0.2 0.2 shininess 0.3 } }
    geometry Box { size 9.5300 9.5300 4.8300 } } ] }
Transform { translation 0.0000 0.0000 4.9000 children [
  Shape { appearance Appearance { material Material { diffuseColor 0.85 0.85 0.88 specularColor 0.2 0.2 0.2 shininess 0.3 } }
    geometry Box { size 5.6000 5.6000 0.3000 } } ] }
Transform { translation 0.0000 0.0000 5.0500 children [
  Shape { appearance Appearance { material Material { diffuseColor 0.25 0.25 0.28 specularColor 0.2 0.2 0.2 shininess 0.3 } }
    geometry Box { size 3.1500 0.7600 0.3000 } } ] }
