#VRML V2.0 utf8
# Generated by scripts/gen_models.py -- a plain stand-in body.
Transform { translation 0.0000 0.0000 1.1500 children [
  Shape { appearance Appearance { material Material { diffuseColor 0.12 0.12 0.13 specularColor 0.2 0.2 0.2 shininess 0.3 } }
    geometry Box { size 6.0000 15.2400 1.8000 } } ] }
Transform { translation -1.1000 -6.3500 2.1500 children [
  Shape { appearance Appearance { material Material { diffuseColor 0.88 0.88 0.86 specularColor 0.2 0.2 0.2 shininess 0.3 } }
    geometry Box { size 1.3000 1.1000 0.7000 } } ] }
Transform { translation -1.1000 -3.8100 2.1500 children [
  Shape { appearance Appearance { material Material { diffuseColor 0.88 0.88 0.86 specularColor 0.2 0.2 0.2 shininess 0.3 } }
    geometry Box { size 1.3000 1.1000 0.7000 } } ] }
Transform { translation -1.1000 -1.2700 2.1500 children [
  Shape { appearance Appearance { material Material { diffuseColor 0.88 0.88 0.86 specularColor 0.2 0.2 0.2 shininess 0.3 } }
    geometry Box { size 1.3000 1.1000 0.7000 } } ] }
Transform { translation -1.1000 1.2700 2.1500 children [
  Shape { appearance Appearance { material Material { diffuseColor 0.88 0.88 0.86 specularColor 0.2 0.2 0.2 shininess 0.3 } }
    geometry Box { size 1.3000 1.1000 0.7000 } } ] }
Transform { translation -1.1000 3.8100 2.1500 children [
  Shape { appearance Appearance { material Material { diffuseColor 0.88 0.88 0.86 specularColor 0.2 0.2 0.2 shininess 0.3 } }
    geometry Box { size 1.3000 1.1000 0.7000 } } ] }
Transform { translation -1.1000 6.3500 2.1500 children [
  Shape { appearance Appearance { material Material { diffuseColor 0.88 0.88 0.86 specularColor 0.2 0.2 0.2 shininess 0.3 } }
    geometry Box { size 1.3000 1.1000 0.7000 } } ] }
Transform { translation 2.5500 0.0000 1.1500 children [
  Shape { appearance Appearance { material Material { diffuseColor 0.55 0.55 0.55 specularColor 0.2 0.2 0.2 shininess 0.3 } }
    geometry Box { size 0.3000 15.2400 1.6000 } } ] }
